<?xml version="1.0" encoding="UTF-8" standalone="no"?>
<!-- Created with Inkscape (http://www.inkscape.org/) -->

<svg
   xmlns:dc="http://purl.org/dc/elements/1.1/"
   xmlns:cc="http://creativecommons.org/ns#"
   xmlns:rdf="http://www.w3.org/1999/02/22-rdf-syntax-ns#"
   xmlns:svg="http://www.w3.org/2000/svg"
   xmlns="http://www.w3.org/2000/svg"
   xmlns:xlink="http://www.w3.org/1999/xlink"
   xmlns:sodipodi="http://sodipodi.sourceforge.net/DTD/sodipodi-0.dtd"
   xmlns:inkscape="http://www.inkscape.org/namespaces/inkscape"
   width="32"
   height="32"
   id="svg2"
   version="1.1"
   inkscape:version="0.48.1 r9760"
   sodipodi:docname="abort-l.svg"
   enable-background="new">
  <defs
     id="defs4">
    <linearGradient
       id="linearGradient3800">
      <stop
         style="stop-color:#f9f9f9;stop-opacity:1;"
         offset="0"
         id="stop3802" />
      <stop
         style="stop-color:#dfdfdf;stop-opacity:1;"
         offset="1"
         id="stop3804" />
    </linearGradient>
    <linearGradient
       inkscape:collect="always"
       xlink:href="#linearGradient3800"
       id="linearGradient3891"
       x1="48"
       y1="1058.3622"
       x2="48"
       y2="1082.3622"
       gradientUnits="userSpaceOnUse"
       gradientTransform="translate(-9,0)" />
    <linearGradient
       inkscape:collect="always"
       xlink:href="#linearGradient3800-1"
       id="linearGradient4775-4"
       x1="-8"
       y1="1055.3622"
       x2="-8"
       y2="1080.3622"
       gradientUnits="userSpaceOnUse"
       gradientTransform="translate(-8.5,-30.5)" />
    <linearGradient
       id="linearGradient3800-1">
      <stop
         style="stop-color:#f9f9f9;stop-opacity:1;"
         offset="0"
         id="stop3802-8" />
      <stop
         style="stop-color:#dfdfdf;stop-opacity:1;"
         offset="1"
         id="stop3804-7" />
    </linearGradient>
    <linearGradient
       inkscape:collect="always"
       xlink:href="#linearGradient3800-1"
       id="linearGradient4890"
       x1="16"
       y1="1026.3622"
       x2="16"
       y2="1051.3622"
       gradientUnits="userSpaceOnUse" />
    <filter
       inkscape:collect="always"
       id="filter4406">
      <feGaussianBlur
         inkscape:collect="always"
         stdDeviation="1.2"
         id="feGaussianBlur4408" />
    </filter>
    <filter
       inkscape:collect="always"
       id="filter4441">
      <feBlend
         inkscape:collect="always"
         mode="lighten"
         in2="BackgroundImage"
         id="feBlend4443" />
    </filter>
  </defs>
  <sodipodi:namedview
     id="base"
     pagecolor="#ffffff"
     bordercolor="#666666"
     borderopacity="1.0"
     inkscape:pageopacity="0.0"
     inkscape:pageshadow="2"
     inkscape:zoom="12.239653"
     inkscape:cx="18.690385"
     inkscape:cy="16.370064"
     inkscape:document-units="px"
     inkscape:current-layer="layer4"
     showgrid="true"
     inkscape:window-width="1154"
     inkscape:window-height="648"
     inkscape:window-x="135"
     inkscape:window-y="56"
     inkscape:window-maximized="0"
     inkscape:snap-global="true"
     inkscape:snap-bbox="true"
     inkscape:bbox-nodes="false"
     inkscape:snap-nodes="false">
    <inkscape:grid
       type="xygrid"
       id="grid3752"
       empspacing="5"
       visible="true"
       enabled="true"
       snapvisiblegridlinesonly="true" />
  </sodipodi:namedview>
  <metadata
     id="metadata7">
    <rdf:RDF>
      <cc:Work
         rdf:about="">
        <dc:format>image/svg+xml</dc:format>
        <dc:type
           rdf:resource="http://purl.org/dc/dcmitype/StillImage" />
        <dc:title></dc:title>
      </cc:Work>
    </rdf:RDF>
  </metadata>
  <g
     inkscape:label="Shape"
     inkscape:groupmode="layer"
     id="layer1"
     transform="translate(0,-1020.3622)"
     style="display:inline">
    <path
       inkscape:connector-curvature="0"
       style="fill:#ff6600;fill-opacity:1;stroke:none"
       d="m 8.5,1021.3622 -7.5,15 7.5,15 15,0 7.5,-15 -7.5,-15 -15,0 z m -0.8125,10 16.625,0 c 0.697025,0 1.327781,0.1038 1.8125,0.3125 0.242359,0.1043 0.433171,0.2423 0.59375,0.4063 0.160579,0.1639 0.28125,0.3847 0.28125,0.625 l 0,7.3125 c 0,0.2403 -0.120671,0.4611 -0.28125,0.625 -0.160579,0.164 -0.351391,0.2707 -0.59375,0.375 -0.484719,0.2087 -1.115475,0.3437 -1.8125,0.3437 l -16.625,0 c -0.697025,0 -1.327781,-0.135 -1.8125,-0.3437 -0.242359,-0.1043 -0.433171,-0.211 -0.59375,-0.375 C 5.120671,1040.4796 5,1040.2588 5,1040.0185 l 0,-7.3125 c 0,-0.2403 0.120671,-0.4611 0.28125,-0.625 0.160579,-0.164 0.351391,-0.302 0.59375,-0.4063 0.484719,-0.2087 1.115475,-0.3125 1.8125,-0.3125 z m 0,0.625 c -0.624345,0 -1.184989,0.1188 -1.5625,0.2813 -0.188755,0.081 -0.326079,0.168 -0.40625,0.25 -0.08017,0.082 -0.09375,0.1435 -0.09375,0.1875 l 0,7.3125 c 0,0.044 0.01358,0.074 0.09375,0.1562 0.08017,0.082 0.217495,0.2003 0.40625,0.2813 0.377511,0.162 0.938155,0.25 1.5625,0.25 l 16.625,0 c 0.624345,0 1.184989,-0.087 1.5625,-0.25 0.188755,-0.081 0.32608,-0.1993 0.40625,-0.2813 0.08017,-0.082 0.09375,-0.1122 0.09375,-0.1562 l 0,-7.3125 c 0,-0.044 -0.01358,-0.1055 -0.09375,-0.1875 -0.08017,-0.082 -0.217495,-0.169 -0.40625,-0.25 -0.377511,-0.1625 -0.938155,-0.2813 -1.5625,-0.2813 l -16.625,0 z m 1.40625,1.375 13.8125,0 c 1.71665,0 3.09375,0.9982 3.09375,2.25 l 0,1.5 c 0,1.2518 -1.3771,2.25 -3.09375,2.25 l -13.8125,0 C 7.3771,1039.3622 6,1038.364 6,1037.1122 l 0,-1.5 c 0,-1.2518 1.3771,-2.25 3.09375,-2.25 z"
       id="path4670-4-7" />
    <path
       style="opacity:0.56999966;fill:url(#linearGradient3891);fill-opacity:1;stroke:none"
       d="m 24,1052.3622 0,11 0,19 30,0 0,-19 0,-4.875 -6.875,-6.125 -2.125,0 0,11 -16,0 0,-11 -5,0 z m 12,1 0,8 6,0 0,-8 -6,0 z m -7,13 20,0 0,13 -20,0 0,-13 z m 2,3 0,2 16,0 0,-2 -16,0 z m 0,5 0,2 16,0 0,-2 -16,0 z"
       id="rect3054-1"
       inkscape:connector-curvature="0" />
  </g>
  <g
     inkscape:groupmode="layer"
     id="layer4"
     inkscape:label="Overlay"
     style="display:inline;filter:url(#filter4441)">
    <path
       transform="translate(0,-1020.3622)"
       id="path4418"
       d="m 8.5,1021.3622 -7.5,15 7.5,15 15,0 7.5,-15 -7.5,-15 -15,0 z m -0.8125,10 16.625,0 c 0.697025,0 1.327781,0.1038 1.8125,0.3125 0.242359,0.1043 0.433171,0.2423 0.59375,0.4063 0.160579,0.1639 0.28125,0.3847 0.28125,0.625 l 0,7.3125 c 0,0.2403 -0.120671,0.4611 -0.28125,0.625 -0.160579,0.164 -0.351391,0.2707 -0.59375,0.375 -0.484719,0.2087 -1.115475,0.3437 -1.8125,0.3437 l -16.625,0 c -0.697025,0 -1.327781,-0.135 -1.8125,-0.3437 -0.242359,-0.1043 -0.433171,-0.211 -0.59375,-0.375 C 5.120671,1040.4796 5,1040.2588 5,1040.0185 l 0,-7.3125 c 0,-0.2403 0.120671,-0.4611 0.28125,-0.625 0.160579,-0.164 0.351391,-0.302 0.59375,-0.4063 0.484719,-0.2087 1.115475,-0.3125 1.8125,-0.3125 z m 0,0.625 c -0.624345,0 -1.184989,0.1188 -1.5625,0.2813 -0.188755,0.081 -0.326079,0.168 -0.40625,0.25 -0.08017,0.082 -0.09375,0.1435 -0.09375,0.1875 l 0,7.3125 c 0,0.044 0.01358,0.074 0.09375,0.1562 0.08017,0.082 0.217495,0.2003 0.40625,0.2813 0.377511,0.162 0.938155,0.25 1.5625,0.25 l 16.625,0 c 0.624345,0 1.184989,-0.087 1.5625,-0.25 0.188755,-0.081 0.32608,-0.1993 0.40625,-0.2813 0.08017,-0.082 0.09375,-0.1122 0.09375,-0.1562 l 0,-7.3125 c 0,-0.044 -0.01358,-0.1055 -0.09375,-0.1875 -0.08017,-0.082 -0.217495,-0.169 -0.40625,-0.25 -0.377511,-0.1625 -0.938155,-0.2813 -1.5625,-0.2813 l -16.625,0 z m 1.40625,1.375 13.8125,0 c 1.71665,0 3.09375,0.9982 3.09375,2.25 l 0,1.5 c 0,1.2518 -1.3771,2.25 -3.09375,2.25 l -13.8125,0 C 7.3771,1039.3622 6,1038.364 6,1037.1122 l 0,-1.5 c 0,-1.2518 1.3771,-2.25 3.09375,-2.25 z"
       style="fill:url(#linearGradient4890);fill-opacity:1;stroke:none"
       inkscape:connector-curvature="0" />
  </g>
  <g
     inkscape:groupmode="layer"
     id="layer5"
     inkscape:label="Shadow"
     style="opacity:0.56999978;display:inline">
    <path
       style="fill:#000000;fill-opacity:1;stroke:none"
       d="M 8.5,1 1,16 8.5,31 8.71875,31 1.4375,16.4375 l 7.5,-15 14.78125,0 L 23.5,1 8.5,1 z M 7.6875,11.625 c -0.624345,0 -1.184989,0.11875 -1.5625,0.28125 -0.188755,0.081 -0.326079,0.168 -0.40625,0.25 C 5.678665,12.19725 5.669666,12.21888 5.65625,12.25 5.642834,12.28112 5.625,12.32175 5.625,12.34375 l 0,7.3125 c 0,0.044 0.01358,0.07405 0.09375,0.15625 0.070149,0.07175 0.189918,0.171972 0.34375,0.25 l 0,-2.84375 C 6.0214921,17.071654 6,16.906475 6,16.75 l 0,-1.5 c 0,-0.156475 0.021492,-0.321654 0.0625,-0.46875 l 0,-2 c 0,-0.044 0.013579,-0.1056 0.09375,-0.1875 0.080171,-0.082 0.2174946,-0.1687 0.40625,-0.25 0.3775109,-0.1625 0.9381551,-0.28125 1.5625,-0.28125 l 16.625,0 c 0.624345,0 1.184989,0.11875 1.5625,0.28125 0.02754,0.01182 0.03716,0.0192 0.0625,0.03125 l 0,-0.03125 c 0,-0.044 -0.01358,-0.1055 -0.09375,-0.1875 -0.08017,-0.082 -0.217495,-0.169 -0.40625,-0.25 C 25.497489,11.74375 24.936845,11.625 24.3125,11.625 l -16.625,0 z m 19.125,0.25 C 26.909865,12.015182 27,12.168146 27,12.34375 l 0,7.3125 c 0,0.231058 -0.129914,0.431998 -0.28125,0.59375 -0.0061,0.0065 0.0062,0.02495 0,0.03125 -0.04076,0.04163 -0.111243,0.05861 -0.15625,0.09375 -0.132294,0.103303 -0.256663,0.203426 -0.4375,0.28125 C 25.640281,20.86495 25.009525,21 24.3125,21 L 7.6875,21 C 6.990475,21 6.359719,20.86495 5.875,20.65625 5.7538205,20.6041 5.6605702,20.560213 5.5625,20.5 c 0.044861,0.07594 0.095724,0.156972 0.15625,0.21875 0.1605794,0.164 0.3513906,0.2707 0.59375,0.375 0.4847188,0.2087 1.1154749,0.34375 1.8125,0.34375 l 16.625,0 c 0.697025,0 1.327781,-0.13505 1.8125,-0.34375 0.242359,-0.1043 0.433171,-0.211 0.59375,-0.375 0.160579,-0.1639 0.28125,-0.3847 0.28125,-0.625 l 0,-7.3125 c 0,-0.2403 -0.120671,-0.4611 -0.28125,-0.625 C 27.0599,12.05785 26.935219,11.953017 26.8125,11.875 z m -1.25,2.25 C 25.830094,14.458333 26,14.832733 26,15.25 l 0,1.5 C 26,18.0018 24.6229,19 22.90625,19 l -13.8125,0 c -0.858325,0 -1.6286438,-0.250225 -2.1875,-0.65625 0.5421536,0.645092 1.5028456,1.09375 2.625,1.09375 l 13.8125,0 c 1.502069,0 2.744195,-0.78283 3.03125,-1.8125 l 0,-2.40625 C 26.255674,14.790726 25.96196,14.425464 25.5625,14.125 z"
       id="path4670-4"
       inkscape:connector-curvature="0" />
  </g>
</svg>
