<?xml version="1.0" encoding="UTF-8" standalone="no"?>
<!-- Created with Inkscape (http://www.inkscape.org/) -->

<svg
   xmlns:dc="http://purl.org/dc/elements/1.1/"
   xmlns:cc="http://creativecommons.org/ns#"
   xmlns:rdf="http://www.w3.org/1999/02/22-rdf-syntax-ns#"
   xmlns:svg="http://www.w3.org/2000/svg"
   xmlns="http://www.w3.org/2000/svg"
   xmlns:sodipodi="http://sodipodi.sourceforge.net/DTD/sodipodi-0.dtd"
   xmlns:inkscape="http://www.inkscape.org/namespaces/inkscape"
   id="svg7384"
   height="72"
   width="72"
   version="1.1"
   inkscape:version="0.48.3.1 r9886"
   sodipodi:docname="drive-harddisk-symbolic.svg"
   inkscape:export-filename="/home/kedzie/Development/git/VirtualBox-Manager/VBoxManager/doc/svg-xhdpi/Holo-Light/ic_menu_hdd_del.png"
   inkscape:export-xdpi="90"
   inkscape:export-ydpi="90">
  <defs
     id="defs11" />
  <sodipodi:namedview
     pagecolor="#ffffff"
     bordercolor="#666666"
     borderopacity="1"
     objecttolerance="10"
     gridtolerance="10"
     guidetolerance="10"
     inkscape:pageopacity="0"
     inkscape:pageshadow="2"
     inkscape:window-width="1261"
     inkscape:window-height="876"
     id="namedview9"
     showgrid="true"
     inkscape:snap-bbox="true"
     inkscape:snap-nodes="false"
     inkscape:zoom="7.9121198"
     inkscape:cx="36.485027"
     inkscape:cy="37.147257"
     inkscape:window-x="454"
     inkscape:window-y="125"
     inkscape:window-maximized="0"
     inkscape:current-layer="layer3">
    <inkscape:grid
       type="xygrid"
       id="grid2988"
       empspacing="5"
       visible="true"
       enabled="true"
       snapvisiblegridlinesonly="true" />
  </sodipodi:namedview>
  <metadata
     id="metadata90">
    <rdf:RDF>
      <cc:Work
         rdf:about="">
        <dc:format>image/svg+xml</dc:format>
        <dc:type
           rdf:resource="http://purl.org/dc/dcmitype/StillImage" />
        <dc:title>Gnome Symbolic Icon Theme</dc:title>
      </cc:Work>
    </rdf:RDF>
  </metadata>
  <title
     id="title9167">Gnome Symbolic Icon Theme</title>
  <g
     inkscape:groupmode="layer"
     id="layer1"
     inkscape:label="Holo-Dark"
     style="display:none">
    <g
       id="layer10-8"
       transform="matrix(3.8571429,0,0,3.8571429,-695.85715,-1722.9614)"
       style="fill:#ffffff;fill-opacity:0.8">
      <path
         id="rect42761-1"
         style="text-indent:0;text-transform:none;block-progression:tb;color:#bebebe;fill:#ffffff;fill-opacity:0.8"
         d="m 185.19,448 c -1.2,0 -2.19,0.99 -2.19,2.19 v 11.625 c 0,1.1999 0.9859,2.1875 2.1875,2.1875 h 9.625 c 1.2016,0 2.1875,-0.98758 2.1875,-2.1875 V 450.19 c -0.01,-1.21 -1,-2.2 -2.2,-2.2 h -9.625 z m 0,2 h 9.625 c 0.1238,0 0.1875,0.0566 0.1875,0.1875 v 11.625 c 0,0.1309 -0.0637,0.1875 -0.1875,0.1875 h -9.625 c -0.14,-0.01 -0.2,-0.07 -0.2,-0.2 v -11.625 c 0,-0.12 0.06,-0.18 0.19,-0.18 z"
         inkscape:connector-curvature="0" />
      <path
         id="path42765-1"
         style="color:#000000;fill:#ffffff;fill-opacity:0.8"
         d="m 189.84,451 c -0.26556,0.0109 -0.54445,0.0586 -0.8125,0.125 -2.1444,0.53085 -3.4371,2.6993 -2.9062,4.8438 0.4498,1.817 2.0753,3.0225 3.8657,3.0253 0.16806,2.7e-4 0.33757,-0.0101 0.5077,-0.0315 l -0.3888,-2.9796 c -0.0347,0.01 -0.0704,0.017 -0.10961,0.017 -0.55254,0 -1,-0.44746 -1,-1 0,-0.55254 0.44746,-1 1,-1 0.55254,0 1,0.44746 1,1 0,0.11765 -0.0285,0.22486 -0.0726,0.32494 l 2.7006,1.3868 c 0.38616,-0.83016 0.46978,-1.7806 0.24701,-2.6805 -0.46449,-1.8764 -2.1723,-3.1072 -4.0312,-3.0312 z"
         inkscape:connector-curvature="0" />
      <path
         id="path42767-7"
         style="color:#000000;fill:#ffffff;fill-opacity:0.8"
         d="m 190.66,456 1.34,4 c 0.73426,2.056 3,0.38433 1.4966,-1 z"
         inkscape:connector-curvature="0" />
    </g>
  </g>
  <g
     inkscape:groupmode="layer"
     id="layer2"
     inkscape:label="Holo-Light"
     style="display:inline">
    <g
       style="fill:#333333;fill-opacity:0.6;display:inline"
       transform="matrix(3.8571429,0,0,3.8571429,-695.85715,-1722.9614)"
       id="g3791">
      <path
         inkscape:connector-curvature="0"
         d="m 185.19,448 c -1.2,0 -2.19,0.99 -2.19,2.19 v 11.625 c 0,1.1999 0.9859,2.1875 2.1875,2.1875 h 9.625 c 1.2016,0 2.1875,-0.98758 2.1875,-2.1875 V 450.19 c -0.01,-1.21 -1,-2.2 -2.2,-2.2 h -9.625 z m 0,2 h 9.625 c 0.1238,0 0.1875,0.0566 0.1875,0.1875 v 11.625 c 0,0.1309 -0.0637,0.1875 -0.1875,0.1875 h -9.625 c -0.14,-0.01 -0.2,-0.07 -0.2,-0.2 v -11.625 c 0,-0.12 0.06,-0.18 0.19,-0.18 z"
         style="text-indent:0;text-transform:none;block-progression:tb;color:#bebebe;fill:#333333;fill-opacity:0.6"
         id="path3793" />
      <path
         inkscape:connector-curvature="0"
         d="m 189.84,451 c -0.26556,0.0109 -0.54445,0.0586 -0.8125,0.125 -2.1444,0.53085 -3.4371,2.6993 -2.9062,4.8438 0.4498,1.817 2.0753,3.0225 3.8657,3.0253 0.16806,2.7e-4 0.33757,-0.0101 0.5077,-0.0315 l -0.3888,-2.9796 c -0.0347,0.01 -0.0704,0.017 -0.10961,0.017 -0.55254,0 -1,-0.44746 -1,-1 0,-0.55254 0.44746,-1 1,-1 0.55254,0 1,0.44746 1,1 0,0.11765 -0.0285,0.22486 -0.0726,0.32494 l 2.7006,1.3868 c 0.38616,-0.83016 0.46978,-1.7806 0.24701,-2.6805 -0.46449,-1.8764 -2.1723,-3.1072 -4.0312,-3.0312 z"
         style="color:#000000;fill:#333333;fill-opacity:0.6"
         id="path3795" />
      <path
         inkscape:connector-curvature="0"
         d="m 190.66,456 1.34,4 c 0.73426,2.056 3,0.38433 1.4966,-1 z"
         style="color:#000000;fill:#333333;fill-opacity:0.6"
         id="path3797" />
    </g>
  </g>
  <g
     inkscape:groupmode="layer"
     id="layer3"
     inkscape:label="Remove"
     style="display:inline">
    <rect
       style="fill:#a6aca9;fill-opacity:1;stroke:none;display:inline;enable-background:new"
       id="rect3801"
       width="33.60973"
       height="11.506852"
       x="36.39027"
       y="45.493149"
       rx="2.1708236"
       ry="1.6326421" />
  </g>
  <g
     inkscape:groupmode="layer"
     id="layer4"
     inkscape:label="Add"
     style="display:none">
    <path
       style="fill:#a6aca9;fill-opacity:1;stroke:none;display:inline;enable-background:new"
       d="m 49.36643,33.643049 c -0.87228,0 -1.56051,1.03357 -1.56051,2.29488 l 0,9.45493 -8.92966,0 c -1.19125,0 -2.1674,0.72874 -2.1674,1.65232 l 0,8.44518 c 0,0.92357 0.97615,1.65232 2.1674,1.65232 l 8.92966,0 0,9.45493 c 0,1.26131 0.68823,2.29488 1.56051,2.29488 l 7.976,0 c 0.8723,0 1.56053,-1.03357 1.56053,-2.29488 l 0,-9.45493 8.92966,0 c 1.19123,0 2.16738,-0.72875 2.16738,-1.65232 l 0,-8.44518 c 0,-0.92358 -0.97615,-1.65232 -2.16738,-1.65232 l -8.92966,0 0,-9.45493 c 0,-1.26131 -0.68823,-2.29488 -1.56053,-2.29488 l -7.976,0 z"
       id="path3803"
       inkscape:connector-curvature="0" />
  </g>
</svg>
