<?xml version="1.0" encoding="UTF-8" standalone="no"?>
<!-- Created with Inkscape (http://www.inkscape.org/) -->

<svg
   xmlns:dc="http://purl.org/dc/elements/1.1/"
   xmlns:cc="http://creativecommons.org/ns#"
   xmlns:rdf="http://www.w3.org/1999/02/22-rdf-syntax-ns#"
   xmlns:svg="http://www.w3.org/2000/svg"
   xmlns="http://www.w3.org/2000/svg"
   xmlns:sodipodi="http://sodipodi.sourceforge.net/DTD/sodipodi-0.dtd"
   xmlns:inkscape="http://www.inkscape.org/namespaces/inkscape"
   width="48"
   height="48"
   id="svg2"
   version="1.1"
   inkscape:version="0.48.3.1 r9886"
   sodipodi:docname="pause.svg"
   style="enable-background:new"
   inkscape:export-filename="/home/kedzie/Development/git/VirtualBox-Manager/VBoxManager/res/drawable-xhdpi/ic_list_pause_c.png"
   inkscape:export-xdpi="135"
   inkscape:export-ydpi="135">
  <defs
     id="defs4">
    <linearGradient
       id="linearGradient3800">
      <stop
         style="stop-color:#f9f9f9;stop-opacity:1;"
         offset="0"
         id="stop3802" />
      <stop
         style="stop-color:#dfdfdf;stop-opacity:1;"
         offset="1"
         id="stop3804" />
    </linearGradient>
  </defs>
  <sodipodi:namedview
     id="base"
     pagecolor="#ffffff"
     bordercolor="#666666"
     borderopacity="1.0"
     inkscape:pageopacity="0.0"
     inkscape:pageshadow="2"
     inkscape:zoom="7.04"
     inkscape:cx="6.2614352"
     inkscape:cy="23.749146"
     inkscape:document-units="px"
     inkscape:current-layer="layer4"
     showgrid="true"
     inkscape:window-width="1231"
     inkscape:window-height="712"
     inkscape:window-x="553"
     inkscape:window-y="91"
     inkscape:window-maximized="0"
     inkscape:snap-global="true"
     inkscape:snap-nodes="false"
     inkscape:snap-bbox="true">
    <inkscape:grid
       type="xygrid"
       id="grid3752"
       empspacing="5"
       visible="true"
       enabled="true"
       snapvisiblegridlinesonly="true" />
  </sodipodi:namedview>
  <metadata
     id="metadata7">
    <rdf:RDF>
      <cc:Work
         rdf:about="">
        <dc:format>image/svg+xml</dc:format>
        <dc:type
           rdf:resource="http://purl.org/dc/dcmitype/StillImage" />
        <dc:title></dc:title>
      </cc:Work>
    </rdf:RDF>
  </metadata>
  <g
     inkscape:groupmode="layer"
     id="layer4"
     inkscape:label="Holo Light"
     style="display:none">
    <path
       id="path3810"
       d="M 8.5875,6 C 7.1471004,6 6,7.070367 6,8.400033 L 6,39.599967 C 6,40.929633 7.1471004,42 8.5875,42 l 10.424998,0 c 1.440402,0 2.587501,-1.070367 2.587501,-2.400033 l 0,-31.199934 C 21.599999,7.070367 20.452901,6 19.012498,6 L 8.5875,6 z M 30.225001,6 C 28.774527,6 27.6,7.070367 27.6,8.400033 l 0,31.199934 C 27.6,40.929633 28.774527,42 30.225001,42 l 9.149997,0 C 40.825474,42 42,40.929633 42,39.599967 L 42,8.400033 C 42,7.070367 40.825474,6 39.374998,6 l -9.149997,0 z"
       style="fill:#333333;fill-opacity:0.6;fill-rule:evenodd;stroke:none;display:inline;enable-background:new"
       inkscape:connector-curvature="0" />
  </g>
  <g
     inkscape:label="Holo Dark"
     inkscape:groupmode="layer"
     id="layer1"
     transform="translate(0,-1004.3622)"
     style="display:none">
    <path
       inkscape:connector-curvature="0"
       style="fill:#ffffff;fill-opacity:0.8;fill-rule:evenodd;stroke:none"
       d="m 8.5875,1010.3622 c -1.4403996,0 -2.5875,1.0704 -2.5875,2.4 l 0,31.2 c 0,1.3296 1.1471004,2.4 2.5875,2.4 l 10.424998,0 c 1.440402,0 2.587501,-1.0704 2.587501,-2.4 l 0,-31.2 c 0,-1.3296 -1.147098,-2.4 -2.5875,-2.4 l -10.424999,0 z m 21.637501,0 c -1.450474,0 -2.625001,1.0704 -2.625001,2.4 l 0,31.2 c 0,1.3296 1.174527,2.4 2.625001,2.4 l 9.149997,0 c 1.450476,0 2.625002,-1.0704 2.625002,-2.4 l 0,-31.2 c 0,-1.3296 -1.174526,-2.4 -2.625002,-2.4 l -9.149997,0 z"
       id="rect2987-1-8" />
  </g>
  <g
     inkscape:groupmode="layer"
     id="layer2"
     inkscape:label="Color"
     style="display:inline">
    <path
       inkscape:connector-curvature="0"
       style="fill:#fffc8b;fill-opacity:1;fill-rule:evenodd;stroke:none;display:inline;enable-background:new"
       d="M 8.5875,6 C 7.1471004,6 6,7.070367 6,8.400033 L 6,39.599967 C 6,40.929633 7.1471004,42 8.5875,42 l 10.424998,0 c 1.440402,0 2.587501,-1.070367 2.587501,-2.400033 l 0,-31.199934 C 21.599999,7.070367 20.452901,6 19.012498,6 L 8.5875,6 z M 30.225001,6 C 28.774527,6 27.6,7.070367 27.6,8.400033 l 0,31.199934 C 27.6,40.929633 28.774527,42 30.225001,42 l 9.149997,0 C 40.825474,42 42,40.929633 42,39.599967 L 42,8.400033 C 42,7.070367 40.825474,6 39.374998,6 l -9.149997,0 z"
       id="path3758" />
  </g>
</svg>
