<?xml version="1.0" encoding="UTF-8" standalone="no"?>
<!-- Created with Inkscape (http://www.inkscape.org/) -->

<svg
   xmlns:dc="http://purl.org/dc/elements/1.1/"
   xmlns:cc="http://creativecommons.org/ns#"
   xmlns:rdf="http://www.w3.org/1999/02/22-rdf-syntax-ns#"
   xmlns:svg="http://www.w3.org/2000/svg"
   xmlns="http://www.w3.org/2000/svg"
   xmlns:xlink="http://www.w3.org/1999/xlink"
   xmlns:sodipodi="http://sodipodi.sourceforge.net/DTD/sodipodi-0.dtd"
   xmlns:inkscape="http://www.inkscape.org/namespaces/inkscape"
   width="48"
   height="48"
   id="svg2"
   version="1.1"
   inkscape:version="0.48.3.1 r9886"
   sodipodi:docname="power.svg"
   style="enable-background:new"
   inkscape:export-filename="/home/kedzie/Development/git/VirtualBox-Manager/VBoxManager/res/drawable-xhdpi/ic_list_acpi_c.png"
   inkscape:export-xdpi="135"
   inkscape:export-ydpi="135"
   enable-background="new">
  <defs
     id="defs4">
    <linearGradient
       id="linearGradient3786">
      <stop
         style="stop-color:#f9f9f9;stop-opacity:1;"
         offset="0"
         id="stop3788" />
      <stop
         id="stop3794"
         offset="0.25"
         style="stop-color:#f9f9f9;stop-opacity:1;" />
      <stop
         style="stop-color:#dfdfdf;stop-opacity:1;"
         offset="1"
         id="stop3790" />
    </linearGradient>
    <linearGradient
       inkscape:collect="always"
       xlink:href="#linearGradient3786"
       id="linearGradient3792"
       x1="0"
       y1="16"
       x2="32"
       y2="16"
       gradientUnits="userSpaceOnUse" />
    <linearGradient
       inkscape:collect="always"
       xlink:href="#linearGradient3786"
       id="linearGradient3768"
       x1="16"
       y1="1"
       x2="16"
       y2="31"
       gradientUnits="userSpaceOnUse"
       gradientTransform="matrix(1.5341463,0,0,1.52589,-0.52111842,-16.52589)" />
  </defs>
  <sodipodi:namedview
     id="base"
     pagecolor="#ffffff"
     bordercolor="#666666"
     borderopacity="1.0"
     inkscape:pageopacity="0.0"
     inkscape:pageshadow="2"
     inkscape:zoom="10.095417"
     inkscape:cx="17.536828"
     inkscape:cy="24.164176"
     inkscape:document-units="px"
     inkscape:current-layer="layer3"
     showgrid="true"
     inkscape:snap-global="true"
     inkscape:snap-bbox="true"
     inkscape:window-width="1192"
     inkscape:window-height="792"
     inkscape:window-x="653"
     inkscape:window-y="263"
     inkscape:window-maximized="0"
     fit-margin-top="0"
     fit-margin-left="0"
     fit-margin-right="0"
     fit-margin-bottom="0"
     inkscape:snap-nodes="false">
    <inkscape:grid
       type="xygrid"
       id="grid2985"
       empspacing="5"
       visible="true"
       enabled="true"
       snapvisiblegridlinesonly="true" />
  </sodipodi:namedview>
  <metadata
     id="metadata7">
    <rdf:RDF>
      <cc:Work
         rdf:about="">
        <dc:format>image/svg+xml</dc:format>
        <dc:type
           rdf:resource="http://purl.org/dc/dcmitype/StillImage" />
        <dc:title></dc:title>
      </cc:Work>
    </rdf:RDF>
  </metadata>
  <g
     inkscape:groupmode="layer"
     id="layer2"
     inkscape:label="Holo-Light"
     style="display:none"
     transform="translate(0,16)">
    <path
       inkscape:connector-curvature="0"
       style="fill:#333333;fill-opacity:0.6;stroke:none"
       d="M 24,-10 C 14.058875,-10 6,-1.9411253 6,7.9999991 6,17.941125 14.058875,26 24,26 33.941125,26 42,17.941125 42,7.9999991 42,-1.9411253 33.941125,-10 24,-10 z m 0,6.0000001 c 0.664799,0 1.199999,1.0704001 1.199999,2.4 l 0,7.1999995 c 0,1.3295997 -0.5352,2.3999995 -1.199999,2.3999995 -0.664799,0 -1.199999,-1.0703998 -1.199999,-2.3999995 l 0,-7.1999995 c 0,-1.3295999 0.5352,-2.4 1.199999,-2.4 z m -6.487499,4.94999996 a 1.2001201,1.2001201 0 0 1 0.112504,0 1.2001201,1.2001201 0 0 1 0.862499,2.13749984 c -3.056139,3.0561396 -3.056139,7.9688601 0,11.0250001 3.056141,3.056139 7.968861,3.056139 11.025001,0 3.056139,-3.05614 3.056139,-7.9688605 0,-11.0250001 a 1.2001201,1.2001201 0 1 1 1.687499,-1.6875006 c 3.973298,3.9732975 3.973298,10.4267027 0,14.4000007 -1.986648,1.986648 -4.587078,3 -7.2,3 -2.61292,0 -5.21335,-1.013352 -7.2,-3 -3.973297,-3.973298 -3.973297,-10.4267032 0,-14.4000007 a 1.2001201,1.2001201 0 0 1 0.712497,-0.44999924 z"
       id="path3782-8-3" />
  </g>
  <g
     inkscape:groupmode="layer"
     id="layer1"
     inkscape:label="Holo-Dark"
     style="display:none">
    <path
       transform="translate(0,16)"
       id="path3761"
       d="M 24,-10 C 14.058875,-10 6,-1.9411253 6,7.9999991 6,17.941125 14.058875,26 24,26 33.941125,26 42,17.941125 42,7.9999991 42,-1.9411253 33.941125,-10 24,-10 z m 0,6.0000001 c 0.664799,0 1.199999,1.0704001 1.199999,2.4 l 0,7.1999995 c 0,1.3295997 -0.5352,2.3999995 -1.199999,2.3999995 -0.664799,0 -1.199999,-1.0703998 -1.199999,-2.3999995 l 0,-7.1999995 c 0,-1.3295999 0.5352,-2.4 1.199999,-2.4 z m -6.487499,4.94999996 a 1.2001201,1.2001201 0 0 1 0.112504,0 1.2001201,1.2001201 0 0 1 0.862499,2.13749984 c -3.056139,3.0561396 -3.056139,7.9688601 0,11.0250001 3.056141,3.056139 7.968861,3.056139 11.025001,0 3.056139,-3.05614 3.056139,-7.9688605 0,-11.0250001 a 1.2001201,1.2001201 0 1 1 1.687499,-1.6875006 c 3.973298,3.9732975 3.973298,10.4267027 0,14.4000007 -1.986648,1.986648 -4.587078,3 -7.2,3 -2.61292,0 -5.21335,-1.013352 -7.2,-3 -3.973297,-3.973298 -3.973297,-10.4267032 0,-14.4000007 a 1.2001201,1.2001201 0 0 1 0.712497,-0.44999924 z"
       style="fill:#ffffff;fill-opacity:0.8;stroke:none;display:inline;enable-background:new"
       inkscape:connector-curvature="0" />
  </g>
  <g
     inkscape:groupmode="layer"
     id="layer3"
     inkscape:label="Color"
     style="display:inline">
    <path
       transform="translate(0,16)"
       id="path3762"
       d="M 24,-10 C 14.058875,-10 6,-1.9411253 6,7.9999991 6,17.941125 14.058875,26 24,26 33.941125,26 42,17.941125 42,7.9999991 42,-1.9411253 33.941125,-10 24,-10 z m 0,6.0000001 c 0.664799,0 1.199999,1.0704001 1.199999,2.4 l 0,7.1999995 c 0,1.3295997 -0.5352,2.3999995 -1.199999,2.3999995 -0.664799,0 -1.199999,-1.0703998 -1.199999,-2.3999995 l 0,-7.1999995 c 0,-1.3295999 0.5352,-2.4 1.199999,-2.4 z m -6.487499,4.94999996 a 1.2001201,1.2001201 0 0 1 0.112504,0 1.2001201,1.2001201 0 0 1 0.862499,2.13749984 c -3.056139,3.0561396 -3.056139,7.9688601 0,11.0250001 3.056141,3.056139 7.968861,3.056139 11.025001,0 3.056139,-3.05614 3.056139,-7.9688605 0,-11.0250001 a 1.2001201,1.2001201 0 1 1 1.687499,-1.6875006 c 3.973298,3.9732975 3.973298,10.4267027 0,14.4000007 -1.986648,1.986648 -4.587078,3 -7.2,3 -2.61292,0 -5.21335,-1.013352 -7.2,-3 -3.973297,-3.973298 -3.973297,-10.4267032 0,-14.4000007 a 1.2001201,1.2001201 0 0 1 0.712497,-0.44999924 z"
       style="fill:#33b5e5;fill-opacity:1;stroke:none;display:inline;enable-background:new"
       inkscape:connector-curvature="0" />
  </g>
</svg>
