<?xml version="1.0" encoding="UTF-8" standalone="no"?>
<!-- Created with Inkscape (http://www.inkscape.org/) -->

<svg
   xmlns:dc="http://purl.org/dc/elements/1.1/"
   xmlns:cc="http://creativecommons.org/ns#"
   xmlns:rdf="http://www.w3.org/1999/02/22-rdf-syntax-ns#"
   xmlns:svg="http://www.w3.org/2000/svg"
   xmlns="http://www.w3.org/2000/svg"
   xmlns:sodipodi="http://sodipodi.sourceforge.net/DTD/sodipodi-0.dtd"
   xmlns:inkscape="http://www.inkscape.org/namespaces/inkscape"
   width="72"
   height="72"
   id="svg3769"
   version="1.1"
   inkscape:version="0.48.3.1 r9886"
   sodipodi:docname="settings.svg"
   inkscape:export-filename="/home/kedzie/Development/git/VirtualBox-Manager/VBoxManager/res/drawable-xhdpi/ic_action_settings_c.png"
   inkscape:export-xdpi="90"
   inkscape:export-ydpi="90">
  <defs
     id="defs3771">
    <clipPath
       clipPathUnits="userSpaceOnUse"
       id="clipPath1524">
      <path
         d="M 0,96 96,96 96,0 0,0 0,96 z"
         id="path1526"
         inkscape:connector-curvature="0" />
    </clipPath>
  </defs>
  <sodipodi:namedview
     id="base"
     pagecolor="#ffffff"
     bordercolor="#666666"
     borderopacity="1.0"
     inkscape:pageopacity="0.0"
     inkscape:pageshadow="2"
     inkscape:zoom="9.28"
     inkscape:cx="31.844735"
     inkscape:cy="34.970159"
     inkscape:document-units="px"
     inkscape:current-layer="layer1"
     showgrid="true"
     inkscape:window-width="1469"
     inkscape:window-height="978"
     inkscape:window-x="75"
     inkscape:window-y="51"
     inkscape:window-maximized="0"
     inkscape:snap-bbox="true"
     inkscape:snap-nodes="false">
    <inkscape:grid
       type="xygrid"
       id="grid3777"
       empspacing="4"
       visible="true"
       enabled="true"
       snapvisiblegridlinesonly="true" />
  </sodipodi:namedview>
  <metadata
     id="metadata3774">
    <rdf:RDF>
      <cc:Work
         rdf:about="">
        <dc:format>image/svg+xml</dc:format>
        <dc:type
           rdf:resource="http://purl.org/dc/dcmitype/StillImage" />
        <dc:title></dc:title>
      </cc:Work>
    </rdf:RDF>
  </metadata>
  <g
     inkscape:label="Color"
     inkscape:groupmode="layer"
     id="layer1"
     transform="translate(0,-980.3622)">
    <g
       id="g1520"
       transform="matrix(0.65257838,0,0,-0.65257838,3.1762377,1045.8379)"
       style="fill:#47641f;fill-opacity:1">
      <g
         id="g1522"
         clip-path="url(#clipPath1524)"
         style="fill:#47641f;fill-opacity:1">
        <path
           d="m 84.011,25.994 -12.004,0 0,-4.002 12.004,0 0,4.002 z m -30.009,0 -42.013,0 0,-4.002 42.013,0 0,4.002 z M 84.011,50 l -42.013,0 0,-4 42.013,0 0,4 z m -60.019,0 -12.003,0 0,-4 12.003,0 0,4 z m 60.019,24.007 -12.004,0 0,-4.001 12.004,0 0,4.001 z m -30.009,0 -42.013,0 0,-4.001 42.013,0 0,4.001 z m 8.122,11.003 c -2.811,0 -5.121,-2.301 -5.121,-5.121 l 0,-15.765 c 0,-2.821 2.31,-5.122 5.121,-5.122 l 1.761,0 c 2.821,0 5.122,2.301 5.122,5.122 l 0,15.765 c 0,2.82 -2.301,5.121 -5.122,5.121 l -1.761,0 z m 0,-48.014 c -2.811,0 -5.121,-2.299 -5.121,-5.121 l 0,-15.764 c 0,-2.822 2.31,-5.121 5.121,-5.121 l 1.761,0 c 2.809,0 5.122,2.299 5.122,5.121 l 0,15.764 c 0,2.822 -2.313,5.121 -5.122,5.121 l -1.761,0 z M 32.115,61.003 c -2.81,0 -5.121,-2.3 -5.121,-5.121 l 0,-15.765 c 0,-2.82 2.311,-5.121 5.121,-5.121 l 1.76,0 c 2.811,0 5.122,2.301 5.122,5.121 l 0,15.765 c 0,2.821 -2.311,5.121 -5.122,5.121 l -1.76,0 z"
           style="fill:#47641f;fill-opacity:1;fill-rule:nonzero;stroke:none"
           id="path1528"
           inkscape:connector-curvature="0" />
      </g>
    </g>
  </g>
</svg>
