<?xml version="1.0" encoding="UTF-8" standalone="no"?>
<!-- Created with Inkscape (http://www.inkscape.org/) -->

<svg
   xmlns:dc="http://purl.org/dc/elements/1.1/"
   xmlns:cc="http://creativecommons.org/ns#"
   xmlns:rdf="http://www.w3.org/1999/02/22-rdf-syntax-ns#"
   xmlns:svg="http://www.w3.org/2000/svg"
   xmlns="http://www.w3.org/2000/svg"
   xmlns:sodipodi="http://sodipodi.sourceforge.net/DTD/sodipodi-0.dtd"
   xmlns:inkscape="http://www.inkscape.org/namespaces/inkscape"
   width="111"
   height="57"
   id="svg2"
   version="1.1"
   inkscape:version="0.48.3.1 r9886"
   sodipodi:docname="panel_body9.svg"
   inkscape:export-filename="/home/kedzie/Development/git/VirtualBox-Manager/VBoxManager/res/drawable-xhdpi/panel_body_blue.9.png"
   inkscape:export-xdpi="90"
   inkscape:export-ydpi="90">
  <defs
     id="defs4" />
  <sodipodi:namedview
     id="base"
     pagecolor="#ffffff"
     bordercolor="#666666"
     borderopacity="1.0"
     inkscape:pageopacity="0.0"
     inkscape:pageshadow="2"
     inkscape:zoom="8.06"
     inkscape:cx="68.833291"
     inkscape:cy="18.331687"
     inkscape:document-units="px"
     inkscape:current-layer="layer1"
     showgrid="true"
     inkscape:window-width="1280"
     inkscape:window-height="963"
     inkscape:window-x="0"
     inkscape:window-y="27"
     inkscape:window-maximized="1"
     inkscape:snap-nodes="false"
     inkscape:snap-bbox="true">
    <inkscape:grid
       type="xygrid"
       id="grid2985"
       empspacing="4"
       visible="true"
       enabled="true"
       snapvisiblegridlinesonly="true" />
  </sodipodi:namedview>
  <metadata
     id="metadata7">
    <rdf:RDF>
      <cc:Work
         rdf:about="">
        <dc:format>image/svg+xml</dc:format>
        <dc:type
           rdf:resource="http://purl.org/dc/dcmitype/StillImage" />
        <dc:title></dc:title>
      </cc:Work>
    </rdf:RDF>
  </metadata>
  <g
     inkscape:groupmode="layer"
     id="layer4"
     inkscape:label="9-Patch"
     transform="translate(0,-17)"
     style="display:inline">
    <rect
       style="fill:#000000;fill-opacity:1;stroke:none"
       id="rect3757"
       width="19"
       height="1"
       x="53"
       y="17" />
    <rect
       y="24"
       x="110"
       height="38"
       width="1"
       id="rect3759"
       style="fill:#000000;fill-opacity:1;stroke:none" />
    <rect
       y="73"
       x="11"
       height="1"
       width="89"
       id="rect3761"
       style="fill:#000000;fill-opacity:1;stroke:none" />
    <rect
       y="37"
       x="0"
       height="13"
       width="1"
       id="rect3763"
       style="fill:#000000;fill-opacity:1;stroke:none" />
  </g>
  <g
     inkscape:groupmode="layer"
     id="layer2"
     inkscape:label="Gray"
     transform="translate(0,9)"
     style="display:none">
    <path
       inkscape:connector-curvature="0"
       id="path3783"
       d="m 2.5042089,-6.4957903 0,8.6652646 0,10.8315237 0,23.829529 c 0,4.800563 3.939354,8.665263 8.8326331,8.665263 l 88.326323,0 c 4.893295,0 8.832625,-3.8647 8.832625,-8.665263 l 0,-23.829529 0,-10.8315237 0,-8.6652646 -8.832625,0 -88.326323,0 -8.8326331,0 z"
       style="fill:none;stroke:#a6aca9;stroke-width:3.00841951;stroke-miterlimit:4;stroke-opacity:1;stroke-dasharray:none;display:inline" />
  </g>
  <g
     inkscape:groupmode="layer"
     id="layer3"
     inkscape:label="Yellow"
     style="display:none"
     transform="translate(0,-15)">
    <path
       inkscape:connector-curvature="0"
       id="path3766"
       d="m 2.5042089,17.50421 0,8.665264 0,10.831524 0,23.829529 c 0,4.800563 3.939354,8.665263 8.8326331,8.665263 l 88.326323,0 c 4.893295,0 8.832625,-3.8647 8.832625,-8.665263 l 0,-23.829529 0,-10.831524 0,-8.665264 -8.832625,0 -88.326323,0 -8.8326331,0 z"
       style="fill:none;stroke:#fffc8b;stroke-width:3.00841951;stroke-miterlimit:4;stroke-opacity:1;stroke-dasharray:none;display:inline" />
  </g>
  <g
     inkscape:label="Blue"
     inkscape:groupmode="layer"
     id="layer1"
     transform="translate(0,-995.3622)"
     style="display:inline">
    <path
       style="fill:none;stroke:#33b5e5;stroke-width:3.0084188;stroke-miterlimit:4;stroke-opacity:1;stroke-dasharray:none;display:inline"
       d="m 2.5042085,997.86641 0,8.66519 0,10.8316 0,23.8296 c 0,4.8004 3.9393541,8.6652 8.8326335,8.6652 l 88.326325,0 c 4.893293,0 8.832623,-3.8648 8.832623,-8.6652 l 0,-23.8296 0,-10.8316 0,-8.66519 -8.832623,0 -88.326325,0 -8.8326335,0 z"
       id="path3762"
       inkscape:connector-curvature="0" />
  </g>
</svg>
