<?xml version="1.0" encoding="UTF-8" standalone="no"?>
<!-- Created with Inkscape (http://www.inkscape.org/) -->

<svg
   xmlns:dc="http://purl.org/dc/elements/1.1/"
   xmlns:cc="http://creativecommons.org/ns#"
   xmlns:rdf="http://www.w3.org/1999/02/22-rdf-syntax-ns#"
   xmlns:svg="http://www.w3.org/2000/svg"
   xmlns="http://www.w3.org/2000/svg"
   xmlns:sodipodi="http://sodipodi.sourceforge.net/DTD/sodipodi-0.dtd"
   xmlns:inkscape="http://www.inkscape.org/namespaces/inkscape"
   width="74"
   height="38"
   id="svg2"
   version="1.1"
   inkscape:version="0.48.3.1 r9886"
   sodipodi:docname="panel_body9.svg"
   inkscape:export-filename="/home/kedzie/Desktop/hdpi/panel_body.9.png"
   inkscape:export-xdpi="90"
   inkscape:export-ydpi="90">
  <defs
     id="defs4" />
  <sodipodi:namedview
     id="base"
     pagecolor="#ffffff"
     bordercolor="#666666"
     borderopacity="1.0"
     inkscape:pageopacity="0.0"
     inkscape:pageshadow="2"
     inkscape:zoom="13.09"
     inkscape:cx="41.539364"
     inkscape:cy="18.331687"
     inkscape:document-units="px"
     inkscape:current-layer="layer4"
     showgrid="true"
     inkscape:window-width="1920"
     inkscape:window-height="1024"
     inkscape:window-x="0"
     inkscape:window-y="27"
     inkscape:window-maximized="1"
     inkscape:snap-nodes="false"
     inkscape:snap-bbox="true">
    <inkscape:grid
       type="xygrid"
       id="grid2985"
       empspacing="4"
       visible="true"
       enabled="true"
       snapvisiblegridlinesonly="true" />
  </sodipodi:namedview>
  <metadata
     id="metadata7">
    <rdf:RDF>
      <cc:Work
         rdf:about="">
        <dc:format>image/svg+xml</dc:format>
        <dc:type
           rdf:resource="http://purl.org/dc/dcmitype/StillImage" />
        <dc:title></dc:title>
      </cc:Work>
    </rdf:RDF>
  </metadata>
  <g
     inkscape:groupmode="layer"
     id="layer4"
     inkscape:label="9-Patch"
     transform="translate(0,-36)"
     style="display:inline">
    <rect
       style="fill:#000000;fill-opacity:1;stroke:none"
       id="rect3757"
       width="8"
       height="1"
       x="32"
       y="36" />
    <rect
       y="41"
       x="73"
       height="25"
       width="1"
       id="rect3759"
       style="fill:#000000;fill-opacity:1;stroke:none" />
    <rect
       y="73"
       x="8"
       height="1"
       width="58"
       id="rect3761"
       style="fill:#000000;fill-opacity:1;stroke:none" />
    <rect
       y="51"
       x="7.8886091e-31"
       height="5"
       width="1"
       id="rect3763"
       style="fill:#000000;fill-opacity:1;stroke:none" />
  </g>
  <g
     inkscape:groupmode="layer"
     id="layer2"
     inkscape:label="Gray"
     transform="translate(0,-10)"
     style="display:none">
    <path
       inkscape:connector-curvature="0"
       id="path3783"
       d="m 1.9890146,11.989015 0,5.670329 0,7.087874 0,15.593438 c 0,3.141367 2.6024834,5.670328 5.835165,5.670328 l 58.3516454,0 c 3.23269,0 5.83516,-2.528961 5.83516,-5.670328 l 0,-15.593438 0,-7.087874 0,-5.670329 -5.83516,0 -58.3516454,0 -5.835165,0 z"
       style="fill:none;stroke:#a6aca9;stroke-width:1.97803092;stroke-miterlimit:4;stroke-opacity:1;stroke-dasharray:none;display:inline" />
  </g>
  <g
     inkscape:groupmode="layer"
     id="layer3"
     inkscape:label="Yellow"
     style="display:inline"
     transform="translate(0,-34)">
    <path
       inkscape:connector-curvature="0"
       id="path3766"
       d="m 1.9890146,35.989015 0,5.670329 0,7.087874 0,15.593438 c 0,3.141367 2.6024834,5.670328 5.835165,5.670328 l 58.3516454,0 c 3.23269,0 5.83516,-2.528961 5.83516,-5.670328 l 0,-15.593438 0,-7.087874 0,-5.670329 -5.83516,0 -58.3516454,0 -5.835165,0 z"
       style="fill:none;stroke:#fffc8b;stroke-width:1.97803092;stroke-miterlimit:4;stroke-opacity:1;stroke-dasharray:none;display:inline" />
  </g>
  <g
     inkscape:label="Blue"
     inkscape:groupmode="layer"
     id="layer1"
     transform="translate(0,-1014.3622)"
     style="display:none">
    <path
       style="fill:none;stroke:#33b5e5;stroke-width:1.97803104;stroke-miterlimit:4;stroke-opacity:1;stroke-dasharray:none;display:inline"
       d="m 1.9890146,1016.3512 0,5.6703 0,7.0879 0,15.5935 c 0,3.1413 2.6024834,5.6703 5.835165,5.6703 l 58.3516454,0 c 3.23269,0 5.835159,-2.529 5.835159,-5.6703 l 0,-15.5935 0,-7.0879 0,-5.6703 -5.835159,0 -58.3516454,0 -5.835165,0 z"
       id="path3762"
       inkscape:connector-curvature="0" />
  </g>
</svg>
