<?xml version="1.0" encoding="UTF-8" standalone="no"?>
<!-- Created with Inkscape (http://www.inkscape.org/) -->

<svg
   xmlns:dc="http://purl.org/dc/elements/1.1/"
   xmlns:cc="http://creativecommons.org/ns#"
   xmlns:rdf="http://www.w3.org/1999/02/22-rdf-syntax-ns#"
   xmlns:svg="http://www.w3.org/2000/svg"
   xmlns="http://www.w3.org/2000/svg"
   xmlns:xlink="http://www.w3.org/1999/xlink"
   xmlns:sodipodi="http://sodipodi.sourceforge.net/DTD/sodipodi-0.dtd"
   xmlns:inkscape="http://www.inkscape.org/namespaces/inkscape"
   width="24"
   height="24"
   id="svg2"
   version="1.1"
   inkscape:version="0.48.1 r9760"
   sodipodi:docname="pause-l.svg"
   style="enable-background:new"
   inkscape:export-filename="/home/kedzie/workspace/vbox/res/drawable-ldpi/ic_list_pause_small.png"
   inkscape:export-xdpi="45"
   inkscape:export-ydpi="45">
  <defs
     id="defs4">
    <linearGradient
       id="linearGradient3800">
      <stop
         style="stop-color:#f9f9f9;stop-opacity:1;"
         offset="0"
         id="stop3802" />
      <stop
         style="stop-color:#dfdfdf;stop-opacity:1;"
         offset="1"
         id="stop3804" />
    </linearGradient>
    <linearGradient
       inkscape:collect="always"
       xlink:href="#linearGradient3800"
       id="linearGradient3806"
       x1="16"
       y1="1029.3622"
       x2="16"
       y2="1051.3622"
       gradientUnits="userSpaceOnUse"
       gradientTransform="matrix(0.73333333,0,0,0.73333333,0.26666667,-739.99895)" />
    <filter
       inkscape:collect="always"
       id="filter3783"
       color-interpolation-filters="sRGB">
      <feBlend
         inkscape:collect="always"
         mode="lighten"
         in2="BackgroundImage"
         id="feBlend3785" />
    </filter>
  </defs>
  <sodipodi:namedview
     id="base"
     pagecolor="#ffffff"
     bordercolor="#666666"
     borderopacity="1.0"
     inkscape:pageopacity="0.0"
     inkscape:pageshadow="2"
     inkscape:zoom="17.30989"
     inkscape:cx="10.564754"
     inkscape:cy="9.1335285"
     inkscape:document-units="px"
     inkscape:current-layer="layer3"
     showgrid="true"
     inkscape:window-width="1229"
     inkscape:window-height="776"
     inkscape:window-x="306"
     inkscape:window-y="142"
     inkscape:window-maximized="0"
     inkscape:snap-global="true"
     inkscape:snap-bbox="true"
     inkscape:snap-nodes="false">
    <inkscape:grid
       type="xygrid"
       id="grid3752"
       empspacing="5"
       visible="true"
       enabled="true"
       snapvisiblegridlinesonly="true" />
  </sodipodi:namedview>
  <metadata
     id="metadata7">
    <rdf:RDF>
      <cc:Work
         rdf:about="">
        <dc:format>image/svg+xml</dc:format>
        <dc:type
           rdf:resource="http://purl.org/dc/dcmitype/StillImage" />
        <dc:title></dc:title>
      </cc:Work>
    </rdf:RDF>
  </metadata>
  <g
     inkscape:label="Shape"
     inkscape:groupmode="layer"
     id="layer1"
     transform="translate(0,-1028.3622)"
     style="display:inline">
    <path
       inkscape:connector-curvature="0"
       style="fill:#ffcc00;fill-opacity:1;fill-rule:evenodd;stroke:none"
       d="M 2.58125,1029.3622 C 1.7010058,1029.3622 1,1030.0163 1,1030.8289 l 0,19.0666 c 0,0.8126 0.7010058,1.4667 1.58125,1.4667 l 6.3708333,0 c 0.8802442,0 1.5812497,-0.6541 1.5812497,-1.4667 l 0,-19.0666 c 0,-0.8126 -0.7010055,-1.4667 -1.5812497,-1.4667 l -6.3708333,0 z m 13.222917,0 c -0.8864,0 -1.604167,0.6541 -1.604167,1.4667 l 0,19.0666 c 0,0.8126 0.717767,1.4667 1.604167,1.4667 l 5.591666,0 c 0.886402,0 1.604167,-0.6541 1.604167,-1.4667 l 0,-19.0666 c 0,-0.8126 -0.717765,-1.4667 -1.604167,-1.4667 l -5.591666,0 z"
       id="rect2987-1-8" />
  </g>
  <g
     inkscape:groupmode="layer"
     id="layer3"
     inkscape:label="Overlay"
     style="display:inline;filter:url(#filter3783)"
     transform="translate(0,-8)">
    <path
       id="path3780"
       d="M 2.58125,9 C 1.7010058,9 1,9.6541333 1,10.466667 L 1,29.533333 C 1,30.345867 1.7010058,31 2.58125,31 l 6.3708333,0 c 0.8802442,0 1.5812497,-0.654133 1.5812497,-1.466667 l 0,-19.066666 C 10.533333,9.6541333 9.8323275,9 8.9520833,9 L 2.58125,9 z M 15.804167,9 C 14.917767,9 14.2,9.6541333 14.2,10.466667 l 0,19.066666 C 14.2,30.345867 14.917767,31 15.804167,31 l 5.591666,0 C 22.282235,31 23,30.345867 23,29.533333 L 23,10.466667 C 23,9.6541333 22.282235,9 21.395833,9 l -5.591666,0 z"
       style="fill:url(#linearGradient3806);fill-opacity:1;fill-rule:evenodd;stroke:none"
       inkscape:connector-curvature="0" />
  </g>
  <g
     inkscape:groupmode="layer"
     id="layer2"
     inkscape:label="Shadow"
     style="opacity:0.56999966;display:inline"
     transform="translate(0,-8)">
    <path
       style="fill:#000000;fill-opacity:1;fill-rule:evenodd;stroke:none"
       d="M 2.58125,9 C 1.7010058,9 1,9.6541333 1,10.466667 L 1,29.533333 C 1,29.885665 1.1455917,30.197654 1.3666667,30.45 1.2927591,30.279734 1.2520833,30.095515 1.2520833,29.9 l 0,-19.066667 c 0,-0.812533 0.7010055,-1.4666663 1.58125,-1.4666663 l 6.3708334,0 c 0.4917227,0 0.9256813,0.2052464 1.2145833,0.5270833 C 10.180331,9.3669875 9.6122667,9 8.9520833,9 L 2.58125,9 z M 15.804167,9 C 14.917767,9 14.2,9.6541333 14.2,10.466667 l 0,19.066666 c 0,0.36424 0.150578,0.683662 0.389583,0.939584 -0.08114,-0.175587 -0.1375,-0.369784 -0.1375,-0.572917 l 0,-19.066667 c 0,-0.812533 0.717767,-1.4666663 1.604167,-1.4666663 l 5.591667,0 c 0.495161,0 0.943311,0.2052464 1.2375,0.5270833 C 22.641995,9.3669875 22.060634,9 21.395833,9 l -5.591666,0 z"
       id="rect2987-1"
       inkscape:connector-curvature="0" />
  </g>
</svg>
