<?xml version="1.0" encoding="UTF-8" standalone="no"?>
<!-- Created with Inkscape (http://www.inkscape.org/) -->

<svg
   xmlns:dc="http://purl.org/dc/elements/1.1/"
   xmlns:cc="http://creativecommons.org/ns#"
   xmlns:rdf="http://www.w3.org/1999/02/22-rdf-syntax-ns#"
   xmlns:svg="http://www.w3.org/2000/svg"
   xmlns="http://www.w3.org/2000/svg"
   xmlns:xlink="http://www.w3.org/1999/xlink"
   xmlns:sodipodi="http://sodipodi.sourceforge.net/DTD/sodipodi-0.dtd"
   xmlns:inkscape="http://www.inkscape.org/namespaces/inkscape"
   width="24"
   height="24"
   id="svg2"
   version="1.1"
   inkscape:version="0.48.1 r9760"
   sodipodi:docname="stuck-l.svg"
   inkscape:export-filename="/home/kedzie/workspace/vbox/res/drawable-hdpi/ic_list_state_aborted.png"
   inkscape:export-xdpi="67.5"
   inkscape:export-ydpi="67.5"
   style="enable-background:new">
  <defs
     id="defs4">
    <linearGradient
       id="linearGradient3800">
      <stop
         style="stop-color:#f9f9f9;stop-opacity:1;"
         offset="0"
         id="stop3802" />
      <stop
         style="stop-color:#dfdfdf;stop-opacity:1;"
         offset="1"
         id="stop3804" />
    </linearGradient>
    <linearGradient
       inkscape:collect="always"
       xlink:href="#linearGradient3800"
       id="linearGradient3891"
       x1="48"
       y1="1058.3622"
       x2="48"
       y2="1082.3622"
       gradientUnits="userSpaceOnUse"
       gradientTransform="translate(-9,0)" />
    <linearGradient
       inkscape:collect="always"
       xlink:href="#linearGradient3800-1"
       id="linearGradient4775-4"
       x1="-8"
       y1="1055.3622"
       x2="-8"
       y2="1080.3622"
       gradientUnits="userSpaceOnUse"
       gradientTransform="translate(-8.5,-30.5)" />
    <linearGradient
       id="linearGradient3800-1">
      <stop
         style="stop-color:#f9f9f9;stop-opacity:1;"
         offset="0"
         id="stop3802-8" />
      <stop
         style="stop-color:#dfdfdf;stop-opacity:1;"
         offset="1"
         id="stop3804-7" />
    </linearGradient>
    <linearGradient
       inkscape:collect="always"
       xlink:href="#linearGradient3800-1-4"
       id="linearGradient4890-7"
       x1="16"
       y1="1026.3622"
       x2="16"
       y2="1051.3622"
       gradientUnits="userSpaceOnUse" />
    <linearGradient
       id="linearGradient3800-1-4">
      <stop
         style="stop-color:#f9f9f9;stop-opacity:1;"
         offset="0"
         id="stop3802-8-5" />
      <stop
         style="stop-color:#dfdfdf;stop-opacity:1;"
         offset="1"
         id="stop3804-7-8" />
    </linearGradient>
    <linearGradient
       inkscape:collect="always"
       xlink:href="#linearGradient3800-1"
       id="linearGradient5508"
       gradientUnits="userSpaceOnUse"
       x1="16"
       y1="1026.3622"
       x2="16"
       y2="1051.3622"
       gradientTransform="matrix(0.73333333,0,0,0.73333333,0.26666667,-739.99895)" />
    <linearGradient
       y2="1080.3622"
       x2="-8"
       y1="1055.3622"
       x1="-8"
       gradientTransform="translate(-8.5,-30.5)"
       gradientUnits="userSpaceOnUse"
       id="linearGradient4855-5"
       xlink:href="#linearGradient3800-1-6"
       inkscape:collect="always" />
    <linearGradient
       id="linearGradient3800-1-6">
      <stop
         style="stop-color:#f9f9f9;stop-opacity:1;"
         offset="0"
         id="stop3802-8-6" />
      <stop
         style="stop-color:#dfdfdf;stop-opacity:1;"
         offset="1"
         id="stop3804-7-87" />
    </linearGradient>
  </defs>
  <sodipodi:namedview
     id="base"
     pagecolor="#ffffff"
     bordercolor="#666666"
     borderopacity="1.0"
     inkscape:pageopacity="0.0"
     inkscape:pageshadow="2"
     inkscape:zoom="12.239653"
     inkscape:cx="8.3203169"
     inkscape:cy="16.385921"
     inkscape:document-units="px"
     inkscape:current-layer="layer2"
     showgrid="true"
     inkscape:window-width="1296"
     inkscape:window-height="771"
     inkscape:window-x="113"
     inkscape:window-y="130"
     inkscape:window-maximized="0"
     inkscape:snap-global="true"
     inkscape:snap-bbox="true"
     inkscape:bbox-nodes="false"
     inkscape:snap-nodes="false">
    <inkscape:grid
       type="xygrid"
       id="grid3752"
       empspacing="5"
       visible="true"
       enabled="true"
       snapvisiblegridlinesonly="true" />
  </sodipodi:namedview>
  <metadata
     id="metadata7">
    <rdf:RDF>
      <cc:Work
         rdf:about="">
        <dc:format>image/svg+xml</dc:format>
        <dc:type
           rdf:resource="http://purl.org/dc/dcmitype/StillImage" />
        <dc:title />
      </cc:Work>
    </rdf:RDF>
  </metadata>
  <g
     inkscape:label="Shape"
     inkscape:groupmode="layer"
     id="layer1"
     transform="translate(0,-1028.3622)"
     style="display:inline">
    <path
       inkscape:connector-curvature="0"
       style="fill:#cc0000;fill-opacity:1;stroke:none;display:inline"
       d="m 6.5,1029.3622 -5.5,11 5.5,11 11,0 5.5,-11 -5.5,-11 -11,0 z m -0.5958333,7.3333 12.1916663,0 c 0.511152,0 0.973706,0.076 1.329167,0.2292 0.17773,0.076 0.317659,0.1777 0.435417,0.298 0.117758,0.1201 0.20625,0.2821 0.20625,0.4583 l 0,5.3625 c 0,0.1762 -0.08849,0.3381 -0.20625,0.4583 -0.117758,0.1203 -0.257687,0.1985 -0.435417,0.275 -0.355461,0.1531 -0.818015,0.2521 -1.329167,0.2521 l -12.1916663,0 c -0.5111517,0 -0.9737061,-0.099 -1.3291667,-0.2521 -0.1777299,-0.077 -0.3176587,-0.1547 -0.4354167,-0.275 -0.1177579,-0.1202 -0.20625,-0.2821 -0.20625,-0.4583 l 0,-5.3625 c 0,-0.1762 0.088492,-0.3382 0.20625,-0.4583 0.117758,-0.1203 0.2576868,-0.2215 0.4354167,-0.298 0.3554606,-0.153 0.818015,-0.2292 1.3291667,-0.2292 z m 0,0.4584 c -0.457853,0 -0.868992,0.087 -1.1458334,0.2063 -0.1384203,0.059 -0.2391246,0.1232 -0.2979166,0.1833 -0.058791,0.06 -0.06875,0.1052 -0.06875,0.1375 l 0,5.3625 c 0,0.032 0.00996,0.054 0.06875,0.1145 0.058791,0.06 0.1594963,0.1469 0.2979166,0.2063 0.2768414,0.1188 0.6879804,0.1834 1.1458334,0.1834 l 12.1916663,0 c 0.457853,0 0.868992,-0.064 1.145834,-0.1834 0.13842,-0.059 0.239125,-0.1461 0.297916,-0.2063 0.05879,-0.06 0.06875,-0.082 0.06875,-0.1145 l 0,-5.3625 c 0,-0.032 -0.01,-0.077 -0.06875,-0.1375 -0.05879,-0.06 -0.159496,-0.1239 -0.297916,-0.1833 -0.276842,-0.1192 -0.687981,-0.2063 -1.145834,-0.2063 l -12.1916663,0 z m 1.03125,1.0083 10.1291663,0 c 1.258877,0 2.26875,0.732 2.26875,1.65 l 0,1.1 c 0,0.918 -1.009873,1.65 -2.26875,1.65 l -10.1291663,0 c -1.2588767,0 -2.26875,-0.732 -2.26875,-1.65 l 0,-1.1 c 0,-0.918 1.0098733,-1.65 2.26875,-1.65 z"
       id="path4670-4-7-6" />
  </g>
  <g
     inkscape:groupmode="layer"
     id="layer4"
     inkscape:label="Overlay"
     style="display:inline;"
     transform="translate(0,-8)">
    <path
       inkscape:connector-curvature="0"
       style="fill:url(#linearGradient5508);fill-opacity:1;stroke:none"
       d="M 6.5,9 1,20 6.5,31 17.5,31 23,20 17.5,9 6.5,9 z m -0.5958333,7.333333 12.1916663,0 c 0.511152,0 0.973706,0.07612 1.329167,0.229167 0.17773,0.07649 0.317659,0.177687 0.435417,0.297953 0.117758,0.120194 0.20625,0.282114 0.20625,0.458334 l 0,5.3625 c 0,0.17622 -0.08849,0.33814 -0.20625,0.458333 -0.117758,0.120267 -0.257687,0.198513 -0.435417,0.275 -0.355461,0.153047 -0.818015,0.252047 -1.329167,0.252047 l -12.1916663,0 c -0.5111517,0 -0.9737061,-0.099 -1.3291667,-0.252047 -0.1777299,-0.07649 -0.3176587,-0.154733 -0.4354167,-0.275 -0.1177579,-0.120193 -0.20625,-0.282113 -0.20625,-0.458333 l 0,-5.3625 c 0,-0.17622 0.088492,-0.33814 0.20625,-0.458334 C 4.2573413,16.740187 4.3972701,16.638987 4.575,16.5625 4.9304606,16.409453 5.393015,16.333333 5.9041667,16.333333 z m 0,0.458334 c -0.457853,0 -0.868992,0.08712 -1.1458334,0.206286 -0.1384203,0.0594 -0.2391246,0.1232 -0.2979166,0.183334 -0.058791,0.06013 -0.06875,0.105233 -0.06875,0.1375 l 0,5.3625 c 0,0.03227 0.00996,0.05427 0.06875,0.114546 0.058791,0.06013 0.1594963,0.146887 0.2979166,0.206287 0.2768414,0.1188 0.6879804,0.183333 1.1458334,0.183333 l 12.1916663,0 c 0.457853,0 0.868992,-0.0638 1.145834,-0.183333 0.13842,-0.0594 0.239125,-0.146153 0.297916,-0.206287 0.05879,-0.06013 0.06875,-0.08228 0.06875,-0.114546 l 0,-5.3625 c 0,-0.03227 -0.01,-0.07737 -0.06875,-0.1375 -0.05879,-0.06013 -0.159496,-0.123934 -0.297916,-0.183334 -0.276842,-0.119166 -0.687981,-0.206286 -1.145834,-0.206286 l -12.1916663,0 z m 1.03125,1.008333 10.1291663,0 c 1.258877,0 2.26875,0.732013 2.26875,1.65 l 0,1.1 c 0,0.917987 -1.009873,1.65 -2.26875,1.65 l -10.1291663,0 c -1.2588767,0 -2.26875,-0.732013 -2.26875,-1.65 l 0,-1.1 c 0,-0.917987 1.0098733,-1.65 2.26875,-1.65 z"
       id="path4670-4-7" />
  </g>
  <g
     inkscape:groupmode="layer"
     id="layer2"
     inkscape:label="Shadow"
     style="opacity:0.56999966;display:inline"
     transform="translate(0,-8)">
    <path
       style="fill:#000000;fill-opacity:1;stroke:none;display:inline"
       d="M 6.5,9 1,20 6.5,31 6.6604167,31 1.3208333,20.320833 l 5.5,-10.9999997 10.8395837,0 L 17.5,9 6.5,9 z m -0.5958333,7.791667 c -0.457853,0 -0.868992,0.08708 -1.1458334,0.20625 -0.1384203,0.0594 -0.2391246,0.1232 -0.2979166,0.183333 -0.029396,0.03007 -0.035995,0.04593 -0.045833,0.06875 -0.00984,0.02282 -0.022917,0.05262 -0.022917,0.06875 l 0,5.3625 c 0,0.03227 0.00996,0.0543 0.06875,0.114583 0.051443,0.05262 0.1392732,0.126113 0.2520833,0.183334 l 0,-2.085417 C 4.6824275,20.78588 4.6666667,20.664748 4.6666667,20.55 l 0,-1.1 c 0,-0.114748 0.015761,-0.23588 0.045833,-0.34375 l 0,-1.466667 c 0,-0.03227 0.00996,-0.07744 0.06875,-0.1375 C 4.8400421,17.44195 4.940746,17.37837 5.0791667,17.31875 5.356008,17.199583 5.7671471,17.1125 6.225,17.1125 l 12.191667,0 c 0.457853,0 0.868992,0.08708 1.145833,0.20625 0.0202,0.0087 0.02725,0.01408 0.04583,0.02292 l 0,-0.02292 c 0,-0.03227 -0.01,-0.07737 -0.06875,-0.1375 -0.05879,-0.06013 -0.159496,-0.123933 -0.297916,-0.183333 -0.276842,-0.119167 -0.687981,-0.20625 -1.145834,-0.20625 l -12.1916663,0 z M 19.929167,16.975 c 0.0714,0.1028 0.1375,0.214974 0.1375,0.34375 l 0,5.3625 c 0,0.169443 -0.09527,0.316799 -0.20625,0.435417 -0.0045,0.0048 0.0045,0.0183 0,0.02292 -0.02989,0.03053 -0.08158,0.04298 -0.114584,0.06875 -0.09702,0.07576 -0.188219,0.149179 -0.320833,0.20625 -0.355461,0.153047 -0.818015,0.252084 -1.329167,0.252084 l -12.1916663,0 C 5.393015,23.666667 4.9304606,23.56763 4.575,23.414583 4.486135,23.37634 4.4177515,23.344156 4.3458333,23.3 c 0.032898,0.05569 0.070198,0.115113 0.1145834,0.160417 0.1177582,0.120266 0.2576864,0.198513 0.4354166,0.275 C 5.2512938,23.888463 5.7138483,23.9875 6.225,23.9875 l 12.191667,0 c 0.511151,0 0.973706,-0.09904 1.329166,-0.252083 0.17773,-0.07649 0.317659,-0.154734 0.435417,-0.275 0.117758,-0.120194 0.20625,-0.282114 0.20625,-0.458334 l 0,-5.3625 c 0,-0.17622 -0.08849,-0.33814 -0.20625,-0.458333 -0.07066,-0.07216 -0.162089,-0.149038 -0.252083,-0.20625 z m -0.916667,1.65 c 0.196236,0.244444 0.320833,0.519004 0.320833,0.825 l 0,1.1 c 0,0.917987 -1.009873,1.65 -2.26875,1.65 l -10.1291663,0 c -0.6294384,0 -1.1943388,-0.183498 -1.6041667,-0.48125 0.3975793,0.473067 1.1020868,0.802083 1.925,0.802083 l 10.129167,0 c 1.101517,0 2.012409,-0.574075 2.222916,-1.329166 l 0,-1.764584 C 19.520828,19.113199 19.305437,18.84534 19.0125,18.625 z"
       id="path4670-4"
       inkscape:connector-curvature="0" />
  </g>
</svg>
