<?xml version="1.0" encoding="UTF-8" standalone="no"?>
<!-- Created with Inkscape (http://www.inkscape.org/) -->

<svg
   xmlns:dc="http://purl.org/dc/elements/1.1/"
   xmlns:cc="http://creativecommons.org/ns#"
   xmlns:rdf="http://www.w3.org/1999/02/22-rdf-syntax-ns#"
   xmlns:svg="http://www.w3.org/2000/svg"
   xmlns="http://www.w3.org/2000/svg"
   xmlns:xlink="http://www.w3.org/1999/xlink"
   xmlns:sodipodi="http://sodipodi.sourceforge.net/DTD/sodipodi-0.dtd"
   xmlns:inkscape="http://www.inkscape.org/namespaces/inkscape"
   width="48"
   height="48"
   id="svg2"
   version="1.1"
   inkscape:version="0.48.3.1 r9886"
   sodipodi:docname="abort.svg"
   enable-background="new"
   inkscape:export-filename="/home/kedzie/Development/git/VirtualBox-Manager/VBoxManager/res/drawable-xhdpi/ic_list_abort_c.png"
   inkscape:export-xdpi="135"
   inkscape:export-ydpi="135">
  <defs
     id="defs4">
    <linearGradient
       id="linearGradient3800">
      <stop
         style="stop-color:#f9f9f9;stop-opacity:1;"
         offset="0"
         id="stop3802" />
      <stop
         style="stop-color:#dfdfdf;stop-opacity:1;"
         offset="1"
         id="stop3804" />
    </linearGradient>
    <linearGradient
       inkscape:collect="always"
       xlink:href="#linearGradient3800"
       id="linearGradient3891"
       x1="48"
       y1="1058.3622"
       x2="48"
       y2="1082.3622"
       gradientUnits="userSpaceOnUse"
       gradientTransform="translate(-9,0)" />
    <linearGradient
       inkscape:collect="always"
       xlink:href="#linearGradient3800-1"
       id="linearGradient4775-4"
       x1="-8"
       y1="1055.3622"
       x2="-8"
       y2="1080.3622"
       gradientUnits="userSpaceOnUse"
       gradientTransform="translate(-8.5,-30.5)" />
    <linearGradient
       id="linearGradient3800-1">
      <stop
         style="stop-color:#f9f9f9;stop-opacity:1;"
         offset="0"
         id="stop3802-8" />
      <stop
         style="stop-color:#dfdfdf;stop-opacity:1;"
         offset="1"
         id="stop3804-7" />
    </linearGradient>
    <linearGradient
       y2="1080.3622"
       x2="-8"
       y1="1055.3622"
       x1="-8"
       gradientTransform="translate(-8.5,-30.5)"
       gradientUnits="userSpaceOnUse"
       id="linearGradient4855"
       xlink:href="#linearGradient3800-1"
       inkscape:collect="always" />
    <linearGradient
       inkscape:collect="always"
       xlink:href="#linearGradient3800-1"
       id="linearGradient4890"
       x1="16"
       y1="1026.3622"
       x2="16"
       y2="1051.3622"
       gradientUnits="userSpaceOnUse"
       gradientTransform="matrix(1.5333333,0,0,1.5333333,-0.53333333,-560.72651)" />
    <linearGradient
       inkscape:collect="always"
       xlink:href="#linearGradient3800-1"
       id="linearGradient3892"
       gradientUnits="userSpaceOnUse"
       gradientTransform="matrix(1.5333333,0,0,1.5333333,-0.53333333,-560.72651)"
       x1="16"
       y1="1021.3622"
       x2="16"
       y2="1051.3622" />
  </defs>
  <sodipodi:namedview
     id="base"
     pagecolor="#ffffff"
     bordercolor="#666666"
     borderopacity="1.0"
     inkscape:pageopacity="0.0"
     inkscape:pageshadow="2"
     inkscape:zoom="12.239653"
     inkscape:cx="10.625976"
     inkscape:cy="26.035456"
     inkscape:document-units="px"
     inkscape:current-layer="layer3"
     showgrid="true"
     inkscape:window-width="1920"
     inkscape:window-height="1019"
     inkscape:window-x="0"
     inkscape:window-y="27"
     inkscape:window-maximized="1"
     inkscape:snap-global="true"
     inkscape:snap-bbox="true"
     inkscape:bbox-nodes="false"
     inkscape:snap-nodes="false">
    <inkscape:grid
       type="xygrid"
       id="grid3752"
       empspacing="5"
       visible="true"
       enabled="true"
       snapvisiblegridlinesonly="true" />
  </sodipodi:namedview>
  <metadata
     id="metadata7">
    <rdf:RDF>
      <cc:Work
         rdf:about="">
        <dc:format>image/svg+xml</dc:format>
        <dc:type
           rdf:resource="http://purl.org/dc/dcmitype/StillImage" />
        <dc:title></dc:title>
      </cc:Work>
    </rdf:RDF>
  </metadata>
  <g
     inkscape:label="Holo-Light"
     inkscape:groupmode="layer"
     id="layer1"
     transform="translate(0,-1004.3622)"
     style="display:none">
    <path
       inkscape:connector-curvature="0"
       style="fill:#333333;fill-opacity:0.6;stroke:none"
       d="m 15,1010.3622 -9,18 9,18 18,0 9,-18 -9,-18 -18,0 z m -0.974999,11.9999 19.949998,0 c 0.836431,0 1.593338,0.1246 2.175001,0.3751 0.290831,0.1252 0.519806,0.2908 0.712501,0.4875 0.192694,0.1967 0.3375,0.4617 0.3375,0.7501 l 0,8.7749 c 0,0.2885 -0.144806,0.5534 -0.3375,0.7501 -0.192695,0.1967 -0.42167,0.3247 -0.712501,0.45 -0.581663,0.2505 -1.33857,0.4125 -2.175001,0.4125 l -19.949998,0 c -0.836431,0 -1.593338,-0.162 -2.175001,-0.4125 -0.290831,-0.1253 -0.519805,-0.2533 -0.7125,-0.45 -0.192695,-0.1967 -0.3375,-0.4616 -0.3375,-0.7501 l 0,-8.7749 c 0,-0.2884 0.144805,-0.5534 0.3375,-0.7501 0.192695,-0.1967 0.421669,-0.3623 0.7125,-0.4875 0.581663,-0.2505 1.33857,-0.3751 2.175001,-0.3751 z m 0,0.7502 c -0.749215,0 -1.421988,0.1425 -1.875001,0.3375 -0.226506,0.097 -0.391295,0.2016 -0.4875,0.2999 -0.0962,0.099 -0.1125,0.1723 -0.1125,0.2251 l 0,8.7749 c 0,0.054 0.0163,0.089 0.1125,0.1875 0.0962,0.098 0.260994,0.2404 0.4875,0.3376 0.453013,0.1944 1.125786,0.2999 1.875001,0.2999 l 19.949998,0 c 0.749215,0 1.421987,-0.1044 1.875002,-0.2999 0.226505,-0.097 0.391295,-0.2392 0.487498,-0.3376 0.09621,-0.098 0.1125,-0.1346 0.1125,-0.1875 l 0,-8.7749 c 0,-0.053 -0.0163,-0.1266 -0.1125,-0.2251 -0.0962,-0.098 -0.260993,-0.2027 -0.487498,-0.2999 -0.453015,-0.195 -1.125787,-0.3375 -1.875002,-0.3375 l -19.949998,0 z m 1.6875,1.6499 16.574998,0 c 2.059981,0 3.7125,1.1978 3.7125,2.7 l 0,1.8 c 0,1.5022 -1.652519,2.7 -3.7125,2.7 l -16.574998,0 c -2.059981,0 -3.712501,-1.1978 -3.712501,-2.7 l 0,-1.8 c 0,-1.5022 1.65252,-2.7 3.712501,-2.7 z"
       id="path4670-4-7" />
  </g>
  <g
     inkscape:groupmode="layer"
     id="layer2"
     inkscape:label="Holo-Dark"
     style="display:none">
    <path
       transform="translate(0,-1004.3622)"
       id="path3772"
       d="m 15,1010.3622 -9,18 9,18 18,0 9,-18 -9,-18 -18,0 z m -0.974999,11.9999 19.949998,0 c 0.836431,0 1.593338,0.1246 2.175001,0.3751 0.290831,0.1252 0.519806,0.2908 0.712501,0.4875 0.192694,0.1967 0.3375,0.4617 0.3375,0.7501 l 0,8.7749 c 0,0.2885 -0.144806,0.5534 -0.3375,0.7501 -0.192695,0.1967 -0.42167,0.3247 -0.712501,0.45 -0.581663,0.2505 -1.33857,0.4125 -2.175001,0.4125 l -19.949998,0 c -0.836431,0 -1.593338,-0.162 -2.175001,-0.4125 -0.290831,-0.1253 -0.519805,-0.2533 -0.7125,-0.45 -0.192695,-0.1967 -0.3375,-0.4616 -0.3375,-0.7501 l 0,-8.7749 c 0,-0.2884 0.144805,-0.5534 0.3375,-0.7501 0.192695,-0.1967 0.421669,-0.3623 0.7125,-0.4875 0.581663,-0.2505 1.33857,-0.3751 2.175001,-0.3751 z m 0,0.7502 c -0.749215,0 -1.421988,0.1425 -1.875001,0.3375 -0.226506,0.097 -0.391295,0.2016 -0.4875,0.2999 -0.0962,0.099 -0.1125,0.1723 -0.1125,0.2251 l 0,8.7749 c 0,0.054 0.0163,0.089 0.1125,0.1875 0.0962,0.098 0.260994,0.2404 0.4875,0.3376 0.453013,0.1944 1.125786,0.2999 1.875001,0.2999 l 19.949998,0 c 0.749215,0 1.421987,-0.1044 1.875002,-0.2999 0.226505,-0.097 0.391295,-0.2392 0.487498,-0.3376 0.09621,-0.098 0.1125,-0.1346 0.1125,-0.1875 l 0,-8.7749 c 0,-0.053 -0.0163,-0.1266 -0.1125,-0.2251 -0.0962,-0.098 -0.260993,-0.2027 -0.487498,-0.2999 -0.453015,-0.195 -1.125787,-0.3375 -1.875002,-0.3375 l -19.949998,0 z m 1.6875,1.6499 16.574998,0 c 2.059981,0 3.7125,1.1978 3.7125,2.7 l 0,1.8 c 0,1.5022 -1.652519,2.7 -3.7125,2.7 l -16.574998,0 c -2.059981,0 -3.712501,-1.1978 -3.712501,-2.7 l 0,-1.8 c 0,-1.5022 1.65252,-2.7 3.712501,-2.7 z"
       style="fill:#ffffff;fill-opacity:0.8;stroke:none;display:inline"
       inkscape:connector-curvature="0"
       inkscape:export-filename="/home/kedzie/git/VirtualBox-Manager/VBoxManager/res/drawable-hdpi/working/Holo-Dark/ic_list_abort.png"
       inkscape:export-xdpi="90"
       inkscape:export-ydpi="90" />
  </g>
  <g
     inkscape:groupmode="layer"
     id="layer3"
     inkscape:label="Color"
     style="display:inline">
    <path
       transform="translate(0,-1004.3622)"
       id="path3766"
       d="m 15,1010.3622 -9,18 9,18 18,0 9,-18 -9,-18 -18,0 z m -0.974999,11.9999 19.949998,0 c 0.836431,0 1.593338,0.1246 2.175001,0.3751 0.290831,0.1252 0.519806,0.2908 0.712501,0.4875 0.192694,0.1967 0.3375,0.4617 0.3375,0.7501 l 0,8.7749 c 0,0.2885 -0.144806,0.5534 -0.3375,0.7501 -0.192695,0.1967 -0.42167,0.3247 -0.712501,0.45 -0.581663,0.2505 -1.33857,0.4125 -2.175001,0.4125 l -19.949998,0 c -0.836431,0 -1.593338,-0.162 -2.175001,-0.4125 -0.290831,-0.1253 -0.519805,-0.2533 -0.7125,-0.45 -0.192695,-0.1967 -0.3375,-0.4616 -0.3375,-0.7501 l 0,-8.7749 c 0,-0.2884 0.144805,-0.5534 0.3375,-0.7501 0.192695,-0.1967 0.421669,-0.3623 0.7125,-0.4875 0.581663,-0.2505 1.33857,-0.3751 2.175001,-0.3751 z m 0,0.7502 c -0.749215,0 -1.421988,0.1425 -1.875001,0.3375 -0.226506,0.097 -0.391295,0.2016 -0.4875,0.2999 -0.0962,0.099 -0.1125,0.1723 -0.1125,0.2251 l 0,8.7749 c 0,0.054 0.0163,0.089 0.1125,0.1875 0.0962,0.098 0.260994,0.2404 0.4875,0.3376 0.453013,0.1944 1.125786,0.2999 1.875001,0.2999 l 19.949998,0 c 0.749215,0 1.421987,-0.1044 1.875002,-0.2999 0.226505,-0.097 0.391295,-0.2392 0.487498,-0.3376 0.09621,-0.098 0.1125,-0.1346 0.1125,-0.1875 l 0,-8.7749 c 0,-0.053 -0.0163,-0.1266 -0.1125,-0.2251 -0.0962,-0.098 -0.260993,-0.2027 -0.487498,-0.2999 -0.453015,-0.195 -1.125787,-0.3375 -1.875002,-0.3375 l -19.949998,0 z m 1.6875,1.6499 16.574998,0 c 2.059981,0 3.7125,1.1978 3.7125,2.7 l 0,1.8 c 0,1.5022 -1.652519,2.7 -3.7125,2.7 l -16.574998,0 c -2.059981,0 -3.712501,-1.1978 -3.712501,-2.7 l 0,-1.8 c 0,-1.5022 1.65252,-2.7 3.712501,-2.7 z"
       style="fill:#eb1313;fill-opacity:1;stroke:none;display:inline"
       inkscape:connector-curvature="0" />
  </g>
</svg>
