<?xml version="1.0" encoding="UTF-8" standalone="no"?>
<!-- Created with Inkscape (http://www.inkscape.org/) -->

<svg
   xmlns:dc="http://purl.org/dc/elements/1.1/"
   xmlns:cc="http://creativecommons.org/ns#"
   xmlns:rdf="http://www.w3.org/1999/02/22-rdf-syntax-ns#"
   xmlns:svg="http://www.w3.org/2000/svg"
   xmlns="http://www.w3.org/2000/svg"
   xmlns:xlink="http://www.w3.org/1999/xlink"
   xmlns:sodipodi="http://sodipodi.sourceforge.net/DTD/sodipodi-0.dtd"
   xmlns:inkscape="http://www.inkscape.org/namespaces/inkscape"
   version="1.0"
   width="48"
   height="48"
   id="svg3215"
   inkscape:version="0.48.2 r9819"
   sodipodi:docname="ic_list_vbox.svg"
   style="display:inline"
   inkscape:export-filename="/home/kedzie/workspace/vbox-android/res/drawable-hdpi/ic_list_vbox.png"
   inkscape:export-xdpi="90"
   inkscape:export-ydpi="90">
  <metadata
     id="metadata12">
    <rdf:RDF>
      <cc:Work
         rdf:about="">
        <dc:format>image/svg+xml</dc:format>
        <dc:type
           rdf:resource="http://purl.org/dc/dcmitype/StillImage" />
        <dc:title />
      </cc:Work>
    </rdf:RDF>
  </metadata>
  <sodipodi:namedview
     pagecolor="#ffffff"
     bordercolor="#666666"
     borderopacity="1"
     objecttolerance="10"
     gridtolerance="10"
     guidetolerance="10"
     inkscape:pageopacity="0"
     inkscape:pageshadow="2"
     inkscape:window-width="1479"
     inkscape:window-height="914"
     id="namedview10"
     showgrid="true"
     showguides="true"
     inkscape:guide-bbox="true"
     inkscape:zoom="15"
     inkscape:cx="14.429269"
     inkscape:cy="23.835897"
     inkscape:window-x="145"
     inkscape:window-y="40"
     inkscape:window-maximized="0"
     inkscape:current-layer="layer1"
     inkscape:snap-to-guides="true"
     inkscape:object-paths="true"
     inkscape:snap-bbox="false"
     inkscape:snap-grids="true"
     inkscape:snap-global="true">
    <sodipodi:guide
       orientation="1,0"
       position="3,25"
       id="guide3058" />
    <sodipodi:guide
       orientation="1,0"
       position="19,30.945173"
       id="guide3060" />
    <sodipodi:guide
       orientation="0,1"
       position="10.204143,19"
       id="guide3062" />
    <sodipodi:guide
       orientation="0,1"
       position="-3.0501514,3"
       id="guide3064" />
    <sodipodi:guide
       orientation="0,1"
       position="5.5248129,12.559443"
       id="guide4049" />
    <sodipodi:guide
       orientation="0,1"
       position="4.5406357,11.564082"
       id="guide4051" />
    <sodipodi:guide
       orientation="0,1"
       position="18.811205,9.6180953"
       id="guide4053" />
    <sodipodi:guide
       orientation="0,1"
       position="18.553977,8.6227343"
       id="guide4055" />
    <sodipodi:guide
       orientation="1,0"
       position="4,11.564082"
       id="guide4133" />
    <sodipodi:guide
       orientation="1,0"
       position="18,14.826565"
       id="guide4135" />
    <inkscape:grid
       type="xygrid"
       id="grid4416"
       empspacing="5"
       visible="true"
       enabled="true"
       snapvisiblegridlinesonly="true" />
  </sodipodi:namedview>
  <defs
     id="defs3217">
    <linearGradient
       id="linearGradient3764">
      <stop
         style="stop-color:#dfdfdf;stop-opacity:1;"
         offset="0"
         id="stop3766" />
      <stop
         style="stop-color:#f9f9f9;stop-opacity:1;"
         offset="1"
         id="stop3768" />
    </linearGradient>
    <linearGradient
       inkscape:collect="always"
       xlink:href="#linearGradient3764"
       id="linearGradient4445"
       x1="15"
       y1="-4"
       x2="15"
       y2="16"
       gradientUnits="userSpaceOnUse" />
    <linearGradient
       inkscape:collect="always"
       xlink:href="#linearGradient3764"
       id="linearGradient4456"
       x1="16"
       y1="-2"
       x2="16"
       y2="12"
       gradientUnits="userSpaceOnUse" />
    <linearGradient
       inkscape:collect="always"
       xlink:href="#linearGradient3764"
       id="linearGradient3779"
       x1="17"
       y1="27"
       x2="17"
       y2="7"
       gradientUnits="userSpaceOnUse"
       gradientTransform="matrix(1.5714286,0,0,1.5714286,-1.1428571,-27.142857)" />
    <linearGradient
       inkscape:collect="always"
       xlink:href="#linearGradient3764"
       id="linearGradient3789"
       x1="15"
       y1="33"
       x2="15"
       y2="0"
       gradientUnits="userSpaceOnUse"
       gradientTransform="matrix(1.4666667,0,0,1.4666667,0.5333333,-25.466667)" />
    <linearGradient
       inkscape:collect="always"
       xlink:href="#linearGradient3764"
       id="linearGradient3780"
       x1="24.95652"
       y1="19.999998"
       x2="24.95652"
       y2="-24"
       gradientUnits="userSpaceOnUse"
       gradientTransform="matrix(1.0454546,0,0,1.0454546,-1.0909091,26.09091)" />
    <linearGradient
       inkscape:collect="always"
       xlink:href="#linearGradient3764"
       id="linearGradient3790"
       gradientUnits="userSpaceOnUse"
       gradientTransform="matrix(1.5714286,0,0,1.5714286,-1.1428571,-1.142857)"
       x1="17"
       y1="27"
       x2="17"
       y2="7" />
    <linearGradient
       inkscape:collect="always"
       xlink:href="#linearGradient3764"
       id="linearGradient3792"
       gradientUnits="userSpaceOnUse"
       gradientTransform="matrix(1.0454546,0,0,1.0454546,-1.0909091,26.09091)"
       x1="24.95652"
       y1="19.999998"
       x2="24.95652"
       y2="-24" />
    <linearGradient
       inkscape:collect="always"
       xlink:href="#linearGradient3764"
       id="linearGradient3809"
       gradientUnits="userSpaceOnUse"
       gradientTransform="matrix(1.0454546,0,0,1.0454546,-1.0909091,26.09091)"
       x1="24.95652"
       y1="19.999998"
       x2="24.95652"
       y2="-24" />
  </defs>
  <g
     inkscape:groupmode="layer"
     id="layer3"
     inkscape:label="Positive"
     style="display:none"
     transform="translate(0,26)">
    <path
       style="fill:none;stroke:url(#linearGradient3779);stroke-width:4.71428585;stroke-linecap:butt;stroke-linejoin:miter;stroke-miterlimit:4;stroke-opacity:1;stroke-dasharray:none"
       d="m 5.1428571,-5.1428571 6.2857139,0 4.714286,13.171565 L 22.428571,-11.428571 27.142857,-2 l 3.142857,-9.428571 6.285715,14.1428567 6.285714,0"
       id="path3771"
       inkscape:connector-curvature="0"
       sodipodi:nodetypes="cccccccc" />
    <rect
       style="fill:none;stroke:url(#linearGradient3789);stroke-width:2.93333316;stroke-miterlimit:4;stroke-dasharray:none"
       id="rect3781"
       width="44"
       height="44"
       x="2"
       y="-24"
       rx="2.9333332"
       ry="2.9333332" />
  </g>
  <g
     inkscape:groupmode="layer"
     id="layer1"
     inkscape:label="Negative"
     style="display:inline">
    <path
       style="fill:url(#linearGradient3809);fill-opacity:1;stroke:none;display:inline"
       d="M 4.0625,1 C 2.3635668,1 1,2.3635668 1,4.0625 l 0,39.875 C 1,45.636433 2.3635668,47 4.0625,47 l 39.875,0 C 45.636433,47 47,45.636433 47,43.9375 L 47,4.0625 C 47,2.3635668 45.636433,1 43.9375,1 L 4.0625,1 z m 1.75,1.53125 36.375,0 c 1.807354,0 3.28125,1.4738964 3.28125,3.28125 l 0,36.375 c 0,1.807354 -1.473896,3.28125 -3.28125,3.28125 l -36.375,0 c -1.8073536,0 -3.28125,-1.473896 -3.28125,-3.28125 l 0,-36.375 c 0,-1.8073536 1.4738964,-3.28125 3.28125,-3.28125 z m 0,0.9375 c -1.2950464,0 -2.34375,1.0487036 -2.34375,2.34375 l 0,36.375 c 0,1.295046 1.0487036,2.34375 2.34375,2.34375 l 36.375,0 c 1.295046,0 2.34375,-1.048704 2.34375,-2.34375 l 0,-36.375 c 0,-1.2950464 -1.048704,-2.34375 -2.34375,-2.34375 l -36.375,0 z m 24.15625,4.59375 2.46875,5.5625 5.65625,12.71875 4.75,0 0,4.71875 -6.28125,0 -1.53125,0 -0.625,-1.40625 -3.8125,-8.5625 L 29.375,24.75 27.59375,30.15625 25.03125,25.0625 22.875,20.78125 18.375,34.75 16.25,41.34375 13.9375,34.8125 9.78125,23.21875 l -4.625,0 0,-4.71875 6.28125,0 1.65625,0 0.5625,1.5625 2.375,6.65625 4.15625,-12.875 1.78125,-5.46875 2.5625,5.15625 2.1875,4.34375 1.34375,-4.0625 1.90625,-5.75 z"
       id="rect3771"
       inkscape:connector-curvature="0" />
  </g>
</svg>
