<?xml version="1.0" encoding="UTF-8" standalone="no"?>
<!-- Created with Inkscape (http://www.inkscape.org/) -->

<svg
   xmlns:dc="http://purl.org/dc/elements/1.1/"
   xmlns:cc="http://creativecommons.org/ns#"
   xmlns:rdf="http://www.w3.org/1999/02/22-rdf-syntax-ns#"
   xmlns:svg="http://www.w3.org/2000/svg"
   xmlns="http://www.w3.org/2000/svg"
   xmlns:xlink="http://www.w3.org/1999/xlink"
   xmlns:sodipodi="http://sodipodi.sourceforge.net/DTD/sodipodi-0.dtd"
   xmlns:inkscape="http://www.inkscape.org/namespaces/inkscape"
   width="32"
   height="32"
   id="svg2"
   version="1.1"
   inkscape:version="0.48.1 r9760"
   sodipodi:docname="reset.svg"
   enable-background="new">
  <defs
     id="defs4">
    <linearGradient
       id="linearGradient3786">
      <stop
         style="stop-color:#f9f9f9;stop-opacity:1;"
         offset="0"
         id="stop3788" />
      <stop
         id="stop3794"
         offset="0.25"
         style="stop-color:#f9f9f9;stop-opacity:1;" />
      <stop
         style="stop-color:#dfdfdf;stop-opacity:1;"
         offset="1"
         id="stop3790" />
    </linearGradient>
    <linearGradient
       inkscape:collect="always"
       xlink:href="#linearGradient3786"
       id="linearGradient4093"
       x1="16"
       y1="1"
       x2="16"
       y2="31"
       gradientUnits="userSpaceOnUse" />
  </defs>
  <sodipodi:namedview
     id="base"
     pagecolor="#ffffff"
     bordercolor="#666666"
     borderopacity="1.0"
     inkscape:pageopacity="0.0"
     inkscape:pageshadow="2"
     inkscape:zoom="18.841777"
     inkscape:cx="13.127454"
     inkscape:cy="15.292484"
     inkscape:document-units="px"
     inkscape:current-layer="layer2"
     showgrid="true"
     inkscape:snap-global="true"
     inkscape:snap-bbox="false"
     inkscape:window-width="1466"
     inkscape:window-height="802"
     inkscape:window-x="174"
     inkscape:window-y="82"
     inkscape:window-maximized="0"
     fit-margin-top="0"
     fit-margin-left="0"
     fit-margin-right="0"
     fit-margin-bottom="0">
    <inkscape:grid
       type="xygrid"
       id="grid2985"
       empspacing="5"
       visible="true"
       enabled="true"
       snapvisiblegridlinesonly="true" />
  </sodipodi:namedview>
  <metadata
     id="metadata7">
    <rdf:RDF>
      <cc:Work
         rdf:about="">
        <dc:format>image/svg+xml</dc:format>
        <dc:type
           rdf:resource="http://purl.org/dc/dcmitype/StillImage" />
        <dc:title></dc:title>
      </cc:Work>
    </rdf:RDF>
  </metadata>
  <g
     inkscape:groupmode="layer"
     id="layer2"
     inkscape:label="Shape">
    <path
       inkscape:connector-curvature="0"
       style="fill:url(#linearGradient4093);fill-opacity:1;stroke:none"
       d="m 16.115854,0.99085369 c -8.2842713,0 -15.0000003,6.71572901 -15.0000003,15.00000031 0,8.284271 6.715729,15 15.0000003,15 8.284271,0 15,-6.715729 15,-15 0,-8.2842713 -6.715729,-15.00000031 -15,-15.00000031 z m 0.25,6.34375001 c 4.772961,0 8.65625,3.8832893 8.65625,8.6562503 0,4.772961 -3.883289,8.65625 -8.65625,8.65625 -4.77296,0 -8.6562503,-3.883289 -8.6562503,-8.65625 0,-4.772961 3.8832903,-8.6562503 8.6562503,-8.6562503 z m 0,1.8125 c -3.787452,0 -6.8437503,3.0562973 -6.8437503,6.8437503 0,3.787452 3.0562983,6.84375 6.8437503,6.84375 3.787453,0 6.84375,-3.056298 6.84375,-6.84375 0,-3.787453 -3.056297,-6.8437503 -6.84375,-6.8437503 z"
       id="path3782-7-9-7-1" />
  </g>
  <g
     inkscape:label="Inner Shadow"
     inkscape:groupmode="layer"
     id="layer1"
     transform="translate(0.5,-1020.8622)"
     style="opacity:0.56999966;display:inline">
    <rect
       style="fill:#000000;fill-opacity:1"
       id="rect3866"
       width="3.6951802"
       height="2.7713852"
       x="130.2551"
       y="86.945511"
       transform="translate(0,796.36218)"
       rx="7.5"
       ry="2.7713852" />
    <path
       style="fill:#000000;fill-opacity:1;stroke:none"
       d="m 15.615854,1021.8531 c -8.2842713,0 -15.00000034,6.7157 -15.00000034,15 0,2.7518 0.76915504,5.3142 2.06250004,7.5313 -1.154586,-2.1254 -1.81250004,-4.5675 -1.81250004,-7.1563 0,-8.2843 6.71572904,-15 15.00000034,-15 4.659902,0 8.811279,2.1038 11.5625,5.4375 -2.744827,-3.5226 -7.000851,-5.8125 -11.8125,-5.8125 z m 0.25,8.1563 c -3.787452,0 -6.8437503,3.0562 -6.8437503,6.8437 0,1.51 0.488283,2.901 1.3125003,4.0313 -0.6757723,-1.0613 -1.0625003,-2.3014 -1.0625003,-3.6563 0,-3.7875 3.0562983,-6.8437 6.8437503,-6.8437 2.367158,0 4.427969,1.1799 5.65625,3 -1.188768,-2.0171 -3.389303,-3.375 -5.90625,-3.375 z m 7.65625,2.7812 c 0.646195,1.2116 1,2.5962 1,4.0625 0,4.773 -3.883289,8.6563 -8.65625,8.6563 -2.68479,0 -5.098504,-1.2317 -6.6875003,-3.1563 1.5790683,2.1227 4.0946863,3.5313 6.9375003,3.5313 4.772961,0 8.65625,-3.8833 8.65625,-8.6563 0,-1.6207 -0.471673,-3.1391 -1.25,-4.4375 z"
       id="path3782-7-9-7"
       inkscape:connector-curvature="0" />
  </g>
</svg>
