<?xml version="1.0" encoding="UTF-8" standalone="no"?>
<!-- Created with Inkscape (http://www.inkscape.org/) -->

<svg
   xmlns:dc="http://purl.org/dc/elements/1.1/"
   xmlns:cc="http://creativecommons.org/ns#"
   xmlns:rdf="http://www.w3.org/1999/02/22-rdf-syntax-ns#"
   xmlns:svg="http://www.w3.org/2000/svg"
   xmlns="http://www.w3.org/2000/svg"
   xmlns:xlink="http://www.w3.org/1999/xlink"
   xmlns:sodipodi="http://sodipodi.sourceforge.net/DTD/sodipodi-0.dtd"
   xmlns:inkscape="http://www.inkscape.org/namespaces/inkscape"
   width="32"
   height="32"
   id="svg2"
   version="1.1"
   inkscape:version="0.48.1 r9760"
   sodipodi:docname="reset.svg"
   inkscape:export-filename="/home/kedzie/workspace/VBoxManager/res/drawable-mdpi/ic_list_reset_c.png"
   inkscape:export-xdpi="90"
   inkscape:export-ydpi="90"
   style="enable-background:new">
  <defs
     id="defs4">
    <linearGradient
       id="linearGradient3786">
      <stop
         style="stop-color:#f9f9f9;stop-opacity:1;"
         offset="0"
         id="stop3788" />
      <stop
         id="stop3794"
         offset="0.25"
         style="stop-color:#f9f9f9;stop-opacity:1;" />
      <stop
         style="stop-color:#dfdfdf;stop-opacity:1;"
         offset="1"
         id="stop3790" />
    </linearGradient>
    <linearGradient
       inkscape:collect="always"
       xlink:href="#linearGradient3786"
       id="linearGradient4093"
       x1="16"
       y1="1"
       x2="16"
       y2="31"
       gradientUnits="userSpaceOnUse"
       gradientTransform="matrix(0.99613818,0,0,0.99969516,0.0043092,16.009448)" />
    <filter
       inkscape:collect="always"
       id="filter2995"
       color-interpolation-filters="sRGB">
      <feBlend
         inkscape:collect="always"
         mode="lighten"
         in2="BackgroundImage"
         id="feBlend2997" />
    </filter>
  </defs>
  <sodipodi:namedview
     id="base"
     pagecolor="#ffffff"
     bordercolor="#666666"
     borderopacity="1.0"
     inkscape:pageopacity="0.0"
     inkscape:pageshadow="2"
     inkscape:zoom="13.32"
     inkscape:cx="9.7660282"
     inkscape:cy="26.276366"
     inkscape:document-units="px"
     inkscape:current-layer="layer3"
     showgrid="true"
     inkscape:snap-global="true"
     inkscape:snap-bbox="true"
     inkscape:window-width="1590"
     inkscape:window-height="870"
     inkscape:window-x="193"
     inkscape:window-y="72"
     inkscape:window-maximized="0"
     fit-margin-top="0"
     fit-margin-left="0"
     fit-margin-right="0"
     fit-margin-bottom="0">
    <inkscape:grid
       type="xygrid"
       id="grid2985"
       empspacing="5"
       visible="true"
       enabled="true"
       snapvisiblegridlinesonly="true" />
  </sodipodi:namedview>
  <metadata
     id="metadata7">
    <rdf:RDF>
      <cc:Work
         rdf:about="">
        <dc:format>image/svg+xml</dc:format>
        <dc:type
           rdf:resource="http://purl.org/dc/dcmitype/StillImage" />
        <dc:title></dc:title>
      </cc:Work>
    </rdf:RDF>
  </metadata>
  <g
     inkscape:groupmode="layer"
     id="layer2"
     inkscape:label="Shape"
     style="display:inline">
    <path
       inkscape:connector-curvature="0"
       style="fill:#6699ff;fill-opacity:1;stroke:none"
       d="M 16.057927,1 C 7.8056479,1 1.1158537,7.7136815 1.1158537,15.995427 c 0,8.281745 6.6897942,14.995427 14.9420733,14.995427 C 24.310206,30.990854 31,24.277172 31,15.995427 31,7.7136815 24.310206,1 16.057927,1 z m 0.249035,6.341816 c 4.754528,0 8.622821,3.882105 8.622821,8.653611 0,4.771506 -3.868293,8.653611 -8.622821,8.653611 -4.754528,0 -8.6228218,-3.882105 -8.6228218,-8.653611 0,-4.771506 3.8682938,-8.653611 8.6228218,-8.653611 z m 0,1.8119473 c -3.772826,0 -6.8173214,3.0553657 -6.8173214,6.8416637 0,3.786298 3.0444954,6.841664 6.8173214,6.841664 3.772826,0 6.817321,-3.055366 6.817321,-6.841664 0,-3.786298 -3.044495,-6.8416637 -6.817321,-6.8416637 z"
       id="path3782-7-9-7-1" />
  </g>
  <g
     inkscape:groupmode="layer"
     id="layer3"
     inkscape:label="Overlay"
     style="opacity:0.25;display:inline;filter:url(#filter2995)"
     transform="translate(0,-16)">
    <path
       id="path2992"
       d="M 16.057927,17 C 7.8056479,17 1.1158537,23.713682 1.1158537,31.995427 c 0,8.281745 6.6897942,14.995427 14.9420733,14.995427 C 24.310206,46.990854 31,40.277172 31,31.995427 31,23.713682 24.310206,17 16.057927,17 z m 0.249035,6.341816 c 4.754528,0 8.622821,3.882105 8.622821,8.653611 0,4.771506 -3.868293,8.653611 -8.622821,8.653611 -4.754528,0 -8.6228218,-3.882105 -8.6228218,-8.653611 0,-4.771506 3.8682938,-8.653611 8.6228218,-8.653611 z m 0,1.811947 c -3.772826,0 -6.8173214,3.055366 -6.8173214,6.841664 0,3.786298 3.0444954,6.841664 6.8173214,6.841664 3.772826,0 6.817321,-3.055366 6.817321,-6.841664 0,-3.786298 -3.044495,-6.841664 -6.817321,-6.841664 z"
       style="fill:url(#linearGradient4093);fill-opacity:1;stroke:none;display:inline;enable-background:new"
       inkscape:connector-curvature="0" />
  </g>
  <g
     inkscape:label="Inner Shadow"
     inkscape:groupmode="layer"
     id="layer1"
     transform="translate(0.5,-1020.8622)"
     style="opacity:0.56999966;display:inline">
    <rect
       style="fill:#000000;fill-opacity:1"
       id="rect3866"
       width="3.6951802"
       height="2.7713852"
       x="130.2551"
       y="86.945511"
       transform="translate(0,796.36218)"
       rx="7.5"
       ry="2.7713852" />
    <path
       style="fill:#000000;fill-opacity:1;stroke:none"
       d="m 15.557927,1021.8623 c -8.2522791,0 -14.94207334,6.7136 -14.94207334,14.9954 0,2.7509 0.76618474,5.3125 2.05453504,7.529 -1.1501272,-2.1248 -1.80550049,-4.5661 -1.80550049,-7.1541 0,-8.2818 6.68979429,-14.9954 14.94207379,-14.9954 4.641906,0 8.777251,2.1031 11.517848,5.4358 -2.734227,-3.5215 -6.973816,-5.8107 -11.766883,-5.8107 z m 0.249035,8.1538 c -3.772826,0 -6.8173214,3.0553 -6.8173214,6.8416 0,1.5095 0.4863974,2.9001 1.3074314,4.03 -0.6731625,-1.0609 -1.0583968,-2.3006 -1.0583968,-3.6551 0,-3.7864 3.0444958,-6.8417 6.8173208,-6.8417 2.358017,0 4.410869,1.1796 5.634407,2.9991 -1.184178,-2.0165 -3.376214,-3.3739 -5.883441,-3.3739 z m 7.626682,2.7803 c 0.6437,1.2113 0.996139,2.5954 0.996139,4.0613 0,4.7715 -3.868293,8.6537 -8.622821,8.6537 -2.674422,0 -5.078815,-1.2314 -6.6616747,-3.1554 1.5729707,2.122 4.0788737,3.5302 6.9107087,3.5302 4.754529,0 8.622822,-3.8821 8.622822,-8.6536 0,-1.6202 -0.469852,-3.1382 -1.245174,-4.4362 z"
       id="path3782-7-9-7"
       inkscape:connector-curvature="0" />
  </g>
</svg>
