<?xml version="1.0" encoding="UTF-8" standalone="no"?>
<!-- Created with Inkscape (http://www.inkscape.org/) -->

<svg
   xmlns:dc="http://purl.org/dc/elements/1.1/"
   xmlns:cc="http://creativecommons.org/ns#"
   xmlns:rdf="http://www.w3.org/1999/02/22-rdf-syntax-ns#"
   xmlns:svg="http://www.w3.org/2000/svg"
   xmlns="http://www.w3.org/2000/svg"
   xmlns:xlink="http://www.w3.org/1999/xlink"
   xmlns:sodipodi="http://sodipodi.sourceforge.net/DTD/sodipodi-0.dtd"
   xmlns:inkscape="http://www.inkscape.org/namespaces/inkscape"
   width="32"
   height="32"
   id="svg2"
   version="1.1"
   inkscape:version="0.48.1 r9760"
   sodipodi:docname="save.svg"
   inkscape:export-filename="/home/kedzie/workspace/VBoxManager/res/drawable-mdpi/ic_list_save_c.png"
   inkscape:export-xdpi="90"
   inkscape:export-ydpi="90"
   style="enable-background:new">
  <defs
     id="defs4">
    <linearGradient
       id="linearGradient3800">
      <stop
         style="stop-color:#f9f9f9;stop-opacity:1;"
         offset="0"
         id="stop3802" />
      <stop
         style="stop-color:#dfdfdf;stop-opacity:1;"
         offset="1"
         id="stop3804" />
    </linearGradient>
    <linearGradient
       inkscape:collect="always"
       xlink:href="#linearGradient3800"
       id="linearGradient3891"
       x1="48"
       y1="1058.3622"
       x2="48"
       y2="1082.3622"
       gradientUnits="userSpaceOnUse"
       gradientTransform="matrix(1.0009018,0,0,0.99844904,-32.056809,-1033.7301)" />
    <filter
       inkscape:collect="always"
       id="filter3763"
       color-interpolation-filters="sRGB">
      <feBlend
         inkscape:collect="always"
         mode="lighten"
         in2="BackgroundImage"
         id="feBlend3765" />
    </filter>
    <linearGradient
       inkscape:collect="always"
       xlink:href="#linearGradient3800"
       id="linearGradient2997"
       gradientUnits="userSpaceOnUse"
       gradientTransform="matrix(1.5342351,0,0,1.5309552,-49.656809,-605.75728)"
       x1="48"
       y1="1058.3622"
       x2="48"
       y2="1082.3622" />
    <linearGradient
       inkscape:collect="always"
       xlink:href="#linearGradient3800"
       id="linearGradient2999"
       gradientUnits="userSpaceOnUse"
       gradientTransform="matrix(1.5342351,0,0,1.5309552,-49.656809,-605.75728)"
       x1="48"
       y1="1058.3622"
       x2="48"
       y2="1082.3622" />
  </defs>
  <sodipodi:namedview
     id="base"
     pagecolor="#ffffff"
     bordercolor="#666666"
     borderopacity="1.0"
     inkscape:pageopacity="0.0"
     inkscape:pageshadow="2"
     inkscape:zoom="12.239653"
     inkscape:cx="3.826726"
     inkscape:cy="29.087178"
     inkscape:document-units="px"
     inkscape:current-layer="layer4"
     showgrid="true"
     inkscape:window-width="1408"
     inkscape:window-height="778"
     inkscape:window-x="303"
     inkscape:window-y="171"
     inkscape:window-maximized="0"
     inkscape:snap-global="true"
     inkscape:snap-bbox="true">
    <inkscape:grid
       type="xygrid"
       id="grid3752"
       empspacing="5"
       visible="true"
       enabled="true"
       snapvisiblegridlinesonly="true" />
  </sodipodi:namedview>
  <metadata
     id="metadata7">
    <rdf:RDF>
      <cc:Work
         rdf:about="">
        <dc:format>image/svg+xml</dc:format>
        <dc:type
           rdf:resource="http://purl.org/dc/dcmitype/StillImage" />
        <dc:title></dc:title>
      </cc:Work>
    </rdf:RDF>
  </metadata>
  <g
     inkscape:label="Shape"
     inkscape:groupmode="layer"
     id="layer1"
     transform="translate(0,-1020.3622)"
     style="display:inline">
    <path
       style="fill:#ffcc00;fill-opacity:1;stroke:none"
       d="m 0.97294825,1021.3622 0,10.9829 0,18.9706 30.02705175,0 0,-18.9706 0,-4.8674 -6.881199,-6.1155 -2.126917,0 0,10.9829 -16.014427,0 0,-10.9829 -5.00450875,0 z m 12.01082075,0.9985 0,7.9875 6.00541,0 0,-7.9875 -6.00541,0 z m -7.006312,12.9798 20.018035,0 0,12.9798 -20.018035,0 0,-12.9798 z m 2.0018035,2.9953 0,1.9969 16.0144275,0 0,-1.9969 -16.0144275,0 z m 0,4.9923 0,1.9969 16.0144275,0 0,-1.9969 -16.0144275,0 z"
       id="rect3054-1"
       inkscape:connector-curvature="0" />
  </g>
  <g
     inkscape:groupmode="layer"
     id="layer3"
     inkscape:label="Gray"
     style="display:none"
     transform="translate(0,-16)">
    <path
       inkscape:connector-curvature="0"
       id="path3767"
       d="m 0.97294825,1005.3622 0,16.8405 0,29.0882 46.02705175,0 0,-29.0882 0,-7.4634 -10.547866,-9.3771 -3.26025,0 0,16.8405 -24.5477603,0 0,-16.8405 -7.67117545,0 z m 18.41082075,1.531 0,12.2476 9.20541,0 0,-12.2476 -9.20541,0 z m -10.7396453,19.9024 30.6847013,0 0,19.9024 -30.6847013,0 0,-19.9024 z m 3.0684703,4.5928 0,3.0619 24.547761,0 0,-3.0619 -24.547761,0 z m 0,7.6548 0,3.0619 24.547761,0 0,-3.0619 -24.547761,0 z"
       style="fill:url(#linearGradient2997);fill-opacity:1;stroke:none;display:inline"
       transform="translate(0,-1004.3622)" />
    <path
       style="fill:url(#linearGradient2999);fill-opacity:1;stroke:none;display:inline"
       d="m 0.97294825,1005.3622 0,16.8405 0,29.0882 46.02705175,0 0,-29.0882 0,-7.4634 -10.547866,-9.3771 -3.26025,0 0,16.8405 -24.5477603,0 0,-16.8405 -7.67117545,0 z m 18.41082075,1.531 0,12.2476 9.20541,0 0,-12.2476 -9.20541,0 z m -10.7396453,19.9024 30.6847013,0 0,19.9024 -30.6847013,0 0,-19.9024 z m 3.0684703,4.5928 0,3.0619 24.547761,0 0,-3.0619 -24.547761,0 z m 0,7.6548 0,3.0619 24.547761,0 0,-3.0619 -24.547761,0 z"
       id="path3770"
       inkscape:connector-curvature="0"
       transform="translate(0,-1004.3622)" />
  </g>
  <g
     inkscape:groupmode="layer"
     id="layer4"
     inkscape:label="Overlay"
     style="opacity:0.15;display:inline;filter:url(#filter3763)"
     transform="translate(0,-16)">
    <path
       inkscape:connector-curvature="0"
       id="path3776"
       d="m 0.97294825,17 0,10.982935 0,18.970565 L 31,46.9535 31,27.982935 31,23.1155 24.118801,17 l -2.126917,0 0,10.982935 -16.014427,0 0,-10.982935 -5.00450875,0 z m 12.01082075,0.998478 0,7.987565 6.00541,0 0,-7.987565 -6.00541,0 z m -7.006312,12.979826 20.018035,0 0,12.979826 -20.018035,0 0,-12.979826 z m 2.0018035,2.995305 0,1.996891 16.0144275,0 0,-1.996891 -16.0144275,0 z m 0,4.992261 0,1.996891 16.0144275,0 0,-1.996891 -16.0144275,0 z"
       style="fill:url(#linearGradient3891);fill-opacity:1;stroke:none;display:inline" />
  </g>
  <g
     inkscape:groupmode="layer"
     id="layer2"
     inkscape:label="Shadow"
     style="opacity:0.56999966;display:inline"
     transform="translate(0,-16)">
    <path
       style="fill:#000000;fill-opacity:1;stroke:none"
       d="m 1.0000244,17.0465 0,10.983 0,18.9705 0.5004508,0 0,-18.533739 0,-10.982935 4.5040578,0 0,-0.436826 -5.0045086,0 z m 21.0189356,0 0,10.983 -15.5139761,0 0,0.436761 16.0144281,0 0,-10.982935 2.126916,0 -0.500451,-0.436826 -2.126917,0 z m -9.008115,0.998478 0,7.987565 0.500451,0 0,-7.550739 5.504959,0 0,-0.436826 -6.00541,0 z m 13.011723,13.416652 0,12.543 -19.5175841,0 0,0.436827 20.0180341,0 0,-12.979827 -0.50045,0 z m -18.0162318,2.558544 0,1.996891 0.5004512,0 0,-1.560065 15.5139776,0 0,-0.436826 -16.0144288,0 z m 0,4.992261 0,1.996891 0.5004512,0 0,-1.560065 15.5139776,0 0,-0.436826 -16.0144288,0 z"
       id="rect3054-4"
       inkscape:connector-curvature="0" />
  </g>
</svg>
