<?xml version="1.0" encoding="UTF-8" standalone="no"?>
<!-- Created with Inkscape (http://www.inkscape.org/) -->

<svg
   xmlns:dc="http://purl.org/dc/elements/1.1/"
   xmlns:cc="http://creativecommons.org/ns#"
   xmlns:rdf="http://www.w3.org/1999/02/22-rdf-syntax-ns#"
   xmlns:svg="http://www.w3.org/2000/svg"
   xmlns="http://www.w3.org/2000/svg"
   xmlns:xlink="http://www.w3.org/1999/xlink"
   xmlns:sodipodi="http://sodipodi.sourceforge.net/DTD/sodipodi-0.dtd"
   xmlns:inkscape="http://www.inkscape.org/namespaces/inkscape"
   width="32"
   height="32"
   id="svg2"
   version="1.1"
   inkscape:version="0.48.1 r9760"
   sodipodi:docname="save.svg"
   inkscape:export-filename="/home/kedzie/workspace/vbox/res/drawable-ldpi/ic_list_vm_save.png"
   inkscape:export-xdpi="67.5"
   inkscape:export-ydpi="67.5">
  <defs
     id="defs4">
    <linearGradient
       id="linearGradient3800">
      <stop
         style="stop-color:#f9f9f9;stop-opacity:1;"
         offset="0"
         id="stop3802" />
      <stop
         style="stop-color:#dfdfdf;stop-opacity:1;"
         offset="1"
         id="stop3804" />
    </linearGradient>
    <linearGradient
       inkscape:collect="always"
       xlink:href="#linearGradient3800"
       id="linearGradient3891"
       x1="48"
       y1="1058.3622"
       x2="48"
       y2="1082.3622"
       gradientUnits="userSpaceOnUse"
       gradientTransform="translate(-32.027052,-31.046632)" />
  </defs>
  <sodipodi:namedview
     id="base"
     pagecolor="#ffffff"
     bordercolor="#666666"
     borderopacity="1.0"
     inkscape:pageopacity="0.0"
     inkscape:pageshadow="2"
     inkscape:zoom="12.239653"
     inkscape:cx="31.605291"
     inkscape:cy="19.303803"
     inkscape:document-units="px"
     inkscape:current-layer="layer1"
     showgrid="true"
     inkscape:window-width="1408"
     inkscape:window-height="778"
     inkscape:window-x="303"
     inkscape:window-y="171"
     inkscape:window-maximized="0"
     inkscape:snap-global="true">
    <inkscape:grid
       type="xygrid"
       id="grid3752"
       empspacing="5"
       visible="true"
       enabled="true"
       snapvisiblegridlinesonly="true" />
  </sodipodi:namedview>
  <metadata
     id="metadata7">
    <rdf:RDF>
      <cc:Work
         rdf:about="">
        <dc:format>image/svg+xml</dc:format>
        <dc:type
           rdf:resource="http://purl.org/dc/dcmitype/StillImage" />
        <dc:title></dc:title>
      </cc:Work>
    </rdf:RDF>
  </metadata>
  <g
     inkscape:label="Layer 1"
     inkscape:groupmode="layer"
     id="layer1"
     transform="translate(0,-1020.3622)">
    <path
       style="fill:url(#linearGradient3891);fill-opacity:1;stroke:none"
       d="m 0.97294825,1021.3156 0,11 0,19 29.99999975,0 0,-19 0,-4.875 -6.875,-6.125 -2.125,0 0,11 -15.9999997,0 0,-11 -5.00000005,0 z m 11.99999975,1 0,8 6,0 0,-8 -6,0 z m -6.9999997,13 19.9999997,0 0,13 -19.9999997,0 0,-13 z m 2,3 0,2 15.9999997,0 0,-2 -15.9999997,0 z m 0,5 0,2 15.9999997,0 0,-2 -15.9999997,0 z"
       id="rect3054-1"
       inkscape:connector-curvature="0" />
    <path
       style="opacity:0.56999966000000002;fill:#000000;fill-opacity:1;stroke:none"
       d="M 1 1 L 1 12 L 1 31 L 1.5 31 L 1.5 12.4375 L 1.5 1.4375 L 6 1.4375 L 6 1 L 1 1 z M 22 1 L 22 12 L 6.5 12 L 6.5 12.4375 L 22.5 12.4375 L 22.5 1.4375 L 24.625 1.4375 L 24.125 1 L 22 1 z M 13 2 L 13 10 L 13.5 10 L 13.5 2.4375 L 19 2.4375 L 19 2 L 13 2 z M 26 15.4375 L 26 28 L 6.5 28 L 6.5 28.4375 L 26.5 28.4375 L 26.5 15.4375 L 26 15.4375 z M 8 18 L 8 20 L 8.5 20 L 8.5 18.4375 L 24 18.4375 L 24 18 L 8 18 z M 8 23 L 8 25 L 8.5 25 L 8.5 23.4375 L 24 23.4375 L 24 23 L 8 23 z "
       transform="translate(0,1020.3622)"
       id="rect3054-4" />
  </g>
</svg>
