<?xml version="1.0" encoding="UTF-8" standalone="no"?>
<!-- Created with Inkscape (http://www.inkscape.org/) -->

<svg
   xmlns:dc="http://purl.org/dc/elements/1.1/"
   xmlns:cc="http://creativecommons.org/ns#"
   xmlns:rdf="http://www.w3.org/1999/02/22-rdf-syntax-ns#"
   xmlns:svg="http://www.w3.org/2000/svg"
   xmlns="http://www.w3.org/2000/svg"
   xmlns:xlink="http://www.w3.org/1999/xlink"
   xmlns:sodipodi="http://sodipodi.sourceforge.net/DTD/sodipodi-0.dtd"
   xmlns:inkscape="http://www.inkscape.org/namespaces/inkscape"
   width="32"
   height="32"
   id="svg2"
   version="1.1"
   inkscape:version="0.48.1 r9760"
   sodipodi:docname="stuck.svg"
   inkscape:export-filename="/home/kedzie/workspace/VBoxManager/res/drawable-mdpi/ic_list_stuck_c.png"
   inkscape:export-xdpi="90"
   inkscape:export-ydpi="90"
   style="enable-background:new">
  <defs
     id="defs4">
    <linearGradient
       id="linearGradient3800">
      <stop
         style="stop-color:#f9f9f9;stop-opacity:1;"
         offset="0"
         id="stop3802" />
      <stop
         style="stop-color:#dfdfdf;stop-opacity:1;"
         offset="1"
         id="stop3804" />
    </linearGradient>
    <linearGradient
       inkscape:collect="always"
       xlink:href="#linearGradient3800"
       id="linearGradient3891"
       x1="48"
       y1="1058.3622"
       x2="48"
       y2="1082.3622"
       gradientUnits="userSpaceOnUse"
       gradientTransform="translate(-9,0)" />
    <linearGradient
       inkscape:collect="always"
       xlink:href="#linearGradient3800-1"
       id="linearGradient4775-4"
       x1="-8"
       y1="1055.3622"
       x2="-8"
       y2="1080.3622"
       gradientUnits="userSpaceOnUse"
       gradientTransform="translate(-8.5,-30.5)" />
    <linearGradient
       id="linearGradient3800-1">
      <stop
         style="stop-color:#f9f9f9;stop-opacity:1;"
         offset="0"
         id="stop3802-8" />
      <stop
         style="stop-color:#dfdfdf;stop-opacity:1;"
         offset="1"
         id="stop3804-7" />
    </linearGradient>
    <linearGradient
       inkscape:collect="always"
       xlink:href="#linearGradient3800-1-4"
       id="linearGradient4890-7"
       x1="16"
       y1="1026.3622"
       x2="16"
       y2="1051.3622"
       gradientUnits="userSpaceOnUse" />
    <linearGradient
       id="linearGradient3800-1-4">
      <stop
         style="stop-color:#f9f9f9;stop-opacity:1;"
         offset="0"
         id="stop3802-8-5" />
      <stop
         style="stop-color:#dfdfdf;stop-opacity:1;"
         offset="1"
         id="stop3804-7-8" />
    </linearGradient>
    <linearGradient
       inkscape:collect="always"
       xlink:href="#linearGradient3800-1"
       id="linearGradient5508"
       gradientUnits="userSpaceOnUse"
       x1="16"
       y1="1026.3622"
       x2="16"
       y2="1051.3622"
       gradientTransform="translate(0,-1020.3622)" />
    <linearGradient
       y2="1080.3622"
       x2="-8"
       y1="1055.3622"
       x1="-8"
       gradientTransform="translate(-8.5,-30.5)"
       gradientUnits="userSpaceOnUse"
       id="linearGradient4855-5"
       xlink:href="#linearGradient3800-1-6"
       inkscape:collect="always" />
    <linearGradient
       id="linearGradient3800-1-6">
      <stop
         style="stop-color:#f9f9f9;stop-opacity:1;"
         offset="0"
         id="stop3802-8-6" />
      <stop
         style="stop-color:#dfdfdf;stop-opacity:1;"
         offset="1"
         id="stop3804-7-87" />
    </linearGradient>
    <linearGradient
       inkscape:collect="always"
       xlink:href="#linearGradient3800"
       id="linearGradient3794"
       x1="16"
       y1="1"
       x2="16"
       y2="31"
       gradientUnits="userSpaceOnUse" />
    <filter
       inkscape:collect="always"
       id="filter3799"
       color-interpolation-filters="sRGB">
      <feBlend
         inkscape:collect="always"
         mode="lighten"
         in2="BackgroundImage"
         id="feBlend3801" />
    </filter>
    <linearGradient
       inkscape:collect="always"
       xlink:href="#linearGradient3800"
       id="linearGradient3010"
       gradientUnits="userSpaceOnUse"
       x1="16"
       y1="1"
       x2="16"
       y2="31" />
  </defs>
  <sodipodi:namedview
     id="base"
     pagecolor="#ffffff"
     bordercolor="#666666"
     borderopacity="1.0"
     inkscape:pageopacity="0.0"
     inkscape:pageshadow="2"
     inkscape:zoom="17.30989"
     inkscape:cx="15.477245"
     inkscape:cy="16.717812"
     inkscape:document-units="px"
     inkscape:current-layer="layer4"
     showgrid="true"
     inkscape:window-width="1296"
     inkscape:window-height="838"
     inkscape:window-x="58"
     inkscape:window-y="77"
     inkscape:window-maximized="0"
     inkscape:snap-global="true"
     inkscape:snap-bbox="true"
     inkscape:bbox-nodes="false"
     inkscape:snap-nodes="false">
    <inkscape:grid
       type="xygrid"
       id="grid3752"
       empspacing="5"
       visible="true"
       enabled="true"
       snapvisiblegridlinesonly="true" />
  </sodipodi:namedview>
  <metadata
     id="metadata7">
    <rdf:RDF>
      <cc:Work
         rdf:about="">
        <dc:format>image/svg+xml</dc:format>
        <dc:type
           rdf:resource="http://purl.org/dc/dcmitype/StillImage" />
        <dc:title></dc:title>
      </cc:Work>
    </rdf:RDF>
  </metadata>
  <g
     inkscape:label="Shape"
     inkscape:groupmode="layer"
     id="layer1"
     transform="translate(0,-1020.3622)"
     style="display:inline">
    <path
       style="fill:#ff6600;fill-opacity:1;stroke:none"
       d="m 2.96875,1021.3622 c -1.0966201,0 -1.96875,0.8884 -1.96875,2 l 0,26 c 0,1.1116 0.8721299,2 1.96875,2 l 26.0625,0 c 1.09662,0 1.96875,-0.8884 1.96875,-2 l 0,-26 c 0,-1.1116 -0.87213,-2 -1.96875,-2 l -26.0625,0 z m 5.0312498,5 2.6875002,0 c 1.108,0 2,0.9546 2,2.125 l 0,16.0313 c 0,1.1703 -0.892,2.125 -2,2.125 l -2.6875002,0 C 6.892,1046.6435 6,1045.6888 6,1044.5185 l 0,-16.0313 c 0,-1.1704 0.892,-2.125 1.9999998,-2.125 z m 13.3125002,0 2.6875,0 c 1.108,0 2,0.9281 2,2.0938 l 0,15.9999 c 0,1.1657 -0.892,2.0938 -2,2.0938 l -2.6875,0 c -1.108,0 -2,-0.9281 -2,-2.0938 l 0,-15.9999 c 0,-1.1657 0.892,-2.0938 2,-2.0938 z"
       id="rect3775"
       inkscape:connector-curvature="0" />
  </g>
  <g
     inkscape:groupmode="layer"
     id="layer4"
     inkscape:label="Overlay"
     style="opacity:0.25;display:inline;filter:url(#filter3799)">
    <path
       id="path3785"
       d="M 2.96875,1 C 1.8721299,1 1,1.8884017 1,3.0000002 L 1,29 c 0,1.111598 0.8721299,2 1.96875,2 l 26.0625,0 C 30.12787,31 31,30.111598 31,29 L 31,3.0000002 C 31,1.8884017 30.12787,1 29.03125,1 L 2.96875,1 z M 7.9999998,6 10.6875,6 c 1.108,0 2,0.9546173 2,2.125 l 0,16.03125 c 0,1.170383 -0.892,2.125 -2,2.125 l -2.6875002,0 C 6.892,26.28125 6,25.326633 6,24.15625 L 6,8.125 C 6,6.9546173 6.892,6 7.9999998,6 z M 21.3125,6 24,6 c 1.108,0 2,0.9280423 2,2.09375 l 0,16 c 0,1.165708 -0.892,2.09375 -2,2.09375 l -2.6875,0 c -1.108,0 -2,-0.928042 -2,-2.09375 l 0,-16 C 19.3125,6.9280423 20.2045,6 21.3125,6 z"
       style="fill:url(#linearGradient3010);fill-opacity:1;stroke:none;display:inline"
       inkscape:connector-curvature="0" />
  </g>
  <g
     inkscape:groupmode="layer"
     id="layer3"
     inkscape:label="Gray"
     style="display:none">
    <path
       style="fill:url(#linearGradient3794);fill-opacity:1;stroke:none;display:inline"
       d="M 2.96875,1 C 1.8721299,1 1,1.8884017 1,3.0000002 L 1,29 c 0,1.111598 0.8721299,2 1.96875,2 l 26.0625,0 C 30.12787,31 31,30.111598 31,29 L 31,3.0000002 C 31,1.8884017 30.12787,1 29.03125,1 L 2.96875,1 z M 7.9999998,6 10.6875,6 c 1.108,0 2,0.9546173 2,2.125 l 0,16.03125 c 0,1.170383 -0.892,2.125 -2,2.125 l -2.6875002,0 C 6.892,26.28125 6,25.326633 6,24.15625 L 6,8.125 C 6,6.9546173 6.892,6 7.9999998,6 z M 21.3125,6 24,6 c 1.108,0 2,0.9280423 2,2.09375 l 0,16 c 0,1.165708 -0.892,2.09375 -2,2.09375 l -2.6875,0 c -1.108,0 -2,-0.928042 -2,-2.09375 l 0,-16 C 19.3125,6.9280423 20.2045,6 21.3125,6 z"
       id="path3796"
       inkscape:connector-curvature="0" />
  </g>
  <g
     inkscape:groupmode="layer"
     id="layer2"
     inkscape:label="Shadow"
     style="opacity:0.56999966;display:inline">
    <path
       style="fill:#00000f;fill-opacity:0.94117647;stroke:none"
       d="M 2.96875,1 C 1.87213,1 1,1.8884017 1,3.0000002 L 1,29 c 0,0.357552 0.1223374,0.67952 0.28125,0.96875 C 1.2552609,29.838074 1.25,29.70145 1.25,29.5625 l 0,-25.9999998 C 1.25,2.4509017 2.12213,1.5625 3.21875,1.5625 l 26.0625,0 c 0.685388,0 1.273111,0.3433396 1.625,0.8750002 C 30.667785,1.606602 29.932535,1 29.03125,1 L 2.96875,1 z m 9.625,6.5 c 0.05826,0.1994054 0.09375,0.4055532 0.09375,0.625 l 0,16.03125 c 0,1.170383 -0.892,2.125 -2,2.125 l -2.6875002,0 c -0.6924998,0 -1.2975389,-0.372089 -1.6562498,-0.9375 0.2483348,0.871291 1.0011339,1.5 1.9062502,1.5 l 2.6874998,0 c 1.108,0 2,-0.954617 2,-2.125 l 0,-16.03125 c 0,-0.4388936 -0.128523,-0.8482534 -0.34375,-1.1875 z m 13.375,0.15625 c 0.02656,0.136938 0.03125,0.2917865 0.03125,0.4375 l 0,16 c 0,1.165708 -0.891999,2.09375 -1.999999,2.09375 l -2.687501,0 c -0.692499,0 -1.297538,-0.349766 -1.656249,-0.90625 0.248334,0.862249 1.001134,1.46875 1.90625,1.46875 l 2.6875,0 c 1.107999,0 2,-0.928042 2,-2.09375 l 0,-16 c 0,-0.374957 -0.119171,-0.6971973 -0.28125,-1 z"
       id="rect3810"
       inkscape:connector-curvature="0" />
  </g>
</svg>
