<?xml version="1.0" encoding="UTF-8" standalone="no"?>
<!-- Created with Inkscape (http://www.inkscape.org/) -->

<svg
   xmlns:dc="http://purl.org/dc/elements/1.1/"
   xmlns:cc="http://creativecommons.org/ns#"
   xmlns:rdf="http://www.w3.org/1999/02/22-rdf-syntax-ns#"
   xmlns:svg="http://www.w3.org/2000/svg"
   xmlns="http://www.w3.org/2000/svg"
   xmlns:xlink="http://www.w3.org/1999/xlink"
   xmlns:sodipodi="http://sodipodi.sourceforge.net/DTD/sodipodi-0.dtd"
   xmlns:inkscape="http://www.inkscape.org/namespaces/inkscape"
   width="32"
   height="32"
   id="svg2"
   version="1.1"
   inkscape:version="0.48.1 r9760"
   sodipodi:docname="snapshot.svg"
   inkscape:export-filename="/home/kedzie/workspace/VBoxManager/res/drawable-mdpi/ic_list_stuck_small_c.png"
   inkscape:export-xdpi="45"
   inkscape:export-ydpi="45"
   enable-background="new">
  <defs
     id="defs4">
    <linearGradient
       id="linearGradient3800">
      <stop
         style="stop-color:#f9f9f9;stop-opacity:1;"
         offset="0"
         id="stop3802" />
      <stop
         style="stop-color:#dfdfdf;stop-opacity:1;"
         offset="1"
         id="stop3804" />
    </linearGradient>
    <linearGradient
       inkscape:collect="always"
       xlink:href="#linearGradient3800"
       id="linearGradient3891"
       x1="48"
       y1="1058.3622"
       x2="48"
       y2="1082.3622"
       gradientUnits="userSpaceOnUse"
       gradientTransform="translate(-9,0)" />
    <linearGradient
       inkscape:collect="always"
       xlink:href="#linearGradient3800-1"
       id="linearGradient4775-4"
       x1="-8"
       y1="1055.3622"
       x2="-8"
       y2="1080.3622"
       gradientUnits="userSpaceOnUse"
       gradientTransform="translate(-8.5,-30.5)" />
    <linearGradient
       id="linearGradient3800-1">
      <stop
         style="stop-color:#f9f9f9;stop-opacity:1;"
         offset="0"
         id="stop3802-8" />
      <stop
         style="stop-color:#dfdfdf;stop-opacity:1;"
         offset="1"
         id="stop3804-7" />
    </linearGradient>
    <linearGradient
       inkscape:collect="always"
       xlink:href="#linearGradient3800-1-4"
       id="linearGradient4890-7"
       x1="16"
       y1="1026.3622"
       x2="16"
       y2="1051.3622"
       gradientUnits="userSpaceOnUse" />
    <linearGradient
       id="linearGradient3800-1-4">
      <stop
         style="stop-color:#f9f9f9;stop-opacity:1;"
         offset="0"
         id="stop3802-8-5" />
      <stop
         style="stop-color:#dfdfdf;stop-opacity:1;"
         offset="1"
         id="stop3804-7-8" />
    </linearGradient>
    <linearGradient
       inkscape:collect="always"
       xlink:href="#linearGradient3800-1"
       id="linearGradient5508"
       gradientUnits="userSpaceOnUse"
       x1="16"
       y1="1026.3622"
       x2="16"
       y2="1051.3622"
       gradientTransform="translate(0,-1020.3622)" />
    <linearGradient
       y2="1080.3622"
       x2="-8"
       y1="1055.3622"
       x1="-8"
       gradientTransform="translate(-8.5,-30.5)"
       gradientUnits="userSpaceOnUse"
       id="linearGradient4855-5"
       xlink:href="#linearGradient3800-1-6"
       inkscape:collect="always" />
    <linearGradient
       id="linearGradient3800-1-6">
      <stop
         style="stop-color:#f9f9f9;stop-opacity:1;"
         offset="0"
         id="stop3802-8-6" />
      <stop
         style="stop-color:#dfdfdf;stop-opacity:1;"
         offset="1"
         id="stop3804-7-87" />
    </linearGradient>
    <linearGradient
       inkscape:collect="always"
       xlink:href="#linearGradient3800"
       id="linearGradient3794"
       x1="16"
       y1="1"
       x2="16"
       y2="31"
       gradientUnits="userSpaceOnUse" />
    <filter
       inkscape:collect="always"
       id="filter3799">
      <feBlend
         inkscape:collect="always"
         mode="lighten"
         in2="BackgroundImage"
         id="feBlend3801" />
    </filter>
  </defs>
  <sodipodi:namedview
     id="base"
     pagecolor="#ffffff"
     bordercolor="#666666"
     borderopacity="1.0"
     inkscape:pageopacity="0.0"
     inkscape:pageshadow="2"
     inkscape:zoom="12.239653"
     inkscape:cx="14.357112"
     inkscape:cy="14.385219"
     inkscape:document-units="px"
     inkscape:current-layer="layer2"
     showgrid="true"
     inkscape:window-width="1296"
     inkscape:window-height="771"
     inkscape:window-x="58"
     inkscape:window-y="144"
     inkscape:window-maximized="0"
     inkscape:snap-global="false"
     inkscape:snap-bbox="true"
     inkscape:bbox-nodes="false"
     inkscape:snap-nodes="false">
    <inkscape:grid
       type="xygrid"
       id="grid3752"
       empspacing="5"
       visible="true"
       enabled="true"
       snapvisiblegridlinesonly="true" />
  </sodipodi:namedview>
  <metadata
     id="metadata7">
    <rdf:RDF>
      <cc:Work
         rdf:about="">
        <dc:format>image/svg+xml</dc:format>
        <dc:type
           rdf:resource="http://purl.org/dc/dcmitype/StillImage" />
        <dc:title></dc:title>
      </cc:Work>
    </rdf:RDF>
  </metadata>
  <g
     inkscape:label="Shape"
     inkscape:groupmode="layer"
     id="layer1"
     transform="translate(0,-1020.3622)"
     style="display:inline">
    <path
       style="fill:#cc000f;fill-opacity:0.94117647;stroke:none"
       d="M 2.96875,1 C 1.8721299,1 1,1.888402 1,3 l 0,26 c 0,1.111598 0.8721299,2 1.96875,2 l 26.0625,0 C 30.12787,31 31,30.111598 31,29 L 31,3 C 31,1.888402 30.12787,1 29.03125,1 L 2.96875,1 z M 8,6 10.6875,6 c 1.108,0 2,0.9546173 2,2.125 l 0,16.03125 c 0,1.170383 -0.892,2.125 -2,2.125 l -2.6875,0 c -1.108,0 -2,-0.954617 -2,-2.125 L 6,8.125 C 6,6.9546173 6.892,6 8,6 z M 21.3125,6 24,6 c 1.108,0 2,0.9280423 2,2.09375 l 0,16 c 0,1.165708 -0.892,2.09375 -2,2.09375 l -2.6875,0 c -1.108,0 -2,-0.928042 -2,-2.09375 l 0,-16 C 19.3125,6.9280423 20.2045,6 21.3125,6 z"
       transform="translate(0,1020.3622)"
       id="rect3775"
       inkscape:connector-curvature="0" />
  </g>
  <g
     inkscape:groupmode="layer"
     id="layer4"
     inkscape:label="Overlay"
     style="opacity:0.12227077;display:inline;filter:url(#filter3799)">
    <path
       id="path3785"
       d="M 2.96875,1 C 1.8721299,1 1,1.888402 1,3 l 0,26 c 0,1.111598 0.8721299,2 1.96875,2 l 26.0625,0 C 30.12787,31 31,30.111598 31,29 L 31,3 C 31,1.888402 30.12787,1 29.03125,1 L 2.96875,1 z M 8,6 10.6875,6 c 1.108,0 2,0.9546173 2,2.125 l 0,16.03125 c 0,1.170383 -0.892,2.125 -2,2.125 l -2.6875,0 c -1.108,0 -2,-0.954617 -2,-2.125 L 6,8.125 C 6,6.9546173 6.892,6 8,6 z M 21.3125,6 24,6 c 1.108,0 2,0.9280423 2,2.09375 l 0,16 c 0,1.165708 -0.892,2.09375 -2,2.09375 l -2.6875,0 c -1.108,0 -2,-0.928042 -2,-2.09375 l 0,-16 C 19.3125,6.9280423 20.2045,6 21.3125,6 z"
       style="fill:url(#linearGradient3794);fill-opacity:1;stroke:none;display:inline"
       inkscape:connector-curvature="0" />
  </g>
  <g
     inkscape:groupmode="layer"
     id="layer3"
     inkscape:label="Gray"
     style="display:none">
    <path
       style="fill:url(#linearGradient3794);fill-opacity:1;stroke:none;display:inline"
       d="M 2.96875,1 C 1.8721299,1 1,1.888402 1,3 l 0,26 c 0,1.111598 0.8721299,2 1.96875,2 l 26.0625,0 C 30.12787,31 31,30.111598 31,29 L 31,3 C 31,1.888402 30.12787,1 29.03125,1 L 2.96875,1 z M 8,6 10.6875,6 c 1.108,0 2,0.9546173 2,2.125 l 0,16.03125 c 0,1.170383 -0.892,2.125 -2,2.125 l -2.6875,0 c -1.108,0 -2,-0.954617 -2,-2.125 L 6,8.125 C 6,6.9546173 6.892,6 8,6 z M 21.3125,6 24,6 c 1.108,0 2,0.9280423 2,2.09375 l 0,16 c 0,1.165708 -0.892,2.09375 -2,2.09375 l -2.6875,0 c -1.108,0 -2,-0.928042 -2,-2.09375 l 0,-16 C 19.3125,6.9280423 20.2045,6 21.3125,6 z"
       id="path3796"
       inkscape:connector-curvature="0" />
  </g>
  <g
     inkscape:groupmode="layer"
     id="layer2"
     inkscape:label="Shadow"
     style="opacity:0.57;display:inline">
    <path
       style="fill:#00000f;fill-opacity:0.94117647000000004;stroke:none"
       d="M 2.96875 1 C 1.87213 1 1 1.888402 1 3 L 1 29 C 1 29.357552 1.1223374 29.67952 1.28125 29.96875 C 1.2552609 29.838074 1.25 29.70145 1.25 29.5625 L 1.25 3.5625 C 1.25 2.450902 2.12213 1.5625 3.21875 1.5625 L 29.28125 1.5625 C 29.966638 1.5625 30.554361 1.9058397 30.90625 2.4375 C 30.667785 1.6066021 29.932535 1 29.03125 1 L 2.96875 1 z M 12.59375 7.5 C 12.652013 7.6994054 12.6875 7.9055532 12.6875 8.125 L 12.6875 24.15625 C 12.6875 25.326633 11.7955 26.28125 10.6875 26.28125 L 8 26.28125 C 7.3075 26.28125 6.7024609 25.909161 6.34375 25.34375 C 6.5920848 26.215041 7.3448838 26.84375 8.25 26.84375 L 10.9375 26.84375 C 12.0455 26.84375 12.9375 25.889133 12.9375 24.71875 L 12.9375 8.6875 C 12.9375 8.2486064 12.808977 7.8392466 12.59375 7.5 z M 25.96875 7.65625 C 25.995305 7.793188 26 7.9480365 26 8.09375 L 26 24.09375 C 26 25.259458 25.108 26.1875 24 26.1875 L 21.3125 26.1875 C 20.62 26.1875 20.014961 25.837734 19.65625 25.28125 C 19.904585 26.143499 20.657384 26.75 21.5625 26.75 L 24.25 26.75 C 25.358 26.75 26.25 25.821958 26.25 24.65625 L 26.25 8.65625 C 26.25 8.281293 26.13083 7.9590527 25.96875 7.65625 z "
       id="rect3810" />
  </g>
</svg>
