<?xml version="1.0" encoding="UTF-8" standalone="no"?>
<!-- Created with Inkscape (http://www.inkscape.org/) -->

<svg
   xmlns:dc="http://purl.org/dc/elements/1.1/"
   xmlns:cc="http://creativecommons.org/ns#"
   xmlns:rdf="http://www.w3.org/1999/02/22-rdf-syntax-ns#"
   xmlns:svg="http://www.w3.org/2000/svg"
   xmlns="http://www.w3.org/2000/svg"
   xmlns:xlink="http://www.w3.org/1999/xlink"
   xmlns:sodipodi="http://sodipodi.sourceforge.net/DTD/sodipodi-0.dtd"
   xmlns:inkscape="http://www.inkscape.org/namespaces/inkscape"
   width="48"
   height="48"
   id="svg2"
   version="1.1"
   inkscape:version="0.48.2 r9819"
   sodipodi:docname="ic_tab_info.svg"
   style="enable-background:new"
   inkscape:export-filename="/home/kedzie/workspace/vbox-android/res/drawable-hdpi/ic_tab_info_selected.png"
   inkscape:export-xdpi="90"
   inkscape:export-ydpi="90"
   enable-background="new">
  <defs
     id="defs4">
    <linearGradient
       id="linearGradient3786">
      <stop
         style="stop-color:#f9f9f9;stop-opacity:1;"
         offset="0"
         id="stop3788" />
      <stop
         id="stop3794"
         offset="0.25"
         style="stop-color:#f9f9f9;stop-opacity:1;" />
      <stop
         style="stop-color:#dfdfdf;stop-opacity:1;"
         offset="1"
         id="stop3790" />
    </linearGradient>
    <linearGradient
       inkscape:collect="always"
       xlink:href="#linearGradient3786"
       id="linearGradient3792"
       x1="0"
       y1="16"
       x2="32"
       y2="16"
       gradientUnits="userSpaceOnUse" />
    <linearGradient
       inkscape:collect="always"
       xlink:href="#linearGradient3786"
       id="linearGradient3768"
       x1="16"
       y1="1"
       x2="16"
       y2="31"
       gradientUnits="userSpaceOnUse"
       gradientTransform="matrix(1.5341463,0,0,1.52589,-0.52111842,-16.52589)" />
    <filter
       inkscape:collect="always"
       id="filter3809">
      <feGaussianBlur
         inkscape:collect="always"
         stdDeviation="0.32310662"
         id="feGaussianBlur3811" />
    </filter>
    <filter
       inkscape:collect="always"
       id="filter3787">
      <feGaussianBlur
         inkscape:collect="always"
         stdDeviation="0.32310623"
         id="feGaussianBlur3789" />
    </filter>
    <filter
       inkscape:collect="always"
       id="filter3812">
      <feGaussianBlur
         inkscape:collect="always"
         stdDeviation="1.15"
         id="feGaussianBlur3814" />
    </filter>
  </defs>
  <sodipodi:namedview
     id="base"
     pagecolor="#ffffff"
     bordercolor="#666666"
     borderopacity="1.0"
     inkscape:pageopacity="0.0"
     inkscape:pageshadow="2"
     inkscape:zoom="13.323711"
     inkscape:cx="28.827486"
     inkscape:cy="20.888133"
     inkscape:document-units="px"
     inkscape:current-layer="layer4"
     showgrid="true"
     inkscape:snap-global="true"
     inkscape:snap-bbox="true"
     inkscape:window-width="1357"
     inkscape:window-height="868"
     inkscape:window-x="98"
     inkscape:window-y="45"
     inkscape:window-maximized="0"
     fit-margin-top="0"
     fit-margin-left="0"
     fit-margin-right="0"
     fit-margin-bottom="0"
     inkscape:snap-nodes="false">
    <inkscape:grid
       type="xygrid"
       id="grid2985"
       empspacing="5"
       visible="true"
       enabled="true"
       snapvisiblegridlinesonly="true" />
  </sodipodi:namedview>
  <metadata
     id="metadata7">
    <rdf:RDF>
      <cc:Work
         rdf:about="">
        <dc:format>image/svg+xml</dc:format>
        <dc:type
           rdf:resource="http://purl.org/dc/dcmitype/StillImage" />
        <dc:title></dc:title>
      </cc:Work>
    </rdf:RDF>
  </metadata>
  <g
     inkscape:groupmode="layer"
     id="layer4"
     inkscape:label="Glow">
    <path
       style="opacity:0.4;fill:#000000;fill-opacity:1;stroke:none;display:inline;enable-background:new;filter:url(#filter3812)"
       d="M 24 1 C 11.297452 1 1 11.297451 1 24 C 1 36.702549 11.297452 47 24 47 C 36.702548 47 47 36.702549 47 24 C 47 11.297451 36.702548 1 24 1 z M 24 13 C 25.104569 13 26 13.89543 26 15 C 26 16.10457 25.104569 17 24 17 C 22.89543 17 22 16.10457 22 15 C 22 13.89543 22.89543 13 24 13 z M 21 24 L 27 24 L 27 37 L 21 37 L 21 24 z "
       id="path3774" />
  </g>
  <g
     inkscape:groupmode="layer"
     id="layer1"
     inkscape:label="Selected"
     style="display:inline">
    <path
       id="path3822"
       d="M 24,3 C 12.40202,3 3,12.40202 3,24 3,35.59798 12.40202,45 24,45 35.59798,45 45,35.59798 45,24 45,12.40202 35.59798,3 24,3 z m 0,7 c 2.761423,0 5,2.238576 5,5 0,2.761425 -2.238577,5 -5,5 -2.761423,0 -5,-2.238575 -5,-5 0,-2.761424 2.238577,-5 5,-5 z m -5,12 10,0 0,17 -10,0 0,-17 z"
       style="fill:#ffffff;fill-opacity:1;stroke:none;display:inline;enable-background:new"
       inkscape:connector-curvature="0" />
  </g>
  <g
     inkscape:groupmode="layer"
     id="layer2"
     inkscape:label="Unselected"
     style="display:none"
     transform="translate(0,16)">
    <path
       style="fill:#808080;fill-opacity:1;stroke:none;display:inline;enable-background:new"
       d="M 24,3 C 12.40202,3 3,12.40202 3,24 3,35.59798 12.40202,45 24,45 35.59798,45 45,35.59798 45,24 45,12.40202 35.59798,3 24,3 z m 0,7 c 2.761423,0 5,2.238576 5,5 0,2.761425 -2.238577,5 -5,5 -2.761423,0 -5,-2.238575 -5,-5 0,-2.761424 2.238577,-5 5,-5 z m -5,12 10,0 0,17 -10,0 0,-17 z"
       transform="translate(0,-16)"
       id="path3766"
       inkscape:connector-curvature="0" />
  </g>
</svg>
