<?xml version="1.0" encoding="UTF-8" standalone="no"?>
<!-- Created with Inkscape (http://www.inkscape.org/) -->

<svg
   xmlns:dc="http://purl.org/dc/elements/1.1/"
   xmlns:cc="http://creativecommons.org/ns#"
   xmlns:rdf="http://www.w3.org/1999/02/22-rdf-syntax-ns#"
   xmlns:svg="http://www.w3.org/2000/svg"
   xmlns="http://www.w3.org/2000/svg"
   xmlns:xlink="http://www.w3.org/1999/xlink"
   xmlns:sodipodi="http://sodipodi.sourceforge.net/DTD/sodipodi-0.dtd"
   xmlns:inkscape="http://www.inkscape.org/namespaces/inkscape"
   width="48"
   height="48"
   id="svg2"
   version="1.1"
   inkscape:version="0.48.2 r9819"
   sodipodi:docname="ic_tab_actions.svg"
   style="enable-background:new"
   inkscape:export-filename="/home/kedzie/workspace/vbox-android/res/drawable-hdpi/ic_tab_actions_selected.png"
   inkscape:export-xdpi="90"
   inkscape:export-ydpi="90"
   enable-background="new">
  <defs
     id="defs4">
    <linearGradient
       id="linearGradient3786">
      <stop
         style="stop-color:#f9f9f9;stop-opacity:1;"
         offset="0"
         id="stop3788" />
      <stop
         id="stop3794"
         offset="0.25"
         style="stop-color:#f9f9f9;stop-opacity:1;" />
      <stop
         style="stop-color:#dfdfdf;stop-opacity:1;"
         offset="1"
         id="stop3790" />
    </linearGradient>
    <linearGradient
       inkscape:collect="always"
       xlink:href="#linearGradient3786"
       id="linearGradient3792"
       x1="0"
       y1="16"
       x2="32"
       y2="16"
       gradientUnits="userSpaceOnUse" />
    <linearGradient
       inkscape:collect="always"
       xlink:href="#linearGradient3786"
       id="linearGradient3768"
       x1="16"
       y1="1"
       x2="16"
       y2="31"
       gradientUnits="userSpaceOnUse"
       gradientTransform="matrix(1.5341463,0,0,1.52589,-0.52111842,-16.52589)" />
    <filter
       inkscape:collect="always"
       id="filter3884">
      <feGaussianBlur
         inkscape:collect="always"
         stdDeviation="1.15"
         id="feGaussianBlur3886" />
    </filter>
  </defs>
  <sodipodi:namedview
     id="base"
     pagecolor="#ffffff"
     bordercolor="#666666"
     borderopacity="1.0"
     inkscape:pageopacity="0.0"
     inkscape:pageshadow="2"
     inkscape:zoom="13.323711"
     inkscape:cx="6.6114534"
     inkscape:cy="28.554845"
     inkscape:document-units="px"
     inkscape:current-layer="layer4"
     showgrid="true"
     inkscape:snap-global="true"
     inkscape:snap-bbox="true"
     inkscape:window-width="1525"
     inkscape:window-height="862"
     inkscape:window-x="77"
     inkscape:window-y="45"
     inkscape:window-maximized="0"
     fit-margin-top="0"
     fit-margin-left="0"
     fit-margin-right="0"
     fit-margin-bottom="0"
     inkscape:snap-nodes="false"
     showguides="true"
     inkscape:guide-bbox="true">
    <inkscape:grid
       type="xygrid"
       id="grid2985"
       empspacing="5"
       visible="true"
       enabled="true"
       snapvisiblegridlinesonly="true" />
  </sodipodi:namedview>
  <metadata
     id="metadata7">
    <rdf:RDF>
      <cc:Work
         rdf:about="">
        <dc:format>image/svg+xml</dc:format>
        <dc:type
           rdf:resource="http://purl.org/dc/dcmitype/StillImage" />
        <dc:title />
      </cc:Work>
    </rdf:RDF>
  </metadata>
  <g
     inkscape:groupmode="layer"
     id="layer4"
     inkscape:label="GLow"
     style="display:inline">
    <path
       inkscape:connector-curvature="0"
       style="opacity:0.4;fill:#000000;fill-opacity:1;stroke:none;display:inline;filter:url(#filter3884);enable-background:new"
       d="M 24,1 C 11.297451,1 1,11.297451 1,23.999999 1,36.702549 11.297451,47 24,47 36.702549,47 47,36.702549 47,23.999999 47,11.297451 36.702549,1 24,1 z m 0,7.6666667 c 0.849466,0 1.533333,1.3677333 1.533333,3.0666683 l 0,9.199998 c 0,1.698933 -0.683867,3.066666 -1.533333,3.066666 -0.849465,0 -1.533333,-1.367733 -1.533333,-3.066666 l 0,-9.199998 C 22.466667,10.0344 23.150535,8.6666667 24,8.6666667 z m -8.289583,6.3250003 a 1.5334867,1.5334867 0 0 1 0.143756,0 1.5334867,1.5334867 0 0 1 1.102083,2.73125 c -3.905067,3.905067 -3.905067,10.182431 0,14.087499 3.905068,3.905067 10.182433,3.905067 14.087501,0 3.905065,-3.905068 3.905065,-10.182432 0,-14.087499 a 1.5334867,1.5334867 0 1 1 2.156249,-2.156251 c 5.076991,5.076991 5.076991,13.323009 0,18.4 -2.538496,2.538496 -5.861268,3.833334 -9.2,3.833334 -3.338732,0 -6.661504,-1.294838 -9.2,-3.833334 -5.0769904,-5.076991 -5.0769904,-13.323009 0,-18.4 a 1.5334867,1.5334867 0 0 1 0.910411,-0.574999 z"
       id="path3777" />
  </g>
  <g
     inkscape:groupmode="layer"
     id="layer1"
     inkscape:label="Selected"
     style="display:inline">
    <path
       id="path3771"
       d="M 24,3 C 12.402021,3 3,12.402021 3,23.999999 3,35.59798 12.402021,45 24,45 35.597979,45 45,35.59798 45,23.999999 45,12.402021 35.597979,3 24,3 z m 0,6.9999997 c 0.775599,0 1.399999,1.2488003 1.399999,2.8000003 l 0,8.399999 c 0,1.5512 -0.6244,2.8 -1.399999,2.8 -0.775599,0 -1.399999,-1.2488 -1.399999,-2.8 l 0,-8.399999 c 0,-1.5512 0.6244,-2.8000003 1.399999,-2.8000003 z M 16.431251,15.775 a 1.4001401,1.4001401 0 0 1 0.131255,0 1.4001401,1.4001401 0 0 1 1.00625,2.49375 c -3.565496,3.565496 -3.565496,9.297003 0,12.8625 3.565496,3.565495 9.297003,3.565495 12.8625,0 3.565495,-3.565497 3.565495,-9.297004 0,-12.8625 a 1.4001401,1.4001401 0 1 1 1.96875,-1.968751 c 4.635513,4.635514 4.635513,12.164486 0,16.800001 -2.317758,2.317756 -5.351594,3.5 -8.4,3.5 -3.048408,0 -6.082244,-1.182244 -8.4,-3.5 -4.635514,-4.635515 -4.635514,-12.164487 0,-16.800001 A 1.4001401,1.4001401 0 0 1 16.431251,15.775 z"
       style="fill:#ffffff;fill-opacity:1;stroke:none;display:inline;enable-background:new"
       inkscape:connector-curvature="0" />
  </g>
  <g
     inkscape:groupmode="layer"
     id="layer2"
     inkscape:label="Unselected"
     style="display:none"
     transform="translate(0,16)">
    <path
       inkscape:connector-curvature="0"
       style="fill:#808080;fill-opacity:1;stroke:none"
       d="M 24,-13 C 12.402021,-13 3,-3.5979795 3,7.9999992 3,19.59798 12.402021,29 24,29 35.597979,29 45,19.59798 45,7.9999992 45,-3.5979795 35.597979,-13 24,-13 z m 0,7.0000001 c 0.775599,0 1.399999,1.2488001 1.399999,2.8 l 0,8.3999995 c 0,1.5511995 -0.6244,2.7999996 -1.399999,2.7999996 -0.775599,0 -1.399999,-1.2488001 -1.399999,-2.7999996 l 0,-8.3999995 c 0,-1.5511999 0.6244,-2.8 1.399999,-2.8 z m -7.568749,5.77499998 a 1.4001401,1.4001401 0 0 1 0.131255,0 1.4001401,1.4001401 0 0 1 1.00625,2.49374982 c -3.565496,3.5654961 -3.565496,9.2970031 0,12.8625001 3.565496,3.565495 9.297003,3.565495 12.8625,0 3.565495,-3.565497 3.565495,-9.297004 0,-12.8625001 a 1.4001401,1.4001401 0 1 1 1.96875,-1.96875071 c 4.635513,4.63551371 4.635513,12.16448581 0,16.80000081 -2.317758,2.317756 -5.351594,3.5 -8.4,3.5 -3.048408,0 -6.082244,-1.182244 -8.4,-3.5 -4.635514,-4.635515 -4.635514,-12.1644871 0,-16.80000081 a 1.4001401,1.4001401 0 0 1 0.831245,-0.52499911 z"
       id="path3782-8-3" />
  </g>
</svg>
