<?xml version="1.0" encoding="UTF-8" standalone="no"?>
<!-- Created with Inkscape (http://www.inkscape.org/) -->

<svg
   xmlns:dc="http://purl.org/dc/elements/1.1/"
   xmlns:cc="http://creativecommons.org/ns#"
   xmlns:rdf="http://www.w3.org/1999/02/22-rdf-syntax-ns#"
   xmlns:svg="http://www.w3.org/2000/svg"
   xmlns="http://www.w3.org/2000/svg"
   xmlns:xlink="http://www.w3.org/1999/xlink"
   xmlns:sodipodi="http://sodipodi.sourceforge.net/DTD/sodipodi-0.dtd"
   xmlns:inkscape="http://www.inkscape.org/namespaces/inkscape"
   width="48"
   height="48"
   id="svg2"
   version="1.1"
   inkscape:version="0.48.2 r9819"
   sodipodi:docname="ic_tab_snapshots.svg"
   inkscape:export-filename="/home/kedzie/workspace/vbox-android/res/drawable-hdpi/ic_tab_snapshots_selected.png"
   inkscape:export-xdpi="90"
   inkscape:export-ydpi="90"
   style="enable-background:new">
  <defs
     id="defs4">
    <linearGradient
       id="linearGradient3800">
      <stop
         style="stop-color:#f9f9f9;stop-opacity:1;"
         offset="0"
         id="stop3802" />
      <stop
         style="stop-color:#dfdfdf;stop-opacity:1;"
         offset="1"
         id="stop3804" />
    </linearGradient>
    <linearGradient
       inkscape:collect="always"
       xlink:href="#linearGradient3800"
       id="linearGradient3891"
       x1="48"
       y1="1058.3622"
       x2="48"
       y2="1082.3622"
       gradientUnits="userSpaceOnUse"
       gradientTransform="translate(-10,-1)" />
    <linearGradient
       inkscape:collect="always"
       xlink:href="#linearGradient3800-1"
       id="linearGradient4775-4"
       x1="-8"
       y1="1055.3622"
       x2="-8"
       y2="1080.3622"
       gradientUnits="userSpaceOnUse"
       gradientTransform="translate(-8.5,-30.5)" />
    <linearGradient
       id="linearGradient3800-1">
      <stop
         style="stop-color:#f9f9f9;stop-opacity:1;"
         offset="0"
         id="stop3802-8" />
      <stop
         style="stop-color:#dfdfdf;stop-opacity:1;"
         offset="1"
         id="stop3804-7" />
    </linearGradient>
    <linearGradient
       inkscape:collect="always"
       xlink:href="#linearGradient3800-1-4"
       id="linearGradient4890-7"
       x1="16"
       y1="1026.3622"
       x2="16"
       y2="1051.3622"
       gradientUnits="userSpaceOnUse" />
    <linearGradient
       id="linearGradient3800-1-4">
      <stop
         style="stop-color:#f9f9f9;stop-opacity:1;"
         offset="0"
         id="stop3802-8-5" />
      <stop
         style="stop-color:#dfdfdf;stop-opacity:1;"
         offset="1"
         id="stop3804-7-8" />
    </linearGradient>
    <linearGradient
       y2="1080.3622"
       x2="-8"
       y1="1055.3622"
       x1="-8"
       gradientTransform="translate(-8.5,-30.5)"
       gradientUnits="userSpaceOnUse"
       id="linearGradient4855-5"
       xlink:href="#linearGradient3800-1-6"
       inkscape:collect="always" />
    <linearGradient
       id="linearGradient3800-1-6">
      <stop
         style="stop-color:#f9f9f9;stop-opacity:1;"
         offset="0"
         id="stop3802-8-6" />
      <stop
         style="stop-color:#dfdfdf;stop-opacity:1;"
         offset="1"
         id="stop3804-7-87" />
    </linearGradient>
    <filter
       id="filter3799"
       inkscape:label="Glow"
       inkscape:menu="Shadows and Glows"
       inkscape:menu-tooltip="Glow of object's own color at the edges"
       color-interpolation-filters="sRGB">
      <feGaussianBlur
         id="feGaussianBlur3801"
         stdDeviation="5"
         result="result91" />
      <feComposite
         id="feComposite3803"
         in2="result91"
         in="SourceGraphic"
         operator="over" />
    </filter>
    <filter
       inkscape:collect="always"
       id="filter3805">
      <feGaussianBlur
         inkscape:collect="always"
         stdDeviation="1.05"
         id="feGaussianBlur3807" />
    </filter>
  </defs>
  <sodipodi:namedview
     id="base"
     pagecolor="#ffffff"
     bordercolor="#666666"
     borderopacity="1.0"
     inkscape:pageopacity="0.0"
     inkscape:pageshadow="2"
     inkscape:zoom="14.060089"
     inkscape:cx="23.587041"
     inkscape:cy="24.424266"
     inkscape:document-units="px"
     inkscape:current-layer="layer4"
     showgrid="true"
     inkscape:window-width="1432"
     inkscape:window-height="889"
     inkscape:window-x="378"
     inkscape:window-y="38"
     inkscape:window-maximized="0"
     inkscape:snap-global="true"
     inkscape:snap-bbox="true"
     inkscape:bbox-nodes="false"
     inkscape:snap-nodes="true"
     inkscape:snap-grids="true">
    <inkscape:grid
       type="xygrid"
       id="grid3752"
       empspacing="5"
       visible="true"
       enabled="true"
       snapvisiblegridlinesonly="true" />
  </sodipodi:namedview>
  <metadata
     id="metadata7">
    <rdf:RDF>
      <cc:Work
         rdf:about="">
        <dc:format>image/svg+xml</dc:format>
        <dc:type
           rdf:resource="http://purl.org/dc/dcmitype/StillImage" />
        <dc:title />
      </cc:Work>
    </rdf:RDF>
  </metadata>
  <g
     inkscape:groupmode="layer"
     id="layer4"
     inkscape:label="Glow"
     style="display:inline">
    <path
       style="opacity:0.40000000000000002;fill:#000000;fill-opacity:1;stroke:none;display:inline;enable-background:new;filter:url(#filter3805)"
       d="m 18,5 c -1.691884,0 -3.753197,1.4936055 -3,3 l 0,2 -4,0 L 13.207596,7.4418329 2.942904,6.7818835 c -0.00563,3.1146693 -0.043803,4.8291055 0.1993426,8.0090205 L 1,17 1,39.823438 C 1,41.590336 2.4218567,43 4.2044271,43 L 43.795572,43 C 45.578143,43 47,41.590336 47,39.823438 L 47,14.2625 C 47,12.495601 45.776414,9.8519655 44,10 L 33,10 33,8 C 33,6.3157997 31.691882,5 30,5 z"
       id="path4114"
       inkscape:connector-curvature="0"
       sodipodi:nodetypes="ssccccccsssssscsss" />
  </g>
  <g
     inkscape:groupmode="layer"
     id="layer2"
     inkscape:label="Selected"
     style="display:inline">
    <path
       style="fill:#ffffff;fill-opacity:1;stroke:none;display:inline;enable-background:new"
       d="m 20.340249,6.4854772 c -1.544764,0 -2.788382,1.2435815 -2.788382,2.7883817 l 0,2.7883821 -5.838174,0 L 3,17.987552 3,38.421162 c 0,1.620655 1.2915228,2.919087 2.9190872,2.919087 l 36.1618258,0 C 43.708477,41.340249 45,40.041817 45,38.421162 l 0,-23.439834 c 0,-1.620655 -1.291523,-2.919087 -2.919087,-2.919087 l -11.197096,0 0,-2.7883821 c 0,-1.5448002 -1.243618,-2.7883817 -2.788382,-2.7883817 l -7.755186,0 z m -16.2074689,1.6120332 0,4.5746886 c -0.1075529,0.08255 -0.2103687,0.165377 -0.3049793,0.261411 l 7.3630702,-4.8360996 -7.0580909,0 z M 23.912863,16.157676 c 6.126743,0 11.06639,5.081643 11.06639,11.240664 0,6.158838 -4.939647,11.240664 -11.06639,11.240664 -6.126744,0 -11.06639,-5.081826 -11.06639,-11.240664 0,-6.159021 4.939646,-11.240664 11.06639,-11.240664 z m 0,4.139005 c -3.77068,0 -6.840248,3.111339 -6.840248,7.101659 0,3.990138 3.069568,7.10166 6.840248,7.10166 3.77068,0 6.840249,-3.111522 6.840249,-7.10166 0,-3.99032 -3.069569,-7.101659 -6.840249,-7.101659 z"
       id="path3809"
       inkscape:connector-curvature="0" />
  </g>
  <g
     inkscape:label="Unselected"
     inkscape:groupmode="layer"
     id="layer1"
     transform="translate(0,-1004.3622)"
     style="display:none">
    <path
       style="fill:#80808f;fill-opacity:1;stroke:none"
       d="m 20.340249,1010.8477 c -1.544764,0 -2.788382,1.2436 -2.788382,2.7883 l 0,2.7884 -5.838174,0 L 3,1022.3498 l 0,20.4336 c 0,1.6206 1.2915228,2.919 2.9190872,2.919 l 36.1618258,0 c 1.627564,0 2.919087,-1.2984 2.919087,-2.919 l 0,-23.4399 c 0,-1.6206 -1.291523,-2.9191 -2.919087,-2.9191 l -11.197096,0 0,-2.7884 c 0,-1.5447 -1.243618,-2.7883 -2.788382,-2.7883 l -7.755186,0 z m -16.2074689,1.612 0,4.5747 c -0.1075529,0.082 -0.2103687,0.1654 -0.3049793,0.2614 l 7.3630702,-4.8361 -7.0580909,0 z m 19.7800829,8.0602 c 6.126743,0 11.06639,5.0816 11.06639,11.2406 0,6.1589 -4.939647,11.2407 -11.06639,11.2407 -6.126744,0 -11.06639,-5.0818 -11.06639,-11.2407 0,-6.159 4.939646,-11.2406 11.06639,-11.2406 z m 0,4.139 c -3.77068,0 -6.840248,3.1114 -6.840248,7.1016 0,3.9901 3.069568,7.1017 6.840248,7.1017 3.77068,0 6.840249,-3.1116 6.840249,-7.1017 0,-3.9902 -3.069569,-7.1016 -6.840249,-7.1016 z"
       id="rect3845"
       inkscape:connector-curvature="0" />
  </g>
</svg>
