<?xml version="1.0" encoding="UTF-8" standalone="no"?>
<!-- Created with Inkscape (http://www.inkscape.org/) -->

<svg
   xmlns:dc="http://purl.org/dc/elements/1.1/"
   xmlns:cc="http://creativecommons.org/ns#"
   xmlns:rdf="http://www.w3.org/1999/02/22-rdf-syntax-ns#"
   xmlns:svg="http://www.w3.org/2000/svg"
   xmlns="http://www.w3.org/2000/svg"
   xmlns:sodipodi="http://sodipodi.sourceforge.net/DTD/sodipodi-0.dtd"
   xmlns:inkscape="http://www.inkscape.org/namespaces/inkscape"
   width="48"
   height="48"
   id="svg2"
   version="1.1"
   inkscape:version="0.48.3.1 r9886"
   sodipodi:docname="pause.svg"
   style="enable-background:new"
   inkscape:export-filename="/home/kedzie/git/VirtualBox-Manager/VBoxManager/res/drawable-hdpi/working/Holo-Dark/ic_list_pause.png"
   inkscape:export-xdpi="90"
   inkscape:export-ydpi="90"
   enable-background="new">
  <defs
     id="defs4">
    <linearGradient
       id="linearGradient3800">
      <stop
         style="stop-color:#f9f9f9;stop-opacity:1;"
         offset="0"
         id="stop3802" />
      <stop
         style="stop-color:#dfdfdf;stop-opacity:1;"
         offset="1"
         id="stop3804" />
    </linearGradient>
    <filter
       inkscape:collect="always"
       id="filter3764">
      <feBlend
         inkscape:collect="always"
         mode="lighten"
         in2="BackgroundImage"
         id="feBlend3766" />
    </filter>
  </defs>
  <sodipodi:namedview
     id="base"
     pagecolor="#ffffff"
     bordercolor="#666666"
     borderopacity="1.0"
     inkscape:pageopacity="0.0"
     inkscape:pageshadow="2"
     inkscape:zoom="9.28"
     inkscape:cx="23.59098"
     inkscape:cy="28.059491"
     inkscape:document-units="px"
     inkscape:current-layer="layer1"
     showgrid="true"
     inkscape:window-width="1064"
     inkscape:window-height="835"
     inkscape:window-x="181"
     inkscape:window-y="50"
     inkscape:window-maximized="0"
     inkscape:snap-global="true"
     inkscape:snap-nodes="false"
     inkscape:snap-bbox="true">
    <inkscape:grid
       type="xygrid"
       id="grid3752"
       empspacing="5"
       visible="true"
       enabled="true"
       snapvisiblegridlinesonly="true" />
  </sodipodi:namedview>
  <metadata
     id="metadata7">
    <rdf:RDF>
      <cc:Work
         rdf:about="">
        <dc:format>image/svg+xml</dc:format>
        <dc:type
           rdf:resource="http://purl.org/dc/dcmitype/StillImage" />
        <dc:title></dc:title>
      </cc:Work>
    </rdf:RDF>
  </metadata>
  <g
     inkscape:label="Holo Dark"
     inkscape:groupmode="layer"
     id="layer1"
     transform="translate(0,-1004.3622)"
     style="display:inline">
    <path
       inkscape:connector-curvature="0"
       style="fill:#ffffff;fill-opacity:0.80000001;fill-rule:evenodd;stroke:none"
       d="m 8.5875,1010.3622 c -1.4403996,0 -2.5875,1.1001 -2.5875,2.4667 l 0,32.0666 c 0,1.3666 1.1471004,2.4667 2.5875,2.4667 l 10.424999,0 c 1.440401,0 2.5875,-1.1001 2.5875,-2.4667 l 0,-32.0666 c 0,-1.3666 -1.147099,-2.4667 -2.5875,-2.4667 l -10.424999,0 z m 21.637501,0 c -1.450474,0 -2.625001,1.1001 -2.625001,2.4667 l 0,32.0666 c 0,1.3666 1.174527,2.4667 2.625001,2.4667 l 9.149998,0 c 1.450476,0 2.625001,-1.1001 2.625001,-2.4667 l 0,-32.0666 c 0,-1.3666 -1.174525,-2.4667 -2.625001,-2.4667 l -9.149998,0 z"
       id="rect2987-1-8" />
  </g>
  <g
     inkscape:groupmode="layer"
     id="layer4"
     inkscape:label="Holo Light"
     style="display:inline">
    <path
       transform="translate(0,-1004.3622)"
       id="path3810"
       d="m 8.5875,1010.3622 c -1.4403996,0 -2.5875,1.1001 -2.5875,2.4667 l 0,32.0666 c 0,1.3666 1.1471004,2.4667 2.5875,2.4667 l 10.424999,0 c 1.440401,0 2.5875,-1.1001 2.5875,-2.4667 l 0,-32.0666 c 0,-1.3666 -1.147099,-2.4667 -2.5875,-2.4667 l -10.424999,0 z m 21.637501,0 c -1.450474,0 -2.625001,1.1001 -2.625001,2.4667 l 0,32.0666 c 0,1.3666 1.174527,2.4667 2.625001,2.4667 l 9.149998,0 c 1.450476,0 2.625001,-1.1001 2.625001,-2.4667 l 0,-32.0666 c 0,-1.3666 -1.174525,-2.4667 -2.625001,-2.4667 l -9.149998,0 z"
       style="fill:#333333;fill-opacity:0.6;fill-rule:evenodd;stroke:none;display:inline;enable-background:new"
       inkscape:connector-curvature="0" />
  </g>
</svg>
