<?xml version="1.0" encoding="UTF-8" standalone="no"?>
<!-- Created with Inkscape (http://www.inkscape.org/) -->

<svg
   xmlns:dc="http://purl.org/dc/elements/1.1/"
   xmlns:cc="http://creativecommons.org/ns#"
   xmlns:rdf="http://www.w3.org/1999/02/22-rdf-syntax-ns#"
   xmlns:svg="http://www.w3.org/2000/svg"
   xmlns="http://www.w3.org/2000/svg"
   xmlns:xlink="http://www.w3.org/1999/xlink"
   xmlns:sodipodi="http://sodipodi.sourceforge.net/DTD/sodipodi-0.dtd"
   xmlns:inkscape="http://www.inkscape.org/namespaces/inkscape"
   width="48"
   height="48"
   id="svg2"
   version="1.1"
   inkscape:version="0.48.3.1 r9886"
   sodipodi:docname="power.svg"
   style="enable-background:new"
   inkscape:export-filename="/home/kedzie/Desktop/power-dark-hdpi.png"
   inkscape:export-xdpi="90"
   inkscape:export-ydpi="90"
   enable-background="new">
  <defs
     id="defs4">
    <linearGradient
       id="linearGradient3786">
      <stop
         style="stop-color:#f9f9f9;stop-opacity:1;"
         offset="0"
         id="stop3788" />
      <stop
         id="stop3794"
         offset="0.25"
         style="stop-color:#f9f9f9;stop-opacity:1;" />
      <stop
         style="stop-color:#dfdfdf;stop-opacity:1;"
         offset="1"
         id="stop3790" />
    </linearGradient>
    <linearGradient
       inkscape:collect="always"
       xlink:href="#linearGradient3786"
       id="linearGradient3792"
       x1="0"
       y1="16"
       x2="32"
       y2="16"
       gradientUnits="userSpaceOnUse" />
    <linearGradient
       inkscape:collect="always"
       xlink:href="#linearGradient3786"
       id="linearGradient3768"
       x1="16"
       y1="1"
       x2="16"
       y2="31"
       gradientUnits="userSpaceOnUse"
       gradientTransform="matrix(1.5341463,0,0,1.52589,-0.52111842,-16.52589)" />
    <filter
       inkscape:collect="always"
       id="filter2995">
      <feBlend
         inkscape:collect="always"
         mode="lighten"
         in2="BackgroundImage"
         id="feBlend2997" />
    </filter>
  </defs>
  <sodipodi:namedview
     id="base"
     pagecolor="#ffffff"
     bordercolor="#666666"
     borderopacity="1.0"
     inkscape:pageopacity="0.0"
     inkscape:pageshadow="2"
     inkscape:zoom="13.323711"
     inkscape:cx="22.147665"
     inkscape:cy="24.164176"
     inkscape:document-units="px"
     inkscape:current-layer="layer2"
     showgrid="true"
     inkscape:snap-global="true"
     inkscape:snap-bbox="true"
     inkscape:window-width="1134"
     inkscape:window-height="759"
     inkscape:window-x="0"
     inkscape:window-y="24"
     inkscape:window-maximized="1"
     fit-margin-top="0"
     fit-margin-left="0"
     fit-margin-right="0"
     fit-margin-bottom="0"
     inkscape:snap-nodes="false">
    <inkscape:grid
       type="xygrid"
       id="grid2985"
       empspacing="5"
       visible="true"
       enabled="true"
       snapvisiblegridlinesonly="true" />
  </sodipodi:namedview>
  <metadata
     id="metadata7">
    <rdf:RDF>
      <cc:Work
         rdf:about="">
        <dc:format>image/svg+xml</dc:format>
        <dc:type
           rdf:resource="http://purl.org/dc/dcmitype/StillImage" />
        <dc:title></dc:title>
      </cc:Work>
    </rdf:RDF>
  </metadata>
  <g
     inkscape:groupmode="layer"
     id="layer2"
     inkscape:label="Shape"
     style="display:inline;opacity:0.6"
     transform="translate(0,16)">
    <path
       inkscape:connector-curvature="0"
       style="fill:#ffffff;fill-opacity:1;stroke:none"
       d="m 23.987805,-14.776699 c -12.709284,0 -23.01219515,10.2474634 -23.01219515,22.8883487 C 0.97560985,20.752537 11.278521,31 23.987805,31 36.697089,31 47,20.752537 47,8.1116497 47,-4.5292356 36.697089,-14.776699 23.987805,-14.776699 z m 0,7.6294499 c 0.849916,0 1.534146,1.361094 1.534146,3.05178 l 0,9.1553392 c 0,1.6906856 -0.68423,3.0517796 -1.534146,3.0517796 -0.849916,0 -1.534146,-1.361094 -1.534146,-3.0517796 l 0,-9.1553392 c 0,-1.690686 0.68423,-3.05178 1.534146,-3.05178 z m -8.293978,6.2942961 a 1.5342998,1.5260426 0 0 1 0.143832,0 1.5342998,1.5260426 0 0 1 1.102667,2.7179913 c -3.907137,3.8861106 -3.907137,10.1330027 0,14.0191137 3.907139,3.88611 10.187832,3.88611 14.09497,0 3.907137,-3.886111 3.907137,-10.1330031 0,-14.0191137 a 1.5342998,1.5260426 0 1 1 2.157393,-2.1457835 c 5.079683,5.0523456 5.079683,13.2583342 0,18.3106802 -2.539842,2.526173 -5.864376,3.814725 -9.204878,3.814725 -3.340502,0 -6.665036,-1.288552 -9.204878,-3.814725 -5.0796827,-5.052346 -5.0796827,-13.2583346 0,-18.3106802 a 1.5342998,1.5260426 0 0 1 0.910894,-0.5722078 z"
       id="path3782-8-3" />
  </g>
</svg>
