<?xml version="1.0" encoding="UTF-8" standalone="no"?>
<!-- Created with Inkscape (http://www.inkscape.org/) -->

<svg
   xmlns:dc="http://purl.org/dc/elements/1.1/"
   xmlns:cc="http://creativecommons.org/ns#"
   xmlns:rdf="http://www.w3.org/1999/02/22-rdf-syntax-ns#"
   xmlns:svg="http://www.w3.org/2000/svg"
   xmlns="http://www.w3.org/2000/svg"
   xmlns:xlink="http://www.w3.org/1999/xlink"
   xmlns:sodipodi="http://sodipodi.sourceforge.net/DTD/sodipodi-0.dtd"
   xmlns:inkscape="http://www.inkscape.org/namespaces/inkscape"
   width="48"
   height="48"
   id="svg2"
   version="1.1"
   inkscape:version="0.48.1 r9760"
   sodipodi:docname="snapshot.svg"
   inkscape:export-filename="/home/kedzie/workspace/VBoxManager/res/drawable-hdpi/ic_list_snapshot_c.png"
   inkscape:export-xdpi="90"
   inkscape:export-ydpi="90"
   style="enable-background:new">
  <defs
     id="defs4">
    <linearGradient
       id="linearGradient3800">
      <stop
         style="stop-color:#f9f9f9;stop-opacity:1;"
         offset="0"
         id="stop3802" />
      <stop
         style="stop-color:#dfdfdf;stop-opacity:1;"
         offset="1"
         id="stop3804" />
    </linearGradient>
    <linearGradient
       inkscape:collect="always"
       xlink:href="#linearGradient3800"
       id="linearGradient3891"
       x1="48"
       y1="1058.3622"
       x2="48"
       y2="1082.3622"
       gradientUnits="userSpaceOnUse"
       gradientTransform="translate(-10,-1)" />
    <linearGradient
       inkscape:collect="always"
       xlink:href="#linearGradient3800-1"
       id="linearGradient4775-4"
       x1="-8"
       y1="1055.3622"
       x2="-8"
       y2="1080.3622"
       gradientUnits="userSpaceOnUse"
       gradientTransform="translate(-8.5,-30.5)" />
    <linearGradient
       id="linearGradient3800-1">
      <stop
         style="stop-color:#f9f9f9;stop-opacity:1;"
         offset="0"
         id="stop3802-8" />
      <stop
         style="stop-color:#dfdfdf;stop-opacity:1;"
         offset="1"
         id="stop3804-7" />
    </linearGradient>
    <linearGradient
       inkscape:collect="always"
       xlink:href="#linearGradient3800-1-4"
       id="linearGradient4890-7"
       x1="16"
       y1="1026.3622"
       x2="16"
       y2="1051.3622"
       gradientUnits="userSpaceOnUse" />
    <linearGradient
       id="linearGradient3800-1-4">
      <stop
         style="stop-color:#f9f9f9;stop-opacity:1;"
         offset="0"
         id="stop3802-8-5" />
      <stop
         style="stop-color:#dfdfdf;stop-opacity:1;"
         offset="1"
         id="stop3804-7-8" />
    </linearGradient>
    <linearGradient
       y2="1080.3622"
       x2="-8"
       y1="1055.3622"
       x1="-8"
       gradientTransform="translate(-8.5,-30.5)"
       gradientUnits="userSpaceOnUse"
       id="linearGradient4855-5"
       xlink:href="#linearGradient3800-1-6"
       inkscape:collect="always" />
    <linearGradient
       id="linearGradient3800-1-6">
      <stop
         style="stop-color:#f9f9f9;stop-opacity:1;"
         offset="0"
         id="stop3802-8-6" />
      <stop
         style="stop-color:#dfdfdf;stop-opacity:1;"
         offset="1"
         id="stop3804-7-87" />
    </linearGradient>
    <linearGradient
       inkscape:collect="always"
       xlink:href="#linearGradient3800-1"
       id="linearGradient3875"
       x1="16"
       y1="9"
       x2="16"
       y2="27"
       gradientUnits="userSpaceOnUse"
       gradientTransform="matrix(1.52,0,0,1.52,-0.52,-14.04)" />
    <filter
       inkscape:collect="always"
       id="filter3880"
       color-interpolation-filters="sRGB">
      <feBlend
         inkscape:collect="always"
         mode="lighten"
         in2="BackgroundImage"
         id="feBlend3882" />
    </filter>
    <linearGradient
       inkscape:collect="always"
       xlink:href="#linearGradient3800-1-6"
       id="linearGradient3822"
       x1="24"
       y1="19"
       x2="24"
       y2="22"
       gradientUnits="userSpaceOnUse"
       gradientTransform="matrix(1.52,0,0,1.52,-0.52,-14.04)" />
    <linearGradient
       inkscape:collect="always"
       xlink:href="#linearGradient3800-1-6"
       id="linearGradient3833"
       x1="24"
       y1="18"
       x2="24"
       y2="26"
       gradientUnits="userSpaceOnUse"
       gradientTransform="matrix(1.52,0,0,1.52,-0.52,-14.04)" />
    <linearGradient
       inkscape:collect="always"
       xlink:href="#linearGradient3800-1"
       id="linearGradient3791"
       gradientUnits="userSpaceOnUse"
       x1="16"
       y1="9"
       x2="16"
       y2="27"
       gradientTransform="matrix(1.52,0,0,1.52,-0.52,-14.04)" />
  </defs>
  <sodipodi:namedview
     id="base"
     pagecolor="#ffffff"
     bordercolor="#666666"
     borderopacity="1.0"
     inkscape:pageopacity="0.0"
     inkscape:pageshadow="2"
     inkscape:zoom="14.060089"
     inkscape:cx="25.862986"
     inkscape:cy="28.924439"
     inkscape:document-units="px"
     inkscape:current-layer="layer4"
     showgrid="true"
     inkscape:window-width="1655"
     inkscape:window-height="890"
     inkscape:window-x="64"
     inkscape:window-y="106"
     inkscape:window-maximized="0"
     inkscape:snap-global="true"
     inkscape:snap-bbox="true"
     inkscape:bbox-nodes="false"
     inkscape:snap-nodes="false">
    <inkscape:grid
       type="xygrid"
       id="grid3752"
       empspacing="5"
       visible="true"
       enabled="true"
       snapvisiblegridlinesonly="true" />
  </sodipodi:namedview>
  <metadata
     id="metadata7">
    <rdf:RDF>
      <cc:Work
         rdf:about="">
        <dc:format>image/svg+xml</dc:format>
        <dc:type
           rdf:resource="http://purl.org/dc/dcmitype/StillImage" />
        <dc:title></dc:title>
      </cc:Work>
    </rdf:RDF>
  </metadata>
  <g
     inkscape:label="Shape"
     inkscape:groupmode="layer"
     id="layer1"
     transform="translate(0,-1004.3622)"
     style="display:inline">
    <path
       style="fill:#6699ff;fill-opacity:1;stroke:none"
       d="m 19.905,1009.3622 c -1.68416,0 -3.04,1.3558 -3.04,3.04 l 0,3.04 -6.365,0 -9.5,6.46 0,22.2775 c 0,1.7669 1.4080674,3.1825 3.1825,3.1825 l 39.425,0 c 1.774433,0 3.1825,-1.4156 3.1825,-3.1825 l 0,-25.555 c 0,-1.7669 -1.408067,-3.1825 -3.1825,-3.1825 l -12.2075,0 0,-3.04 c 0,-1.6842 -1.35584,-3.04 -3.04,-3.04 l -8.455,0 z m -17.67,1.7575 0,4.9875 c -0.1172583,0.09 -0.2293519,0.1803 -0.3325,0.285 l 8.0275,-5.2725 -7.695,0 z m 21.565,8.7875 c 6.679608,0 12.065,5.5402 12.065,12.255 0,6.7146 -5.385392,12.255 -12.065,12.255 -6.67961,0 -12.065,-5.5404 -12.065,-12.255 0,-6.7148 5.38539,-12.255 12.065,-12.255 z m 0,4.5125 c -4.110939,0 -7.4575,3.3921 -7.4575,7.7425 0,4.3502 3.346561,7.7425 7.4575,7.7425 4.110939,0 7.4575,-3.3923 7.4575,-7.7425 0,-4.3504 -3.346561,-7.7425 -7.4575,-7.7425 z"
       id="rect3845"
       inkscape:connector-curvature="0" />
  </g>
  <g
     inkscape:groupmode="layer"
     id="layer4"
     inkscape:label="Overlay"
     style="opacity:0.25;display:inline;filter:url(#filter3880)"
     transform="translate(0,16)">
    <path
       id="path3866"
       d="m 19.905,-11 c -1.68416,0 -3.04,1.35584 -3.04,3.04 l 0,3.04 -6.365,0 L 1,1.54 1,23.8175 C 1,25.584375 2.4080674,27 4.1825,27 l 39.425,0 c 1.774433,0 3.1825,-1.415625 3.1825,-3.1825 l 0,-25.555 c 0,-1.7668758 -1.408067,-3.1825 -3.1825,-3.1825 l -12.2075,0 0,-3.04 C 31.4,-9.64416 30.04416,-11 28.36,-11 l -8.455,0 z m -17.67,1.7575 0,4.9875 C 2.1177417,-4.165109 2.0056481,-4.0746824 1.9025,-3.97 l 8.0275,-5.2725 -7.695,0 z M 23.8,-0.455 c 6.679608,0 12.065,5.540248 12.065,12.255 0,6.7146 -5.385392,12.255 -12.065,12.255 -6.67961,0 -12.065,-5.5404 -12.065,-12.255 0,-6.714752 5.38539,-12.255 12.065,-12.255 z m 0,4.5125 c -4.110939,0 -7.4575,3.392108 -7.4575,7.7425 0,4.35024 3.346561,7.7425 7.4575,7.7425 4.110939,0 7.4575,-3.39226 7.4575,-7.7425 0,-4.350392 -3.346561,-7.7425 -7.4575,-7.7425 z"
       style="fill:url(#linearGradient3791);fill-opacity:1;stroke:none;display:inline"
       inkscape:connector-curvature="0" />
  </g>
  <g
     inkscape:groupmode="layer"
     id="layer3"
     inkscape:label="Gray"
     style="display:none"
     transform="translate(0,16)">
    <path
       style="fill:url(#linearGradient3875);fill-opacity:1;stroke:none;display:inline"
       d="m 19.905,-11 c -1.68416,0 -3.04,1.35584 -3.04,3.04 l 0,3.04 -6.365,0 L 1,1.54 1,23.8175 C 1,25.584375 2.4080674,27 4.1825,27 l 39.425,0 c 1.774433,0 3.1825,-1.415625 3.1825,-3.1825 l 0,-25.555 c 0,-1.7668758 -1.408067,-3.1825 -3.1825,-3.1825 l -12.2075,0 0,-3.04 C 31.4,-9.64416 30.04416,-11 28.36,-11 l -8.455,0 z m -17.67,1.7575 0,4.9875 C 2.1177417,-4.165109 2.0056481,-4.0746824 1.9025,-3.97 l 8.0275,-5.2725 -7.695,0 z M 23.8,-0.455 c 6.679608,0 12.065,5.540248 12.065,12.255 0,6.7146 -5.385392,12.255 -12.065,12.255 -6.67961,0 -12.065,-5.5404 -12.065,-12.255 0,-6.714752 5.38539,-12.255 12.065,-12.255 z m 0,4.5125 c -4.110939,0 -7.4575,3.392108 -7.4575,7.7425 0,4.35024 3.346561,7.7425 7.4575,7.7425 4.110939,0 7.4575,-3.39226 7.4575,-7.7425 0,-4.350392 -3.346561,-7.7425 -7.4575,-7.7425 z"
       id="path3877"
       inkscape:connector-curvature="0" />
  </g>
  <g
     inkscape:groupmode="layer"
     id="layer2"
     inkscape:label="Shadow"
     style="opacity:0.56999966;display:inline"
     transform="translate(0,16)">
    <path
       style="fill:#000000;fill-opacity:1;stroke:none"
       d="m 19.905,-11 c -1.68416,0 -3.04,1.35584 -3.04,3.04 l 0,3.04 -6.365,0 L 1,1.54 1,23.8175 C 1,24.609548 1.2879324,25.305001 1.76,25.86 1.611458,25.49035 1.475,25.097655 1.475,24.6725 l 0,-22.2775 9.5,-6.46 6.365,0 0,-3.04 c 0,-1.68416 1.35584,-3.04 3.04,-3.04 l 8.455,0 c 0.940807,0 1.818221,0.4254199 2.375,1.0925 C 30.773792,-10.195563 29.659962,-11 28.36,-11 l -8.455,0 z m -17.67,1.7575 0,4.9875 c -0.1172583,0.089891 -0.2293519,0.1803176 -0.3325,0.285 l 0.8075,-0.5225 0,-3.895 5.9375,0 1.2825,-0.855 -7.695,0 z m 29.64,4.3225 0,0.855 12.2075,0 c 1.022463,0 1.937625,0.498581 2.5175,1.235 -0.442331,-1.2205244 -1.606225,-2.09 -2.9925,-2.09 l -11.7325,0 z M 23.8,4.0575 c -4.110939,0 -7.4575,3.392108 -7.4575,7.7425 0,1.706205 0.551201,3.247892 1.425,4.5125 -0.56264,-1.08929 -0.95,-2.313586 -0.95,-3.6575 0,-4.350392 3.346561,-7.7425 7.4575,-7.7425 2.464036,0 4.673728,1.221776 6.0325,3.135 -1.271746,-2.3899142 -3.699309,-3.99 -6.5075,-3.99 z m 10.64,1.995 c 0.9082,1.7221326 1.425,3.6720312 1.425,5.7475 0,6.7146 -5.385392,12.255 -12.065,12.255 -4.174756,0 -7.857673,-2.15253 -10.0225,-5.415 2.062889,3.736304 5.966179,6.27 10.4975,6.27 6.679608,0 12.065,-5.5404 12.065,-12.255 0,-2.433409 -0.680168,-4.6853757 -1.9,-6.6025 z"
       id="rect3891"
       inkscape:connector-curvature="0" />
  </g>
  <g
     inkscape:groupmode="layer"
     id="layer6"
     inkscape:label="Remove"
     style="display:none"
     transform="translate(0,16)">
    <rect
       style="fill:#cc0000;fill-opacity:1;stroke:none;display:inline"
       id="rect3801"
       width="18.24"
       height="6.0799999"
       x="26.84"
       y="13.32"
       rx="1.178106"
       ry="0.86265689" />
  </g>
  <g
     inkscape:groupmode="layer"
     id="layer9"
     inkscape:label="Remove_Grey"
     style="display:none"
     transform="translate(0,16)">
    <rect
       ry="0.86265689"
       rx="1.178106"
       y="13.32"
       x="26.84"
       height="6.0799999"
       width="18.24"
       id="rect3813"
       style="fill:url(#linearGradient3822);fill-opacity:1;stroke:none;display:inline" />
  </g>
  <g
     inkscape:groupmode="layer"
     id="layer8"
     inkscape:label="Remove_Shadow"
     style="opacity:0.56999966;display:none"
     transform="translate(0,16)">
    <path
       style="fill:#000000;fill-opacity:0.99607843;stroke:none;display:inline"
       d="m 28.0275,13.32 c -0.652671,0 -1.1875,0.377088 -1.1875,0.855 l 0,4.37 c 0,0.298695 0.20922,0.557778 0.5225,0.7125 l 0,-4.37 c 0,-0.477912 0.534829,-0.855 1.1875,-0.855 l 15.865,0 c 0.244752,0 0.475382,0.05101 0.665,0.1425 0,-0.477912 -0.534829,-0.855 -1.1875,-0.855 l -15.865,0 z"
       id="rect3781"
       inkscape:connector-curvature="0" />
  </g>
  <g
     inkscape:groupmode="layer"
     id="layer5"
     inkscape:label="Create"
     style="display:none"
     transform="translate(0,16)">
    <path
       style="fill:#cc0000;fill-opacity:1;stroke:none;display:inline"
       d="m 33.775,7.24 c -0.477912,0 -0.855,0.5348287 -0.855,1.1875 l 0,4.8925 -4.8925,0 c -0.652671,0 -1.1875,0.377088 -1.1875,0.855 l 0,4.37 c 0,0.477912 0.534829,0.855 1.1875,0.855 l 4.8925,0 0,4.8925 c 0,0.652671 0.377088,1.1875 0.855,1.1875 l 4.37,0 C 38.622912,25.48 39,24.945171 39,24.2925 l 0,-4.8925 4.8925,0 c 0.652671,0 1.1875,-0.377088 1.1875,-0.855 l 0,-4.37 c 0,-0.477912 -0.534829,-0.855 -1.1875,-0.855 L 39,13.32 39,8.4275 C 39,7.7748287 38.622912,7.24 38.145,7.24 l -4.37,0 z"
       id="path3803"
       inkscape:connector-curvature="0" />
  </g>
  <g
     inkscape:groupmode="layer"
     id="layer10"
     inkscape:label="Create_Gray"
     style="display:none"
     transform="translate(0,16)">
    <path
       inkscape:connector-curvature="0"
       id="path3824"
       d="m 33.775,7.24 c -0.477912,0 -0.855,0.5348287 -0.855,1.1875 l 0,4.8925 -4.8925,0 c -0.652671,0 -1.1875,0.377088 -1.1875,0.855 l 0,4.37 c 0,0.477912 0.534829,0.855 1.1875,0.855 l 4.8925,0 0,4.8925 c 0,0.652671 0.377088,1.1875 0.855,1.1875 l 4.37,0 C 38.622912,25.48 39,24.945171 39,24.2925 l 0,-4.8925 4.8925,0 c 0.652671,0 1.1875,-0.377088 1.1875,-0.855 l 0,-4.37 c 0,-0.477912 -0.534829,-0.855 -1.1875,-0.855 L 39,13.32 39,8.4275 C 39,7.7748287 38.622912,7.24 38.145,7.24 l -4.37,0 z"
       style="fill:url(#linearGradient3833);fill-opacity:1;stroke:none;display:inline" />
  </g>
  <g
     inkscape:groupmode="layer"
     id="layer7"
     inkscape:label="Create_shadow"
     style="opacity:0.56999966;display:none"
     transform="translate(0,16)">
    <path
       style="fill:#000000;fill-opacity:0.99607843;stroke:none;display:inline"
       d="m 33.775,7.24 c -0.477912,0 -0.855,0.5348287 -0.855,1.1875 l 0,4.8925 -4.8925,0 c -0.652671,0 -1.1875,0.377088 -1.1875,0.855 l 0,4.37 c 0,0.298695 0.206468,0.560021 0.5225,0.7125 l 0,-4.275 c 0,-0.477912 0.534829,-0.855 1.1875,-0.855 l 4.8925,0 0,-4.8925 c 0,-0.6526713 0.377088,-1.1875 0.855,-1.1875 l 4.37,0 c 0.103694,0 0.193618,0.048898 0.285,0.095 C 38.861168,7.6266591 38.550752,7.24 38.145,7.24 l -4.37,0 z m 5.7475,6.08 0,0.8075 4.8925,0 c 0.244752,0 0.475382,0.05101 0.665,0.1425 l 0,-0.095 c 0,-0.477912 -0.534829,-0.855 -1.1875,-0.855 l -4.37,0 z m -6.6025,6.8875 0,4.085 c 0,0.511054 0.24023,0.926138 0.57,1.0925 -0.0199,-0.100852 -0.0475,-0.175558 -0.0475,-0.285 l 0,-4.8925 -0.5225,0 z"
       id="rect3779"
       inkscape:connector-curvature="0" />
  </g>
</svg>
