<?xml version="1.0" encoding="UTF-8" standalone="no"?>
<!-- Created with Inkscape (http://www.inkscape.org/) -->

<svg
   xmlns:dc="http://purl.org/dc/elements/1.1/"
   xmlns:cc="http://creativecommons.org/ns#"
   xmlns:rdf="http://www.w3.org/1999/02/22-rdf-syntax-ns#"
   xmlns:svg="http://www.w3.org/2000/svg"
   xmlns="http://www.w3.org/2000/svg"
   xmlns:xlink="http://www.w3.org/1999/xlink"
   xmlns:sodipodi="http://sodipodi.sourceforge.net/DTD/sodipodi-0.dtd"
   xmlns:inkscape="http://www.inkscape.org/namespaces/inkscape"
   width="48"
   height="48"
   id="svg2"
   version="1.1"
   inkscape:version="0.48.3.1 r9886"
   sodipodi:docname="stuck.svg"
   inkscape:export-filename="/home/kedzie/git/VirtualBox-Manager/VBoxManager/res/drawable-hdpi/working/Color/ic_list_stuck.png"
   inkscape:export-xdpi="90"
   inkscape:export-ydpi="90"
   style="enable-background:new">
  <defs
     id="defs4">
    <linearGradient
       id="linearGradient3800">
      <stop
         style="stop-color:#f9f9f9;stop-opacity:1;"
         offset="0"
         id="stop3802" />
      <stop
         style="stop-color:#dfdfdf;stop-opacity:1;"
         offset="1"
         id="stop3804" />
    </linearGradient>
    <linearGradient
       inkscape:collect="always"
       xlink:href="#linearGradient3800"
       id="linearGradient3891"
       x1="48"
       y1="1058.3622"
       x2="48"
       y2="1082.3622"
       gradientUnits="userSpaceOnUse"
       gradientTransform="translate(-9,0)" />
    <linearGradient
       inkscape:collect="always"
       xlink:href="#linearGradient3800-1"
       id="linearGradient4775-4"
       x1="-8"
       y1="1055.3622"
       x2="-8"
       y2="1080.3622"
       gradientUnits="userSpaceOnUse"
       gradientTransform="translate(-8.5,-30.5)" />
    <linearGradient
       id="linearGradient3800-1">
      <stop
         style="stop-color:#f9f9f9;stop-opacity:1;"
         offset="0"
         id="stop3802-8" />
      <stop
         style="stop-color:#dfdfdf;stop-opacity:1;"
         offset="1"
         id="stop3804-7" />
    </linearGradient>
    <linearGradient
       inkscape:collect="always"
       xlink:href="#linearGradient3800-1-4"
       id="linearGradient4890-7"
       x1="16"
       y1="1026.3622"
       x2="16"
       y2="1051.3622"
       gradientUnits="userSpaceOnUse" />
    <linearGradient
       id="linearGradient3800-1-4">
      <stop
         style="stop-color:#f9f9f9;stop-opacity:1;"
         offset="0"
         id="stop3802-8-5" />
      <stop
         style="stop-color:#dfdfdf;stop-opacity:1;"
         offset="1"
         id="stop3804-7-8" />
    </linearGradient>
    <linearGradient
       inkscape:collect="always"
       xlink:href="#linearGradient3800-1"
       id="linearGradient5508"
       gradientUnits="userSpaceOnUse"
       x1="16"
       y1="1026.3622"
       x2="16"
       y2="1051.3622"
       gradientTransform="translate(0,-1020.3622)" />
    <linearGradient
       y2="1080.3622"
       x2="-8"
       y1="1055.3622"
       x1="-8"
       gradientTransform="translate(-8.5,-30.5)"
       gradientUnits="userSpaceOnUse"
       id="linearGradient4855-5"
       xlink:href="#linearGradient3800-1-6"
       inkscape:collect="always" />
    <linearGradient
       id="linearGradient3800-1-6">
      <stop
         style="stop-color:#f9f9f9;stop-opacity:1;"
         offset="0"
         id="stop3802-8-6" />
      <stop
         style="stop-color:#dfdfdf;stop-opacity:1;"
         offset="1"
         id="stop3804-7-87" />
    </linearGradient>
    <linearGradient
       inkscape:collect="always"
       xlink:href="#linearGradient3800"
       id="linearGradient3794"
       x1="16"
       y1="1"
       x2="16"
       y2="31"
       gradientUnits="userSpaceOnUse"
       gradientTransform="matrix(1.5333333,0,0,1.5333333,-0.53333333,-16.533333)" />
    <linearGradient
       inkscape:collect="always"
       xlink:href="#linearGradient3800"
       id="linearGradient3010"
       gradientUnits="userSpaceOnUse"
       x1="16"
       y1="1"
       x2="16"
       y2="31"
       gradientTransform="matrix(1.5333333,0,0,1.5333333,-0.53333333,-16.533333)" />
  </defs>
  <sodipodi:namedview
     id="base"
     pagecolor="#ffffff"
     bordercolor="#666666"
     borderopacity="1.0"
     inkscape:pageopacity="0.0"
     inkscape:pageshadow="2"
     inkscape:zoom="9.28"
     inkscape:cx="10.327311"
     inkscape:cy="26.150258"
     inkscape:document-units="px"
     inkscape:current-layer="layer2"
     showgrid="true"
     inkscape:window-width="1278"
     inkscape:window-height="838"
     inkscape:window-x="0"
     inkscape:window-y="137"
     inkscape:window-maximized="0"
     inkscape:snap-global="true"
     inkscape:snap-bbox="true"
     inkscape:bbox-nodes="false"
     inkscape:snap-nodes="false">
    <inkscape:grid
       type="xygrid"
       id="grid3752"
       empspacing="5"
       visible="true"
       enabled="true"
       snapvisiblegridlinesonly="true" />
  </sodipodi:namedview>
  <metadata
     id="metadata7">
    <rdf:RDF>
      <cc:Work
         rdf:about="">
        <dc:format>image/svg+xml</dc:format>
        <dc:type
           rdf:resource="http://purl.org/dc/dcmitype/StillImage" />
        <dc:title></dc:title>
      </cc:Work>
    </rdf:RDF>
  </metadata>
  <g
     inkscape:label="Holo-Light"
     inkscape:groupmode="layer"
     id="layer1"
     transform="translate(0,-1004.3622)"
     style="display:none">
    <path
       style="fill:#333333;fill-opacity:0.6;stroke:none"
       d="m 8.3625,1010.3622 c -1.3159442,0 -2.3625,1.066 -2.3625,2.4001 l 0,31.1998 c 0,1.3341 1.0465558,2.4001 2.3625,2.4001 l 31.275,0 c 1.315944,0 2.3625,-1.066 2.3625,-2.4001 l 0,-31.1998 c 0,-1.3341 -1.046556,-2.4001 -2.3625,-2.4001 l -31.275,0 z m 6.037499,6.0001 3.225002,0 c 1.329599,0 2.399998,1.1455 2.399998,2.5499 l 0,19.2375 c 0,1.4045 -1.070399,2.5501 -2.399998,2.5501 l -3.225002,0 C 13.0704,1040.6998 12,1039.5542 12,1038.1497 l 0,-19.2375 c 0,-1.4044 1.0704,-2.5499 2.399999,-2.5499 z m 15.975,0 3.225002,0 c 1.329599,0 2.399998,1.1136 2.399998,2.5124 l 0,19.1999 c 0,1.399 -1.070399,2.5126 -2.399998,2.5126 l -3.225002,0 c -1.329599,0 -2.399998,-1.1136 -2.399998,-2.5126 l 0,-19.1999 c 0,-1.3988 1.070399,-2.5124 2.399998,-2.5124 z"
       id="rect3775"
       inkscape:connector-curvature="0" />
  </g>
  <g
     inkscape:groupmode="layer"
     id="layer3"
     inkscape:label="Holo-Dark"
     style="display:none">
    <path
       transform="translate(0,-1004.3622)"
       inkscape:connector-curvature="0"
       id="path4450"
       d="m 8.3625,1010.3622 c -1.3159442,0 -2.3625,1.066 -2.3625,2.4001 l 0,31.1998 c 0,1.3341 1.0465558,2.4001 2.3625,2.4001 l 31.275,0 c 1.315944,0 2.3625,-1.066 2.3625,-2.4001 l 0,-31.1998 c 0,-1.3341 -1.046556,-2.4001 -2.3625,-2.4001 l -31.275,0 z m 6.037499,6.0001 3.225002,0 c 1.329599,0 2.399998,1.1455 2.399998,2.5499 l 0,19.2375 c 0,1.4045 -1.070399,2.5501 -2.399998,2.5501 l -3.225002,0 C 13.0704,1040.6998 12,1039.5542 12,1038.1497 l 0,-19.2375 c 0,-1.4044 1.0704,-2.5499 2.399999,-2.5499 z m 15.975,0 3.225002,0 c 1.329599,0 2.399998,1.1136 2.399998,2.5124 l 0,19.1999 c 0,1.399 -1.070399,2.5126 -2.399998,2.5126 l -3.225002,0 c -1.329599,0 -2.399998,-1.1136 -2.399998,-2.5126 l 0,-19.1999 c 0,-1.3988 1.070399,-2.5124 2.399998,-2.5124 z"
       style="fill:#ffffff;fill-opacity:0.8;stroke:none;display:inline;enable-background:new" />
  </g>
  <g
     inkscape:groupmode="layer"
     id="layer2"
     inkscape:label="Color"
     style="display:inline">
    <path
       transform="translate(0,-1004.3622)"
       inkscape:connector-curvature="0"
       id="path3776"
       d="m 8.3625,1010.3622 c -1.3159442,0 -2.3625,1.066 -2.3625,2.4001 l 0,31.1998 c 0,1.3341 1.0465558,2.4001 2.3625,2.4001 l 31.275,0 c 1.315944,0 2.3625,-1.066 2.3625,-2.4001 l 0,-31.1998 c 0,-1.3341 -1.046556,-2.4001 -2.3625,-2.4001 l -31.275,0 z m 6.037499,6.0001 3.225002,0 c 1.329599,0 2.399998,1.1455 2.399998,2.5499 l 0,19.2375 c 0,1.4045 -1.070399,2.5501 -2.399998,2.5501 l -3.225002,0 C 13.0704,1040.6998 12,1039.5542 12,1038.1497 l 0,-19.2375 c 0,-1.4044 1.0704,-2.5499 2.399999,-2.5499 z m 15.975,0 3.225002,0 c 1.329599,0 2.399998,1.1136 2.399998,2.5124 l 0,19.1999 c 0,1.399 -1.070399,2.5126 -2.399998,2.5126 l -3.225002,0 c -1.329599,0 -2.399998,-1.1136 -2.399998,-2.5126 l 0,-19.1999 c 0,-1.3988 1.070399,-2.5124 2.399998,-2.5124 z"
       style="fill:#eb1313;fill-opacity:1;stroke:none;display:inline;enable-background:new" />
  </g>
</svg>
