<?xml version="1.0" encoding="UTF-8" standalone="no"?>
<!-- Created with Inkscape (http://www.inkscape.org/) -->

<svg
   xmlns:dc="http://purl.org/dc/elements/1.1/"
   xmlns:cc="http://creativecommons.org/ns#"
   xmlns:rdf="http://www.w3.org/1999/02/22-rdf-syntax-ns#"
   xmlns:svg="http://www.w3.org/2000/svg"
   xmlns="http://www.w3.org/2000/svg"
   xmlns:xlink="http://www.w3.org/1999/xlink"
   xmlns:sodipodi="http://sodipodi.sourceforge.net/DTD/sodipodi-0.dtd"
   xmlns:inkscape="http://www.inkscape.org/namespaces/inkscape"
   width="48"
   height="48"
   id="svg2"
   version="1.1"
   inkscape:version="0.48.1 r9760"
   sodipodi:docname="stuck.svg"
   inkscape:export-filename="/home/kedzie/workspace/VBoxManager/res/drawable-hdpi/ic_list_stuck.png"
   inkscape:export-xdpi="90"
   inkscape:export-ydpi="90"
   style="enable-background:new">
  <defs
     id="defs4">
    <linearGradient
       id="linearGradient3800">
      <stop
         style="stop-color:#f9f9f9;stop-opacity:1;"
         offset="0"
         id="stop3802" />
      <stop
         style="stop-color:#dfdfdf;stop-opacity:1;"
         offset="1"
         id="stop3804" />
    </linearGradient>
    <linearGradient
       inkscape:collect="always"
       xlink:href="#linearGradient3800"
       id="linearGradient3891"
       x1="48"
       y1="1058.3622"
       x2="48"
       y2="1082.3622"
       gradientUnits="userSpaceOnUse"
       gradientTransform="translate(-9,0)" />
    <linearGradient
       inkscape:collect="always"
       xlink:href="#linearGradient3800-1"
       id="linearGradient4775-4"
       x1="-8"
       y1="1055.3622"
       x2="-8"
       y2="1080.3622"
       gradientUnits="userSpaceOnUse"
       gradientTransform="translate(-8.5,-30.5)" />
    <linearGradient
       id="linearGradient3800-1">
      <stop
         style="stop-color:#f9f9f9;stop-opacity:1;"
         offset="0"
         id="stop3802-8" />
      <stop
         style="stop-color:#dfdfdf;stop-opacity:1;"
         offset="1"
         id="stop3804-7" />
    </linearGradient>
    <linearGradient
       inkscape:collect="always"
       xlink:href="#linearGradient3800-1-4"
       id="linearGradient4890-7"
       x1="16"
       y1="1026.3622"
       x2="16"
       y2="1051.3622"
       gradientUnits="userSpaceOnUse" />
    <linearGradient
       id="linearGradient3800-1-4">
      <stop
         style="stop-color:#f9f9f9;stop-opacity:1;"
         offset="0"
         id="stop3802-8-5" />
      <stop
         style="stop-color:#dfdfdf;stop-opacity:1;"
         offset="1"
         id="stop3804-7-8" />
    </linearGradient>
    <linearGradient
       inkscape:collect="always"
       xlink:href="#linearGradient3800-1"
       id="linearGradient5508"
       gradientUnits="userSpaceOnUse"
       x1="16"
       y1="1026.3622"
       x2="16"
       y2="1051.3622"
       gradientTransform="translate(0,-1020.3622)" />
    <linearGradient
       y2="1080.3622"
       x2="-8"
       y1="1055.3622"
       x1="-8"
       gradientTransform="translate(-8.5,-30.5)"
       gradientUnits="userSpaceOnUse"
       id="linearGradient4855-5"
       xlink:href="#linearGradient3800-1-6"
       inkscape:collect="always" />
    <linearGradient
       id="linearGradient3800-1-6">
      <stop
         style="stop-color:#f9f9f9;stop-opacity:1;"
         offset="0"
         id="stop3802-8-6" />
      <stop
         style="stop-color:#dfdfdf;stop-opacity:1;"
         offset="1"
         id="stop3804-7-87" />
    </linearGradient>
    <linearGradient
       inkscape:collect="always"
       xlink:href="#linearGradient3800"
       id="linearGradient3794"
       x1="16"
       y1="1"
       x2="16"
       y2="31"
       gradientUnits="userSpaceOnUse"
       gradientTransform="matrix(1.5333333,0,0,1.5333333,-0.53333333,-16.533333)" />
    <filter
       inkscape:collect="always"
       id="filter3799"
       color-interpolation-filters="sRGB">
      <feBlend
         inkscape:collect="always"
         mode="lighten"
         in2="BackgroundImage"
         id="feBlend3801" />
    </filter>
    <linearGradient
       inkscape:collect="always"
       xlink:href="#linearGradient3800"
       id="linearGradient3010"
       gradientUnits="userSpaceOnUse"
       x1="16"
       y1="1"
       x2="16"
       y2="31"
       gradientTransform="matrix(1.5333333,0,0,1.5333333,-0.53333333,-16.533333)" />
  </defs>
  <sodipodi:namedview
     id="base"
     pagecolor="#ffffff"
     bordercolor="#666666"
     borderopacity="1.0"
     inkscape:pageopacity="0.0"
     inkscape:pageshadow="2"
     inkscape:zoom="12.239653"
     inkscape:cx="24.389811"
     inkscape:cy="26.150258"
     inkscape:document-units="px"
     inkscape:current-layer="layer4"
     showgrid="true"
     inkscape:window-width="1296"
     inkscape:window-height="838"
     inkscape:window-x="58"
     inkscape:window-y="77"
     inkscape:window-maximized="0"
     inkscape:snap-global="true"
     inkscape:snap-bbox="true"
     inkscape:bbox-nodes="false"
     inkscape:snap-nodes="false">
    <inkscape:grid
       type="xygrid"
       id="grid3752"
       empspacing="5"
       visible="true"
       enabled="true"
       snapvisiblegridlinesonly="true" />
  </sodipodi:namedview>
  <metadata
     id="metadata7">
    <rdf:RDF>
      <cc:Work
         rdf:about="">
        <dc:format>image/svg+xml</dc:format>
        <dc:type
           rdf:resource="http://purl.org/dc/dcmitype/StillImage" />
        <dc:title></dc:title>
      </cc:Work>
    </rdf:RDF>
  </metadata>
  <g
     inkscape:label="Shape"
     inkscape:groupmode="layer"
     id="layer1"
     transform="translate(0,-1004.3622)"
     style="display:inline">
    <path
       style="fill:#ff6600;fill-opacity:1;stroke:none"
       d="M 4.01875,1005.3622 C 2.3372658,1005.3622 1,1006.7244 1,1008.4289 l 0,39.8666 c 0,1.7045 1.3372658,3.0667 3.01875,3.0667 l 39.9625,0 C 45.662734,1051.3622 47,1050 47,1048.2955 l 0,-39.8666 c 0,-1.7045 -1.337266,-3.0667 -3.01875,-3.0667 l -39.9625,0 z m 7.714583,7.6667 4.120834,0 c 1.698933,0 3.066666,1.4637 3.066666,3.2583 l 0,24.5813 c 0,1.7945 -1.367733,3.2583 -3.066666,3.2583 l -4.120834,0 c -1.698933,0 -3.0666663,-1.4638 -3.0666663,-3.2583 l 0,-24.5813 c 0,-1.7946 1.3677333,-3.2583 3.0666663,-3.2583 z m 20.4125,0 4.120834,0 c 1.698933,0 3.066666,1.423 3.066666,3.2104 l 0,24.5333 c 0,1.7874 -1.367733,3.2104 -3.066666,3.2104 l -4.120834,0 c -1.698933,0 -3.066666,-1.423 -3.066666,-3.2104 l 0,-24.5333 c 0,-1.7874 1.367733,-3.2104 3.066666,-3.2104 z"
       id="rect3775"
       inkscape:connector-curvature="0" />
  </g>
  <g
     inkscape:groupmode="layer"
     id="layer4"
     inkscape:label="Overlay"
     style="opacity:0.25;display:inline;filter:url(#filter3799)"
     transform="translate(0,16)">
    <path
       id="path3785"
       d="M 4.01875,-15 C 2.3372658,-15 1,-13.637784 1,-11.933333 L 1,27.933333 C 1,29.637784 2.3372658,31 4.01875,31 l 39.9625,0 C 45.662734,31 47,29.637784 47,27.933333 l 0,-39.866666 C 47,-13.637784 45.662734,-15 43.98125,-15 l -39.9625,0 z m 7.714583,7.6666667 4.120834,0 c 1.698933,0 3.066666,1.4637465 3.066666,3.2583333 l 0,24.58125 c 0,1.794587 -1.367733,3.258333 -3.066666,3.258333 l -4.120834,0 c -1.698933,0 -3.0666663,-1.463746 -3.0666663,-3.258333 l 0,-24.58125 c 0,-1.7945868 1.3677333,-3.2583333 3.0666663,-3.2583333 z m 20.4125,0 4.120834,0 c 1.698933,0 3.066666,1.4229982 3.066666,3.2104166 l 0,24.5333337 c 0,1.787419 -1.367733,3.210416 -3.066666,3.210416 l -4.120834,0 c -1.698933,0 -3.066666,-1.422997 -3.066666,-3.210416 l 0,-24.5333337 c 0,-1.7874184 1.367733,-3.2104166 3.066666,-3.2104166 z"
       style="fill:url(#linearGradient3010);fill-opacity:1;stroke:none;display:inline"
       inkscape:connector-curvature="0" />
  </g>
  <g
     inkscape:groupmode="layer"
     id="layer3"
     inkscape:label="Gray"
     style="display:none"
     transform="translate(0,16)">
    <path
       style="fill:url(#linearGradient3794);fill-opacity:1;stroke:none;display:inline"
       d="M 4.01875,-15 C 2.3372658,-15 1,-13.637784 1,-11.933333 L 1,27.933333 C 1,29.637784 2.3372658,31 4.01875,31 l 39.9625,0 C 45.662734,31 47,29.637784 47,27.933333 l 0,-39.866666 C 47,-13.637784 45.662734,-15 43.98125,-15 l -39.9625,0 z m 7.714583,7.6666667 4.120834,0 c 1.698933,0 3.066666,1.4637465 3.066666,3.2583333 l 0,24.58125 c 0,1.794587 -1.367733,3.258333 -3.066666,3.258333 l -4.120834,0 c -1.698933,0 -3.0666663,-1.463746 -3.0666663,-3.258333 l 0,-24.58125 c 0,-1.7945868 1.3677333,-3.2583333 3.0666663,-3.2583333 z m 20.4125,0 4.120834,0 c 1.698933,0 3.066666,1.4229982 3.066666,3.2104166 l 0,24.5333337 c 0,1.787419 -1.367733,3.210416 -3.066666,3.210416 l -4.120834,0 c -1.698933,0 -3.066666,-1.422997 -3.066666,-3.210416 l 0,-24.5333337 c 0,-1.7874184 1.367733,-3.2104166 3.066666,-3.2104166 z"
       id="path3796"
       inkscape:connector-curvature="0" />
  </g>
  <g
     inkscape:groupmode="layer"
     id="layer2"
     inkscape:label="Shadow"
     style="opacity:0.56999966;display:inline"
     transform="translate(0,16)">
    <path
       style="fill:#00000f;fill-opacity:0.94117647;stroke:none"
       d="M 4.01875,-15 C 2.337266,-15 1,-13.637784 1,-11.933333 L 1,27.933333 C 1,28.48158 1.187584,28.975264 1.43125,29.41875 1.3914,29.21838 1.3833333,29.00889 1.3833333,28.795833 l 0,-39.866666 c 0,-1.704451 1.337266,-3.066667 3.01875,-3.066667 l 39.9624997,0 c 1.050929,0 1.952104,0.526454 2.491667,1.341667 C 46.490604,-14.069877 45.36322,-15 43.98125,-15 l -39.9625,0 z m 14.758333,9.9666667 c 0.08933,0.3057549 0.14375,0.6218482 0.14375,0.9583333 l 0,24.58125 c 0,1.794587 -1.367733,3.258333 -3.066666,3.258333 l -4.120834,0 c -1.061833,0 -1.9895596,-0.570536 -2.539583,-1.4375 0.38078,1.33598 1.535072,2.3 2.922917,2.3 l 4.120833,0 c 1.698933,0 3.066667,-1.463746 3.066667,-3.258333 l 0,-24.58125 c 0,-0.6729702 -0.197069,-1.3006552 -0.527084,-1.8208333 z M 39.285417,-4.79375 c 0.04072,0.2099716 0.04792,0.447406 0.04792,0.6708333 l 0,24.5333337 c 0,1.787419 -1.367733,3.210416 -3.066666,3.210416 l -4.120834,0 c -1.061833,0 -1.989559,-0.536308 -2.539583,-1.389583 0.38078,1.322115 1.535072,2.252083 2.922917,2.252083 l 4.120833,0 c 1.698933,0 3.066667,-1.422997 3.066667,-3.210416 l 0,-24.5333337 c 0,-0.574934 -0.182728,-1.0690358 -0.43125,-1.5333333 z"
       id="rect3810"
       inkscape:connector-curvature="0" />
  </g>
</svg>
