<?xml version="1.0" encoding="UTF-8" standalone="no"?>
<!-- Created with Inkscape (http://www.inkscape.org/) -->

<svg
   xmlns:dc="http://purl.org/dc/elements/1.1/"
   xmlns:cc="http://creativecommons.org/ns#"
   xmlns:rdf="http://www.w3.org/1999/02/22-rdf-syntax-ns#"
   xmlns:svg="http://www.w3.org/2000/svg"
   xmlns="http://www.w3.org/2000/svg"
   xmlns:xlink="http://www.w3.org/1999/xlink"
   xmlns:sodipodi="http://sodipodi.sourceforge.net/DTD/sodipodi-0.dtd"
   xmlns:inkscape="http://www.inkscape.org/namespaces/inkscape"
   width="48"
   height="48"
   id="svg2"
   version="1.1"
   inkscape:version="0.48.1 r9760"
   sodipodi:docname="pause.svg"
   style="enable-background:new"
   inkscape:export-filename="/home/kedzie/workspace/vbox/res/drawable-hdpi/ic_list_pause_small.png"
   inkscape:export-xdpi="45"
   inkscape:export-ydpi="45">
  <defs
     id="defs4">
    <linearGradient
       id="linearGradient3800">
      <stop
         style="stop-color:#f9f9f9;stop-opacity:1;"
         offset="0"
         id="stop3802" />
      <stop
         style="stop-color:#dfdfdf;stop-opacity:1;"
         offset="1"
         id="stop3804" />
    </linearGradient>
    <linearGradient
       inkscape:collect="always"
       xlink:href="#linearGradient3800"
       id="linearGradient3806"
       x1="16"
       y1="1029.3622"
       x2="16"
       y2="1051.3622"
       gradientUnits="userSpaceOnUse"
       gradientTransform="matrix(1.5333333,0,0,1.5333333,-0.53333333,-1581.0887)" />
  </defs>
  <sodipodi:namedview
     id="base"
     pagecolor="#ffffff"
     bordercolor="#666666"
     borderopacity="1.0"
     inkscape:pageopacity="0.0"
     inkscape:pageshadow="2"
     inkscape:zoom="12.239653"
     inkscape:cx="15.499435"
     inkscape:cy="25.107507"
     inkscape:document-units="px"
     inkscape:current-layer="layer3"
     showgrid="true"
     inkscape:window-width="1405"
     inkscape:window-height="804"
     inkscape:window-x="318"
     inkscape:window-y="134"
     inkscape:window-maximized="0"
     inkscape:snap-global="true"
     inkscape:snap-nodes="false"
     inkscape:snap-bbox="true">
    <inkscape:grid
       type="xygrid"
       id="grid3752"
       empspacing="5"
       visible="true"
       enabled="true"
       snapvisiblegridlinesonly="true" />
  </sodipodi:namedview>
  <metadata
     id="metadata7">
    <rdf:RDF>
      <cc:Work
         rdf:about="">
        <dc:format>image/svg+xml</dc:format>
        <dc:type
           rdf:resource="http://purl.org/dc/dcmitype/StillImage" />
        <dc:title></dc:title>
      </cc:Work>
    </rdf:RDF>
  </metadata>
  <g
     inkscape:label="Shape"
     inkscape:groupmode="layer"
     id="layer1"
     transform="translate(0,-1004.3622)"
     style="display:none">
    <path
       inkscape:connector-curvature="0"
       style="fill:#ffcc00;fill-opacity:1;fill-rule:evenodd;stroke:none"
       d="M 4.30625,1005.3622 C 2.4657394,1005.3622 1,1006.7299 1,1008.4289 l 0,39.8666 c 0,1.699 1.4657394,3.0667 3.30625,3.0667 l 13.320833,0 c 1.840511,0 3.30625,-1.3677 3.30625,-3.0667 l 0,-39.8666 c 0,-1.699 -1.465739,-3.0667 -3.30625,-3.0667 l -13.320833,0 z m 27.647917,0 c -1.853382,0 -3.354167,1.3677 -3.354167,3.0667 l 0,39.8666 c 0,1.699 1.500785,3.0667 3.354167,3.0667 l 11.691666,0 c 1.853386,0 3.354167,-1.3677 3.354167,-3.0667 l 0,-39.8666 c 0,-1.699 -1.500781,-3.0667 -3.354167,-3.0667 l -11.691666,0 z"
       id="rect2987-1-8" />
  </g>
  <g
     inkscape:groupmode="layer"
     id="layer3"
     inkscape:label="Overlay"
     style="display:inline"
     transform="translate(0,16)">
    <path
       id="path3780"
       d="M 4.30625,-15 C 2.4657394,-15 1,-13.632267 1,-11.933333 L 1,27.933333 C 1,29.632267 2.4657394,31 4.30625,31 l 13.320833,0 c 1.840511,0 3.30625,-1.367733 3.30625,-3.066667 l 0,-39.866666 C 20.933333,-13.632267 19.467594,-15 17.627083,-15 L 4.30625,-15 z m 27.647917,0 C 30.100785,-15 28.6,-13.632267 28.6,-11.933333 l 0,39.866666 C 28.6,29.632267 30.100785,31 31.954167,31 l 11.691666,0 C 45.499219,31 47,29.632267 47,27.933333 l 0,-39.866666 C 47,-13.632267 45.499219,-15 43.645833,-15 l -11.691666,0 z"
       style="fill:url(#linearGradient3806);fill-opacity:1;fill-rule:evenodd;stroke:none"
       inkscape:connector-curvature="0" />
  </g>
  <g
     inkscape:groupmode="layer"
     id="layer2"
     inkscape:label="Shadow"
     style="opacity:0.56999966;display:inline"
     transform="translate(0,16)">
    <path
       style="fill:#000000;fill-opacity:1;fill-rule:evenodd;stroke:none"
       d="M 4.30625,-15 C 2.4657394,-15 1,-13.632267 1,-11.933333 L 1,27.933333 C 1,28.670026 1.304419,29.322368 1.7666667,29.85 1.6121326,29.493989 1.5270833,29.108805 1.5270833,28.7 l 0,-39.866667 c 0,-1.698933 1.4657388,-3.066666 3.30625,-3.066666 l 13.3208337,0 c 1.028147,0 1.935516,0.429151 2.539583,1.102083 C 20.195237,-14.232663 19.007467,-15 17.627083,-15 L 4.30625,-15 z m 27.647917,0 C 30.100785,-15 28.6,-13.632267 28.6,-11.933333 l 0,39.866666 c 0,0.761592 0.314844,1.429475 0.814583,1.964584 -0.169657,-0.367137 -0.2875,-0.773184 -0.2875,-1.197917 l 0,-39.866667 c 0,-1.698933 1.500786,-3.066666 3.354167,-3.066666 l 11.691667,0 c 1.035337,0 1.972377,0.429151 2.5875,1.102083 C 46.251445,-14.232663 45.035872,-15 43.645833,-15 l -11.691666,0 z"
       id="rect2987-1"
       inkscape:connector-curvature="0" />
  </g>
</svg>
