<?xml version="1.0" encoding="UTF-8" standalone="no"?>
<!-- Created with Inkscape (http://www.inkscape.org/) -->

<svg
   xmlns:dc="http://purl.org/dc/elements/1.1/"
   xmlns:cc="http://creativecommons.org/ns#"
   xmlns:rdf="http://www.w3.org/1999/02/22-rdf-syntax-ns#"
   xmlns:svg="http://www.w3.org/2000/svg"
   xmlns="http://www.w3.org/2000/svg"
   xmlns:xlink="http://www.w3.org/1999/xlink"
   xmlns:sodipodi="http://sodipodi.sourceforge.net/DTD/sodipodi-0.dtd"
   xmlns:inkscape="http://www.inkscape.org/namespaces/inkscape"
   width="48"
   height="48"
   id="svg2"
   version="1.1"
   inkscape:version="0.48.3.1 r9886"
   sodipodi:docname="snapshot.svg"
   inkscape:export-filename="/home/kedzie/Development/git/VirtualBox-Manager/VBoxManager/doc/svg-xhdpi/Holo-Light/ic_list_snapshot.png"
   inkscape:export-xdpi="135"
   inkscape:export-ydpi="135"
   style="enable-background:new">
  <defs
     id="defs4">
    <linearGradient
       id="linearGradient3800">
      <stop
         style="stop-color:#f9f9f9;stop-opacity:1;"
         offset="0"
         id="stop3802" />
      <stop
         style="stop-color:#dfdfdf;stop-opacity:1;"
         offset="1"
         id="stop3804" />
    </linearGradient>
    <linearGradient
       inkscape:collect="always"
       xlink:href="#linearGradient3800"
       id="linearGradient3891"
       x1="48"
       y1="1058.3622"
       x2="48"
       y2="1082.3622"
       gradientUnits="userSpaceOnUse"
       gradientTransform="translate(-10,-1)" />
    <linearGradient
       inkscape:collect="always"
       xlink:href="#linearGradient3800-1"
       id="linearGradient4775-4"
       x1="-8"
       y1="1055.3622"
       x2="-8"
       y2="1080.3622"
       gradientUnits="userSpaceOnUse"
       gradientTransform="translate(-8.5,-30.5)" />
    <linearGradient
       id="linearGradient3800-1">
      <stop
         style="stop-color:#f9f9f9;stop-opacity:1;"
         offset="0"
         id="stop3802-8" />
      <stop
         style="stop-color:#dfdfdf;stop-opacity:1;"
         offset="1"
         id="stop3804-7" />
    </linearGradient>
    <linearGradient
       inkscape:collect="always"
       xlink:href="#linearGradient3800-1-4"
       id="linearGradient4890-7"
       x1="16"
       y1="1026.3622"
       x2="16"
       y2="1051.3622"
       gradientUnits="userSpaceOnUse" />
    <linearGradient
       id="linearGradient3800-1-4">
      <stop
         style="stop-color:#f9f9f9;stop-opacity:1;"
         offset="0"
         id="stop3802-8-5" />
      <stop
         style="stop-color:#dfdfdf;stop-opacity:1;"
         offset="1"
         id="stop3804-7-8" />
    </linearGradient>
    <linearGradient
       y2="1080.3622"
       x2="-8"
       y1="1055.3622"
       x1="-8"
       gradientTransform="translate(-8.5,-30.5)"
       gradientUnits="userSpaceOnUse"
       id="linearGradient4855-5"
       xlink:href="#linearGradient3800-1-6"
       inkscape:collect="always" />
    <linearGradient
       id="linearGradient3800-1-6">
      <stop
         style="stop-color:#f9f9f9;stop-opacity:1;"
         offset="0"
         id="stop3802-8-6" />
      <stop
         style="stop-color:#dfdfdf;stop-opacity:1;"
         offset="1"
         id="stop3804-7-87" />
    </linearGradient>
    <linearGradient
       inkscape:collect="always"
       xlink:href="#linearGradient3800-1"
       id="linearGradient3875"
       x1="16"
       y1="9"
       x2="16"
       y2="27"
       gradientUnits="userSpaceOnUse"
       gradientTransform="matrix(1.52,0,0,1.52,-0.52,-14.04)" />
    <linearGradient
       inkscape:collect="always"
       xlink:href="#linearGradient3800-1-6"
       id="linearGradient3822"
       x1="24"
       y1="19"
       x2="24"
       y2="22"
       gradientUnits="userSpaceOnUse"
       gradientTransform="matrix(1.52,0,0,1.52,-0.52,-14.04)" />
    <linearGradient
       inkscape:collect="always"
       xlink:href="#linearGradient3800-1-6"
       id="linearGradient3833"
       x1="24"
       y1="18"
       x2="24"
       y2="26"
       gradientUnits="userSpaceOnUse"
       gradientTransform="matrix(1.52,0,0,1.52,-0.52,-14.04)" />
    <linearGradient
       inkscape:collect="always"
       xlink:href="#linearGradient3800-1"
       id="linearGradient3791"
       gradientUnits="userSpaceOnUse"
       x1="16"
       y1="9"
       x2="16"
       y2="27"
       gradientTransform="matrix(1.52,0,0,1.52,-0.52,-14.04)" />
  </defs>
  <sodipodi:namedview
     id="base"
     pagecolor="#ffffff"
     bordercolor="#666666"
     borderopacity="1.0"
     inkscape:pageopacity="0.0"
     inkscape:pageshadow="2"
     inkscape:zoom="8.6599296"
     inkscape:cx="17.477422"
     inkscape:cy="28.924439"
     inkscape:document-units="px"
     inkscape:current-layer="layer3"
     showgrid="true"
     inkscape:window-width="1244"
     inkscape:window-height="749"
     inkscape:window-x="0"
     inkscape:window-y="34"
     inkscape:window-maximized="0"
     inkscape:snap-global="true"
     inkscape:snap-bbox="true"
     inkscape:bbox-nodes="false"
     inkscape:snap-nodes="false">
    <inkscape:grid
       type="xygrid"
       id="grid3752"
       empspacing="5"
       visible="true"
       enabled="true"
       snapvisiblegridlinesonly="true" />
  </sodipodi:namedview>
  <metadata
     id="metadata7">
    <rdf:RDF>
      <cc:Work
         rdf:about="">
        <dc:format>image/svg+xml</dc:format>
        <dc:type
           rdf:resource="http://purl.org/dc/dcmitype/StillImage" />
        <dc:title></dc:title>
      </cc:Work>
    </rdf:RDF>
  </metadata>
  <g
     inkscape:label="Color"
     inkscape:groupmode="layer"
     id="layer1"
     transform="translate(0,-1004.3622)"
     style="display:none">
    <path
       style="fill:#33b5e5;fill-opacity:1;stroke:none"
       d="m 20.863071,1012.3622 c -1.324084,0 -2.390042,1.1416 -2.390042,2.56 l 0,2.56 -5.004149,0 -7.46888,5.44 0,18.76 c 0,1.488 1.1070196,2.68 2.5020747,2.68 l 30.9958503,0 c 1.395056,0 2.502075,-1.192 2.502075,-2.68 l 0,-21.52 c 0,-1.488 -1.107019,-2.68 -2.502075,-2.68 l -9.59751,0 0,-2.56 c 0,-1.4184 -1.065958,-2.56 -2.390042,-2.56 l -6.647302,0 z m -13.8921167,1.48 0,4.2 c -0.092188,0.076 -0.1803159,0.1519 -0.2614107,0.24 l 6.3112034,-4.44 -6.0497927,0 z m 16.9543567,7.4 c 5.251493,0 9.485477,4.6654 9.485477,10.32 0,5.6544 -4.233984,10.32 -9.485477,10.32 -5.251495,0 -9.485477,-4.6656 -9.485477,-10.32 0,-5.6546 4.233982,-10.32 9.485477,-10.32 z m 0,3.8 c -3.232011,0 -5.86307,2.8566 -5.86307,6.52 0,3.6632 2.631059,6.52 5.86307,6.52 3.232012,0 5.863071,-2.8568 5.863071,-6.52 0,-3.6634 -2.631059,-6.52 -5.863071,-6.52 z"
       id="rect3845"
       inkscape:connector-curvature="0" />
  </g>
  <g
     inkscape:groupmode="layer"
     id="layer2"
     inkscape:label="Holo-Light"
     style="display:inline">
    <path
       transform="translate(0,-1004.3622)"
       inkscape:connector-curvature="0"
       id="path3794"
       d="m 20.863071,1012.3622 c -1.324084,0 -2.390042,1.1416 -2.390042,2.56 l 0,2.56 -5.004149,0 -7.46888,5.44 0,18.76 c 0,1.488 1.1070196,2.68 2.5020747,2.68 l 30.9958503,0 c 1.395056,0 2.502075,-1.192 2.502075,-2.68 l 0,-21.52 c 0,-1.488 -1.107019,-2.68 -2.502075,-2.68 l -9.59751,0 0,-2.56 c 0,-1.4184 -1.065958,-2.56 -2.390042,-2.56 l -6.647302,0 z m -13.8921167,1.48 0,4.2 c -0.092188,0.076 -0.1803159,0.1519 -0.2614107,0.24 l 6.3112034,-4.44 -6.0497927,0 z m 16.9543567,7.4 c 5.251493,0 9.485477,4.6654 9.485477,10.32 0,5.6544 -4.233984,10.32 -9.485477,10.32 -5.251495,0 -9.485477,-4.6656 -9.485477,-10.32 0,-5.6546 4.233982,-10.32 9.485477,-10.32 z m 0,3.8 c -3.232011,0 -5.86307,2.8566 -5.86307,6.52 0,3.6632 2.631059,6.52 5.86307,6.52 3.232012,0 5.863071,-2.8568 5.863071,-6.52 0,-3.6634 -2.631059,-6.52 -5.863071,-6.52 z"
       style="fill:#333333;fill-opacity:0.6;stroke:none;display:inline;enable-background:new" />
  </g>
  <g
     inkscape:groupmode="layer"
     id="layer3"
     inkscape:label="Holo-Dark"
     style="display:none">
    <path
       transform="translate(0,-1004.3622)"
       inkscape:connector-curvature="0"
       id="path3797"
       d="m 20.863071,1012.3622 c -1.324084,0 -2.390042,1.1416 -2.390042,2.56 l 0,2.56 -5.004149,0 -7.46888,5.44 0,18.76 c 0,1.488 1.1070196,2.68 2.5020747,2.68 l 30.9958503,0 c 1.395056,0 2.502075,-1.192 2.502075,-2.68 l 0,-21.52 c 0,-1.488 -1.107019,-2.68 -2.502075,-2.68 l -9.59751,0 0,-2.56 c 0,-1.4184 -1.065958,-2.56 -2.390042,-2.56 l -6.647302,0 z m -13.8921167,1.48 0,4.2 c -0.092188,0.076 -0.1803159,0.1519 -0.2614107,0.24 l 6.3112034,-4.44 -6.0497927,0 z m 16.9543567,7.4 c 5.251493,0 9.485477,4.6654 9.485477,10.32 0,5.6544 -4.233984,10.32 -9.485477,10.32 -5.251495,0 -9.485477,-4.6656 -9.485477,-10.32 0,-5.6546 4.233982,-10.32 9.485477,-10.32 z m 0,3.8 c -3.232011,0 -5.86307,2.8566 -5.86307,6.52 0,3.6632 2.631059,6.52 5.86307,6.52 3.232012,0 5.863071,-2.8568 5.863071,-6.52 0,-3.6634 -2.631059,-6.52 -5.863071,-6.52 z"
       style="fill:#ffffff;fill-opacity:0.8;stroke:none;display:inline;enable-background:new" />
  </g>
  <g
     inkscape:groupmode="layer"
     id="layer6"
     inkscape:label="Remove"
     style="display:none"
     transform="translate(0,16)">
    <rect
       style="fill:#eb1313;fill-opacity:1;stroke:none;display:inline"
       id="rect3801"
       width="14.340249"
       height="5.1199999"
       x="26.315353"
       y="12.48"
       rx="0.92622435"
       ry="0.72644788" />
  </g>
  <g
     inkscape:groupmode="layer"
     id="layer5"
     inkscape:label="Create"
     style="display:none"
     transform="translate(0,16)">
    <path
       style="fill:#eb1313;fill-opacity:1;stroke:none;display:inline"
       d="m 31.767635,7.36 c -0.375734,0 -0.672199,0.4503821 -0.672199,1 l 0,4.12 -3.846474,0 c -0.513128,0 -0.93361,0.317548 -0.93361,0.72 l 0,3.68 c 0,0.402452 0.420482,0.72 0.93361,0.72 l 3.846474,0 0,4.12 c 0,0.549617 0.296465,1 0.672199,1 l 3.435684,0 c 0.375734,0 0.672199,-0.450383 0.672199,-1 l 0,-4.12 3.846474,0 c 0.513128,0 0.93361,-0.317548 0.93361,-0.72 l 0,-3.68 c 0,-0.402452 -0.420482,-0.72 -0.93361,-0.72 l -3.846474,0 0,-4.12 c 0,-0.5496179 -0.296465,-1 -0.672199,-1 l -3.435684,0 z"
       id="path3803"
       inkscape:connector-curvature="0" />
  </g>
</svg>
