<?xml version="1.0" encoding="UTF-8" standalone="no"?>
<!-- Created with Inkscape (http://www.inkscape.org/) -->

<svg
   xmlns:dc="http://purl.org/dc/elements/1.1/"
   xmlns:cc="http://creativecommons.org/ns#"
   xmlns:rdf="http://www.w3.org/1999/02/22-rdf-syntax-ns#"
   xmlns:svg="http://www.w3.org/2000/svg"
   xmlns="http://www.w3.org/2000/svg"
   xmlns:sodipodi="http://sodipodi.sourceforge.net/DTD/sodipodi-0.dtd"
   xmlns:inkscape="http://www.inkscape.org/namespaces/inkscape"
   width="50"
   height="26"
   id="svg2"
   version="1.1"
   inkscape:version="0.48.3.1 r9886"
   sodipodi:docname="panel_body9.mdpi.svg"
   inkscape:export-filename="/home/kedzie/Desktop/mdpi/panel_body_yellow.9.png"
   inkscape:export-xdpi="90"
   inkscape:export-ydpi="90">
  <defs
     id="defs4" />
  <sodipodi:namedview
     id="base"
     pagecolor="#ffffff"
     bordercolor="#666666"
     borderopacity="1.0"
     inkscape:pageopacity="0.0"
     inkscape:pageshadow="2"
     inkscape:zoom="21.27"
     inkscape:cx="27.676533"
     inkscape:cy="13.323828"
     inkscape:document-units="px"
     inkscape:current-layer="layer4"
     showgrid="true"
     inkscape:window-width="1920"
     inkscape:window-height="1024"
     inkscape:window-x="0"
     inkscape:window-y="27"
     inkscape:window-maximized="1"
     inkscape:snap-nodes="false"
     inkscape:snap-bbox="true">
    <inkscape:grid
       type="xygrid"
       id="grid2985"
       empspacing="4"
       visible="true"
       enabled="true"
       snapvisiblegridlinesonly="true" />
  </sodipodi:namedview>
  <metadata
     id="metadata7">
    <rdf:RDF>
      <cc:Work
         rdf:about="">
        <dc:format>image/svg+xml</dc:format>
        <dc:type
           rdf:resource="http://purl.org/dc/dcmitype/StillImage" />
        <dc:title></dc:title>
      </cc:Work>
    </rdf:RDF>
  </metadata>
  <g
     inkscape:groupmode="layer"
     id="layer4"
     inkscape:label="9-Patch"
     transform="translate(0,-48)"
     style="display:inline">
    <rect
       style="fill:#000000;fill-opacity:1;stroke:none"
       id="rect3757"
       width="6"
       height="1"
       x="21"
       y="48" />
    <rect
       y="51"
       x="49"
       height="18"
       width="1"
       id="rect3759"
       style="fill:#000000;fill-opacity:1;stroke:none" />
    <rect
       y="73"
       x="5"
       height="1"
       width="40"
       id="rect3761"
       style="fill:#000000;fill-opacity:1;stroke:none" />
    <rect
       y="58"
       x="7.8886091e-31"
       height="4"
       width="1"
       id="rect3763"
       style="fill:#000000;fill-opacity:1;stroke:none" />
  </g>
  <g
     inkscape:groupmode="layer"
     id="layer2"
     inkscape:label="Gray"
     transform="translate(0,-22)"
     style="display:none">
    <path
       inkscape:connector-curvature="0"
       id="path3783"
       d="m 1.6593428,23.659344 0,3.780219 0,4.725249 0,10.395625 c 0,2.094245 1.7349889,3.780219 3.89011,3.780219 l 38.9010972,0 c 2.155126,0 3.890106,-1.685974 3.890106,-3.780219 l 0,-10.395625 0,-4.725249 0,-3.780219 -3.890106,0 -38.9010972,0 -3.89011,0 z"
       style="fill:none;stroke:#a6aca9;stroke-width:1.31868732;stroke-miterlimit:4;stroke-opacity:1;stroke-dasharray:none;display:inline" />
  </g>
  <g
     inkscape:groupmode="layer"
     id="layer3"
     inkscape:label="Yellow"
     style="display:none"
     transform="translate(0,-46)">
    <path
       inkscape:connector-curvature="0"
       id="path3766"
       d="m 1.6593428,47.659344 0,3.780219 0,4.725249 0,10.395625 c 0,2.094245 1.7349889,3.780219 3.89011,3.780219 l 38.9010972,0 c 2.155126,0 3.890106,-1.685974 3.890106,-3.780219 l 0,-10.395625 0,-4.725249 0,-3.780219 -3.890106,0 -38.9010972,0 -3.89011,0 z"
       style="fill:none;stroke:#fffc8b;stroke-width:1.31868732;stroke-miterlimit:4;stroke-opacity:1;stroke-dasharray:none;display:inline" />
  </g>
  <g
     inkscape:label="Blue"
     inkscape:groupmode="layer"
     id="layer1"
     transform="translate(0,-1026.3622)"
     style="display:inline">
    <path
       style="fill:none;stroke:#33b5e5;stroke-width:1.3186872;stroke-miterlimit:4;stroke-opacity:1;stroke-dasharray:none;display:inline"
       d="m 1.6593427,1028.0215 0,3.7802 0,4.7253 0,10.3957 c 0,2.0942 1.734989,3.7802 3.8901101,3.7802 l 38.9010972,0 c 2.155127,0 3.890106,-1.686 3.890106,-3.7802 l 0,-10.3957 0,-4.7253 0,-3.7802 -3.890106,0 -38.9010972,0 -3.8901101,0 z"
       id="path3762"
       inkscape:connector-curvature="0" />
  </g>
</svg>
